<?xml version="1.0" encoding="utf-8"?>
<!-- Generator: Adobe Illustrator 19.1.0, SVG Export Plug-In . SVG Version: 6.00 Build 0)  -->
<svg version="1.1" id="Layer_1" xmlns="http://www.w3.org/2000/svg" xmlns:xlink="http://www.w3.org/1999/xlink" x="0px" y="0px"
	 viewBox="-233 325 144 144" style="enable-background:new -233 325 144 144;" xml:space="preserve">
<style type="text/css">
	.st0{fill:none;}
	.st1{fill:#FFFFFF;}
</style>
<g>
	<path class="st0" d="M-159.1,372.1c0.6,0,1.3,0,1.9,0.1c0.6,0,1.3,0.1,1.9,0.3c1.6,0.1,3.2,0.4,4.6,0.1h0.3
		c0.9-0.1,1.2-0.1,1.5-0.7c0.3-0.4,0.7-0.7,1.2-1c0.4-0.3,1-0.4,1.5-0.7c0.4-0.1,0.9-0.4,1.3-0.6l0.9-0.4c0.9-0.4,1.7-0.9,2.5-1.3
		c1.2-0.7,1.7-1.5,1.7-2.5c0.3-2.9-0.4-5.1-2.2-7c-2.9-3-6.5-4.6-10.5-6.5c-0.1,0-0.4,0-0.6,0c-0.4,0-0.9,0.1-1.2,0.1
		c-0.3,0-0.6,0.1-0.9,0.1c-3,0.4-5.4,1.3-7.3,2.9c-1,0.7-1.9,1.6-2.9,2.3c-1,0.9-2,1.6-3.2,2.5l-0.1,0.1c-3.3,2.8-6.8,5.7-9.9,8.9
		l-0.1,0.1c-0.1,0.1-0.3,0.3-0.3,0.3l-0.3,0.9c-0.4,0.9-0.7,1.7-1,2.8c-0.1,0.4,0,1.2,0.1,1.7v0.1c0,0,0,0,0.1,0
		c0.6,0,1.2,0,1.7-0.1c2.8-0.1,5.7-0.1,8.3-1c3-1,6.4-1.5,9.9-1.6L-159.1,372.1z"/>
	<polygon class="st0" points="-165.2,420.1 -155.9,419.3 -155.6,415.6 -161.4,416.2 -161,411.9 -156.2,411.4 -155.9,407.8 
		-160.7,408.2 -160.4,403.9 -154.8,403.3 -154.5,399.8 -163.6,400.5 	"/>
	<path class="st0" d="M-176.8,401.8l-1.6,19.6l3.6-0.3l0.7-8l1-0.1l2.3,7.7l3.8-0.3l-2.5-7.7l2.6-2.5l0.6-7.1l-2-1.9L-176.8,401.8z
		 M-170.1,409.1l-3.6,0.3l0.3-4.4l3.6-0.3L-170.1,409.1z"/>
	<path class="st0" d="M-145.5,418.3l1.2-1c-0.3,0.1-0.9,0.6-1.3,1H-145.5z"/>
	<path class="st0" d="M-149.7,399.4C-149.5,399.4-149.5,399.4-149.7,399.4l-3,0.3l-0.1,1.9C-149.5,399.8-149.7,399.4-149.7,399.4z"
		/>
	<path class="st0" d="M-151.1,350.9c0,0-0.3-0.1-0.4-0.1c0.1,0.1,0.4,0.1,0.6,0.3L-151.1,350.9z"/>
	<polygon class="st0" points="-182.8,410.3 -186.7,410.7 -186.1,402.7 -189.6,403 -191.2,422.6 -187.7,422.2 -187,414.3 
		-183.1,413.9 -183.6,421.9 -180.2,421.6 -178.6,402 -182,402.3 	"/>
	<path class="st0" d="M-143,415.2l0.1-1c-0.1,0.1-0.1,0.1-0.3,0.3c0,0-2.8,3.8-3,3.8c0,0,1.2-1.2,1-1.9l2.2-2.9l0.1,0.3l1-13.1
		l-1.7-1.5v0.1l0,0l0,0c0,0-0.1-0.3-1.2-0.3c0,0,0,0.6-0.1,0.6l-1.9,0.3c0,0,0-0.4-0.1-0.6h-0.1c0,0,0.3,0.6,0.1,0.6l-0.4,0.1
		c0,0,0.1-0.4,0-0.4h-0.1c0,0,0.1,0.4,0,0.4c0,0-1.7,0.4-1.9,0.3c0,0-0.7,0-0.9,0.1l-2.5,1c0,0,2.5-1.5,6.7-2.5c0,0,0.1,0,0.4-0.1
		l-2.3,0.1c-2.2,1-4.2,2-4.9,2.3l-1.5,17.7l8.3-0.7C-145.2,417.5-144,416.4-143,415.2z M-150.4,415.2l1-12.3l3.9-0.4l-1,12.3
		L-150.4,415.2z"/>
	<polygon class="st0" points="-199.8,403.9 -202.2,406.2 -202.8,413.8 -200.6,415.5 -195.8,415.1 -196.1,419.4 -199.8,419.7 
		-199.6,418.3 -203.2,418.5 -203.5,421.7 -201.4,423.5 -195.3,422.9 -192.8,420.7 -192.2,413.2 -194.2,411.3 -199.2,411.9 
		-198.7,407.5 -195.1,407.1 -195.3,408.5 -191.8,408.2 -191.5,405.2 -193.7,403.4 	"/>
	<polygon points="-149.4,402.9 -150.4,415.2 -146.5,414.8 -145.5,402.6 	"/>
	<polygon points="-173.9,409.4 -170.1,409.1 -169.9,404.8 -173.5,405 	"/>
	<path d="M-96.1,407.1c-0.4-4.2-0.9-8.3-1.3-12.3v-0.3c-0.6-4.8-2.8-8.7-6.4-11.5c-3.3-2.5-6.1-5.7-8.3-8.4
		c-1.9-2.3-4.4-3.9-7.1-4.5c-3.8-0.9-7.4-0.9-10.7,0.3c-0.4,0.1-0.6,0.1-0.9-0.3c-0.3-0.3-0.4-0.6-0.7-0.7c-0.3-0.4-0.7-0.7-1-1.2
		c-1.3-1.9-2.5-3.3-2.9-5.4c-0.3-1.2-0.9-2.2-1.3-3c-2-3.3-5.2-5.5-8-7.3c-0.7-0.4-1.5-0.7-2.2-1c-1.2-0.4-2.3-1-3-1.7
		c-0.4-0.4-0.9-0.4-1.5-0.6l-1.5-0.3c-1.7-0.3-3.5-0.7-5.4-1c-3.3-0.6-6.2-0.3-8.7,0.9c-3.6,1.6-7.8,3.8-11.3,7.1
		c-1.3,1.3-2.8,2.6-4.1,3.9c-1.3,1.2-2.5,2.5-3.8,3.6c-1.3,1.2-2.5,2.5-3.6,3.6l-1.3,1.3c-1.7,1.7-3.5,3.8-4.8,6.2
		c-0.1,0.3-0.3,0.7-0.4,0.7s-0.4-0.1-0.7-0.1l-0.1-0.1c-2.6-0.6-5.1-0.9-7.3-0.6c-0.3,0-0.6,0-0.7,0.1c-0.9,0.1-1.6,0.1-2.2-0.1
		l-0.4-0.3l-0.4,0.3c-0.1,0.1-0.4,0.3-0.6,0.4c-0.3,0.3-0.6,0.4-0.7,0.6c-2.5,0.7-4.4,1.9-6,3.3c-0.4,0.4-1,0.9-1.5,1.3
		c-0.7,0.6-1.6,1.2-2.3,2c-2.2,2.3-3,5.4-3.6,8.1c-0.3,1-0.6,2-0.7,3c-0.7,2.9-1.5,6-2.3,8.9c-1.3,3.5-2,6.4-2,9.3
		c-0.1,5.2,0.6,10.9,2.2,17c1.6,5.7,3.6,10,6.4,13.8c1.3,1.6,2.9,3.5,5.5,3.9c0.4,0.1,0.9,0.1,1.3,0.1s0.9,0.1,1.3,0.1
		c1.3,0.3,2.5,0.4,3.6,0.4c1.5,0,2.8-0.3,4.1-0.7c0.4-0.1,1-0.3,1.6-0.3c1.5-0.1,2.9-0.1,4.4-0.3l2.8-0.1c1.6-0.1,3.2-0.3,4.8-1
		c0.4-0.3,0.9-0.3,1.3-0.4h0.3c2.5-0.1,4.9-0.3,7.4-0.3c1.2,0,2.5,0.1,3.6,0.1c0.7,0,1.5,0.1,2.2,0.1c3.5,0.1,7-0.3,9.7-0.7
		c2.6-0.4,5.4-0.7,8-1.2l2.6-0.4c1-0.1,2.2-0.3,3.2-0.4c2.3-0.4,4.8-0.7,7.1-1h0.1c2.5-0.3,5.2-0.6,7.7-1.6c0.6-0.1,1-0.3,1.5-0.3
		c1.5-0.1,2.9-0.3,4.4-0.3l2.3-0.1c1-0.1,1.9-0.1,2.9-0.1c2.3-0.1,4.8-0.3,7.1-0.6c2.9-0.3,6-0.9,8.6-2.8c0.6-0.4,1.2-0.9,1.9-1.2
		l0.4-0.3c3.9-2.5,6.4-4.9,8-8.1C-96.8,418.7-95.7,413-96.1,407.1z M-151.1,350.9l0.1,0.1c-0.1-0.1-0.4-0.1-0.6-0.3
		C-151.4,350.7-151.3,350.7-151.1,350.9z M-191.8,408.2l-3.5,0.3l0.1-1.5l-3.6,0.3l-0.3,4.4l4.9-0.4l2,1.9l-0.6,7.6l-2.5,2.2
		l-6.1,0.6l-2.2-1.9l0.3-3.2l3.5-0.3l-0.1,1.6l3.6-0.3l0.3-4.4l-4.8,0.4l-2.2-1.9l0.6-7.4l2.5-2.3l6.1-0.6l2,1.9L-191.8,408.2z
		 M-180.2,421.6l-3.5,0.3l0.7-8l-4.1,0.4l-0.7,8l-3.5,0.3l1.6-19.6l3.5-0.3l-0.6,8l4.1-0.4l0.7-8l3.5-0.3L-180.2,421.6z
		 M-166.8,410.1l-2.6,2.5l2.5,7.7l-3.8,0.4l-2.3-7.7l-1,0.1l-0.7,8l-3.6,0.3l1.6-19.6l8.6-0.7l2,1.9L-166.8,410.1z M-169.9,373.7
		c-2.6,0.9-5.5,0.9-8.3,1c-0.6,0-1.2,0-1.7,0.1c0,0,0,0-0.1,0v-0.1c-0.1-0.6-0.3-1.3-0.1-1.7c0.3-0.9,0.6-1.7,1-2.8l0.3-0.9
		c0,0,0.1-0.1,0.3-0.3l0.1-0.1c2.9-3.3,6.4-6.1,9.9-8.9l0.1-0.1c1-0.9,2-1.7,3.2-2.5c1-0.7,1.9-1.6,2.9-2.3c1.9-1.6,4.2-2.5,7.3-2.9
		c0.3,0,0.6-0.1,0.9-0.1c0.4,0,0.7-0.1,1.2-0.1c0.1,0,0.4,0,0.6,0c3.9,1.7,7.6,3.5,10.5,6.5c1.7,1.9,2.5,4.2,2.2,7
		c-0.1,1-0.7,1.7-1.7,2.5c-0.7,0.6-1.6,0.9-2.5,1.3l-0.9,0.4c-0.4,0.1-0.9,0.4-1.3,0.6c-0.4,0.3-1,0.4-1.5,0.7
		c-0.4,0.1-0.9,0.4-1.2,1c-0.3,0.6-0.6,0.6-1.5,0.7h-0.3c-1.6,0.3-3,0-4.6-0.1c-0.6-0.1-1.3-0.1-1.9-0.3c-0.6,0-1.3-0.1-1.9-0.1
		h-0.9C-163.3,372.1-166.7,372.7-169.9,373.7z M-154.8,403.3l-5.7,0.6l-0.3,4.4l4.8-0.4l-0.3,3.6l-4.8,0.4l-0.3,4.4l5.7-0.6
		l-0.3,3.6l-9.3,0.9l1.6-19.6l9.1-0.9L-154.8,403.3z M-154.3,419.1l1.5-17.7c-0.1,0-0.3,0.1-0.3,0.1c0.1,0,0.1-0.1,0.3-0.1l0.1-1.9
		l3.2-0.3c0.4-0.3,2.2-1.2,2.2-1.2l-0.1,0.4l0.3-0.6l0.7-0.3l-0.1,0.3l0.7-0.6h0.1v0.1c0.1-0.1,3.9-2.6,3.9-2.6
		c-0.9,0.7-0.1,0.9-0.1,0.9s0,0-0.1,0l0,0l0,0c0.1,0,0.6-0.9,0.6-0.9l0,0l0,0l0,0c0,0.1,1.5-0.4,1.5-0.4v0.4l0.3-0.4l1.3-0.4
		l-0.1,1.2l0.4-1.3l0.4-0.1v0.6l0.3-0.7l3.2-1.5c-0.1,0.1-0.4,0.9-0.4,0.9l0.6-0.4c-0.1,0.1,0,0.7,0,0.7l1-1.2
		c0.6,0,4.8-1.3,4.8-1.3c0.1,0.1,0.4,1.5,0.4,1.5l0.7-0.4c0,0.3,0,0.3,0,0.3c0.1,0-0.1-0.1,0.4-0.6c0.6-0.4,0.7-1.3,0.7-1.3
		c0.3,0.4-0.1,1.2-0.1,1.2c0.3-0.1,0.6-0.9,0.6-0.9l3.9,1.6c0,0,0,0,0,0.1s-0.3,0.9-0.3,0.9c0.4-0.4,0.9-0.4,0.9-0.4
		c0.7-0.1,2.5,1.3,2.5,1.3c-0.3,0-0.4,0.3-0.4,0.3l0,0h0.9c-0.7,0-0.3,0.6-0.3,0.6c-1.3-1-5.8-1.6-5.8-1.6c-6-0.9-17.1,3.5-17.1,3.5
		c-1.2,0.4-4.2,1.7-6.8,3l2.3-0.1c1.6-0.4,7.8-2.3,9.4-2.5c0,0,9.4-2,11.6-1.9c0,0,4.5-0.3,6.4,0c0,0,0.4,0.7,1,0.7l-0.7,0.4
		c0,0-1.3-0.4-1.7-0.7l0.3,0.7l-0.6-0.6h-0.7l0.6,0.6c0,0-2.8,0.1-3.3,0.4l-0.9-0.9v0.6l-0.6-0.6l-0.1,0.6c0,0-2.6,0.3-4.6,1
		l-0.6-0.4l-0.1,0.4l-0.4-0.6l-0.3,0.7l-0.1-0.4l0.3-0.4l-1.2,0.3c0,0,0.1-1.2,0-1.2c0,0-0.1,1.3-0.3,1.3l-0.3,0c0,0,0-0.7-0.1-0.9
		c0-0.1,0-0.1,0-0.1v0.9c0,0-0.7,0.1-1,0.9c0,0-0.1-0.4,0-0.6c0,0-2.2,0.1-3,0.6c0,0,0.3-0.4-0.4-1c0,0-0.3,0.1,0,0.6l-3.3,0.7
		c0,0-1,0.1-1.3,0.3l-1.2-0.1c0,0,0.3,0.1,0.3,0.4l0,0l1.7,1.5l-1,13.1l0,0c0,0,0.1-0.7,0.3-0.7h0.3c0,0,1.3-2.3,1.3-2.5
		c0,0,0,0.6,0,0.7c0,0,0-0.9,0.1-1c0,0,0.7-1,0.7-1.2c0,0-0.1,0.7,0,0.7h0.3c0,0,0.3-1,0.3-1.2c0-0.1,0,0,0,0s2.5-2.3,2.6-2.6v-0.1
		l0,0c0,0,0-0.1,0,0c0.1-0.1,2.8-3,2.8-3.2s0,0.1,0,0.1s0,0.7-0.1,1c0-0.1,0.3-0.6,0.3-0.7c0,0,0.3,0.1,0.4,0.3c0,0,0.4-1.3,0.7-1.6
		c0,0,3.2-2.8,3.2-2.9s0-0.1,0-0.1s0.4,0,0.4-0.3c0,0,1.2,0.6,1,0.9c0,0,0.7-0.6,0.7-0.7l0.1,0.1c0,0,0.4-1.3,0.4-1.5s0-0.1,0-0.1
		s0.3,0.4,0.3,0.6s0,0.1,0,0.1l0.1-0.7c0,0,1.2-0.6,1.3-0.4v1.2l0.1-1.2c0,0,2-0.4,2.8-0.4c0,0,0.1,0.1,0.3-0.1c0,0,0.1,0.7,0.1,0.9
		c0,0,0.4-0.6,0.4-0.7c0,0,0.4-0.1,0.6-0.3v0.1c0,0,0.1-0.3,0.4-0.3c0.1,0,0.1,0,0.1,0l0,0l0,0h0.3c0,0-0.3,0.3-0.1,0.6
		c0.1,0.3,0,0.1,0,0.1s0-0.6,0.4-0.7c0,0,1.3,0,1.5,0.1l-0.4,0.4l0.6-0.4h0.3c0,0-0.6,0.3-0.3,0.7h0.1c0,0,0.4,0.4,1.3,0.3l-0.3,0.4
		c0,0-7-1.6-16.4,6.4c0,0-6.2,5.5-9.9,10.6l-0.1,1c2-2,4.2-4.1,4.2-4.1c0.6-0.9,7.7-6.2,7.7-6.2c2.9-2.2,8.3-5.1,8.3-5.1
		c5.2-2.8,6.2-2.6,6.2-2.6c-0.1,0-1.7,0.6-1.7,0.6l-0.7,0.3c0.1,0,0.3,0.1,0.3,0.1c-0.4,0.1-2.9,2-2.9,2c-0.1-0.1-1.2-0.3-1.2-0.3
		l0.6,0.6l-1-0.3l0.1,0.4c-1.3,0.6-4.4,3.5-4.4,3.5l-0.7-0.1v0.3l-0.6-0.1l0.1,0.6l-0.4-0.3l0.1,0.6l-2,1.6c-0.1,0-0.1,0.7-0.1,0.7
		c-0.1,0-0.3-0.4-0.3-0.4c-1.9,1-2.6,2-2.6,2c0-0.4-0.7-0.6-0.7-0.6c-0.6,0.1,0.1,0.3,0.1,0.3l-1.9,1.6l-0.6-0.3l0.4,0.4l-0.4,0.3
		l-0.4-0.3l0.3,0.4c-0.4,0.1-1.6,1.5-1.6,1.5l-1.2,0.4c0,0.1,0.4,0,0.4,0l-1.5,0.7h0.3c0.1,0.1,0,0.4,0,0.4l-1.7,1.3l-0.1-0.6
		l0.1,0.6l-0.3,0.1l-0.3-0.4l0.1,0.6l-1.7,1.3l0,0l-1.2,1h-0.3c-0.7,1.3-1.6,2.3-1.6,2.3c0-0.1,0.6-0.9,1.5-1.7L-154.3,419.1z
		 M-114.2,415.8c-1-0.1-1.7,0.3-1.7,0.3l-1.6,0.3c-0.1-0.3,0-0.6,0-0.6h-0.1c-0.3,0.3-0.1,0.6-0.1,0.6h-0.4c0-0.1,0.1-0.6,0.1-0.6
		h-0.1c-0.3,0.3-0.1,0.6-0.1,0.6l0,0c-0.3,0-1.7,0.3-1.7,0.3c-0.1-0.3-0.1-0.6-0.1-0.6c-0.7,0.1-1.2,0.6-1.2,0.6
		c0-0.1,0.3-0.4,0.3-0.4c-0.1,0-1.2,0.6-1.2,0.6h-0.4c-0.4,0-1,0.1-1,0.1l-3.5,0.3c0.3-0.4,0-0.6,0-0.6c-0.7,0.4-0.6,1.2-0.6,1.2
		c-1.2-0.1-3,0.6-3,0.6l-1.2,0.1c0-0.1,0-1,0-1c-0.1,0.1-0.1,1-0.1,1h-0.4c-0.3-0.9-0.1-1.5-0.1-1.5c-0.3,0.6,0,1.5,0,1.5l-1.2,0.1
		l-0.1-0.7v0.7l-0.3-0.6l-0.4,0.7l-0.1-0.3l-0.6,0.7c-2.2,0-4.6,0.6-4.6,0.6v-0.6l-0.6,0.7v-0.6l-0.9,1.2c-1.3,0-3.2,0.6-3.2,0.6
		l0.6-0.7l-0.7,0.3l-0.6,0.9l0.3-0.7c-0.9,0.9-1.7,1.5-1.7,1.5l-0.7-0.1c0.6-0.1,1-1,1-1c1.2-0.7,4.2-1.6,4.2-1.6
		c0.7-0.3,6.5-1.6,6.5-1.6c3-0.7,7.4-1.2,7.4-1.2c0.3-0.1,6.8-0.7,6.8-0.7c0.9-0.1,6-0.1,6-0.1c2.5-0.1,3.5,0.1,3.5,0.1
		L-114.2,415.8z M-117,415.1l-5.4-0.6c-0.9-0.1-5.4-0.1-5.4-0.1c-1.2,0-5.4,0.4-5.4,0.4c-2.2,0.1-5.7,1.2-5.7,1.2
		c-2.5,0.7-4.9,2.3-4.9,2.3c-1,0.6-3.3,2.3-3.3,2.3c0.6-0.9-0.3-0.4-0.3-0.4c0-0.1,0.4-0.1,0.4-0.1c0.3,0,0.4-0.1,0.4-0.1
		c0-0.1-0.4-0.1-0.4-0.1c0.4-0.7,1.6-1.7,1.6-1.7c0.9-0.7,1.7-0.3,1.7-0.3c-0.3-0.3-0.3-0.7-0.3-0.7l1.5-1.2
		c0.4-0.4,2.5-1.9,2.5-1.9c0,0.4,0.6,0.7,0.6,0.7c-0.3-0.6-0.1-1-0.1-1v0.1c0,0.4,1,1.2,1,1.2v-0.3c0.3,0,0.9,0.1,0.9,0.1l0.1-0.6
		c0-0.3,0.3-1,0.3-1c0.1,0.1,4.8-0.3,4.8-0.3c0,0.1,1.2,0.7,1.2,0.7v-0.3c0-0.1,0-0.3,0-0.3c0.1,0,0.1,0,0.1,0
		c0.1,0.1,0.6,0.3,0.6,0.3c-0.1,0-0.6-0.7-0.6-0.7h0.3c0.6,0,3,0.3,3,0.3l0.3,0.7l-0.1-0.7h0.6l0.4,1.2l-0.3-1l0.1-0.1
		c0.4,0,1.3,0,1.3,0l0.3,0.6l-0.1-0.6h0.4c0.6,0,1.2-0.1,1.2-0.1c0,0.1,0.6,0.6,0.6,0.6l0.3-0.3c0.1-0.3-0.4-0.6-0.4-0.6
		c0.4,0,3.9,1.2,3.9,1.2v-0.1h0.1c0,0.1,0.7,0.4,0.7,0.4l-0.1-0.3h0.1c0.4,0.1,0.7,0.1,0.7,0.1l0.3,0.4l-0.1-0.4
		c1,0,2.2,0.4,2.2,0.4c0.1,0.6,3.5,1,3.5,1L-117,415.1z"/>
	<path class="st1" d="M-120,395.9L-120,395.9L-120,395.9z"/>
	<path class="st1" d="M-136.9,406.1C-136.9,406.1-136.7,406.1-136.9,406.1C-136.7,405.9-136.9,406.1-136.9,406.1z"/>
	<path class="st1" d="M-143.4,399.2L-143.4,399.2L-143.4,399.2z"/>
	<path class="st1" d="M-142,395.7L-142,395.7L-142,395.7z"/>
	<path class="st1" d="M-141.4,394.7L-141.4,394.7L-141.4,394.7z"/>
</g>
</svg>
