<?xml version="1.0" encoding="utf-8"?>
<!-- Generator: Adobe Illustrator 19.1.0, SVG Export Plug-In . SVG Version: 6.00 Build 0)  -->
<svg version="1.1" id="Layer_1" xmlns="http://www.w3.org/2000/svg" xmlns:xlink="http://www.w3.org/1999/xlink" x="0px" y="0px"
	 viewBox="-233 253 144 288" style="enable-background:new -233 253 144 288;" xml:space="preserve">
<style type="text/css">
	.st0{fill:#221F1F;}
	.st1{fill:#231F20;stroke:#E6E6E5;stroke-miterlimit:10;}
	.st2{fill:#CC0000;}
	.st3{fill:#CC0000;stroke:#E6E6E5;stroke-miterlimit:10;}
</style>
<g>
	<path class="st0" d="M-181.7,388.7h-9.3l0-0.5c0-2.7-0.1-6.7-0.4-11.2c-0.2-3.6-0.8-8.2-1.4-12.6c-0.6-4.8-1.2-9.4-1.3-12.2
		c0-3,0.4-6.9,0.8-10.4c0.3-2.9,0.6-5.6,0.6-7c-0.2-4.1-0.7-6.4-1.1-8.3c-0.2-1-0.4-2-0.5-2.9c-0.2-3.2-0.2-8.4-0.2-13.9
		c0-7.2,0-14.7-0.5-19.3c-0.3-3.4-1.1-5.3-1.6-6.2c-0.5,1-1.3,3.1-1.6,6.6c-0.4,4.2-0.5,11.4-0.5,18.4c-0.1,5.7-0.1,11.1-0.3,14.4
		c-0.1,0.9-0.3,1.8-0.5,2.9c-0.4,1.9-0.9,4.2-1.1,8.3c-0.1,1.4,0.2,4.1,0.6,7c0.4,3.5,0.9,7.4,0.8,10.4c0,2.8-0.6,7.4-1.3,12.2
		c-0.6,4.4-1.2,9-1.4,12.6c-0.3,4.5-0.4,8.4-0.4,11.2l0,0.5h-9.3l0-0.4c-0.1-1.1-0.3-2-0.5-3.1c-1.4-7.1-4.9-28-4.7-35.4
		c0.1-4.2,0.5-7.8,0.8-10.7c0.2-2.2,0.4-4.1,0.4-5.5c0-0.7,0-1.5,0-2.4c0-3.7,0.1-9.2-0.4-13c-0.2-1.2-0.8-3.4-1.6-6.3
		c-2-7.3-5-18.3-5.4-28.1c-0.1-2.3,0-6.3,1.1-12.4c0.8-4.8,4.3-12.3,5.2-12.3c0.2,0,11.1,1.4,20.1,1.2c8.7-0.2,20.2-0.9,20.3-0.9
		l0,0c0.7,0,4.5,6.5,5.3,11.9c0.7,4.1,1.3,8.3,1.1,11l0,0c-0.8,11.6-3.9,23-5.7,29.8c-0.8,2.8-1.4,4.9-1.5,6.1
		c-0.5,3.8-0.4,9.3-0.4,13c0,0.9,0,1.8,0,2.4c0,1.4,0.2,3.3,0.4,5.5c0.3,2.9,0.7,6.5,0.8,10.7c0.2,7.4-3.3,28.3-4.7,35.4
		c-0.2,1.2-0.4,2-0.5,3.2L-181.7,388.7z"/>
</g>
<g>
	<path class="st1" d="M-166.6,312.4c0,0-3.9,15.2-2.9,22c1.1,6.2,27.9,13.5,32.5,10c1.4-1.1,1.2-2.1,1.3-2.9
		c0.5-3.6,0.6-27.7,0.6-27.7s0.7,19.5,0.5,27.5c0,0.9-0.3,2.7,0.7,3.3c5.8,3.7,32.7-3.7,33.8-10.1c2.1-6.9-3-22.1-3-22.1
		S-126,306.1-166.6,312.4z"/>
	<polygon class="st1" points="-164.3,302.1 -105.1,302.2 -102.9,313.6 -166.9,313.6 	"/>
	<path class="st1" d="M-155.9,314.2c0,0-2.6,5.1-7.1,8.1c-4.5,2.9-6.3,5.9-6.5,8.1"/>
	<path class="st1" d="M-114.1,314.2c0,0,2.6,5.1,7.1,8.1c4.5,2.9,7,6.5,7.2,8.6"/>
</g>
<g>
	<path class="st2" d="M-181.7,534h-9.3l0-0.5c0-2.7-0.1-6.7-0.4-11.2c-0.2-3.6-0.8-8.2-1.4-12.6c-0.6-4.8-1.2-9.4-1.3-12.2
		c0-3,0.4-6.9,0.8-10.4c0.3-2.9,0.6-5.6,0.6-7c-0.2-4.1-0.7-6.4-1.1-8.3c-0.2-1-0.4-2-0.5-2.9c-0.2-3.2-0.2-8.4-0.2-13.9
		c0-7.2,0-14.7-0.5-19.3c-0.3-3.4-1.1-5.3-1.6-6.2c-0.5,1-1.3,3.1-1.6,6.6c-0.4,4.2-0.5,11.4-0.5,18.4c-0.1,5.7-0.1,11.1-0.3,14.4
		c-0.1,0.9-0.3,1.8-0.5,2.9c-0.4,1.9-0.9,4.2-1.1,8.3c-0.1,1.4,0.2,4.1,0.6,7c0.4,3.5,0.9,7.4,0.8,10.4c0,2.8-0.6,7.4-1.3,12.2
		c-0.6,4.4-1.2,9-1.4,12.6c-0.3,4.5-0.4,8.4-0.4,11.2l0,0.5h-9.3l0-0.4c-0.1-1.1-0.3-2-0.5-3.1c-1.4-7.1-4.9-28-4.7-35.4
		c0.1-4.2,0.5-7.8,0.8-10.7c0.2-2.2,0.4-4.1,0.4-5.5c0-0.7,0-1.5,0-2.4c0-3.7,0.1-9.2-0.4-13c-0.2-1.2-0.8-3.4-1.6-6.3
		c-2-7.3-5-18.3-5.4-28.1c-0.1-2.3,0-6.3,1.1-12.4c0.8-4.8,4.3-12.3,5.2-12.3c0.2,0,11.1,1.4,20.1,1.2c8.7-0.2,20.2-0.9,20.3-0.9
		l0,0c0.7,0,4.5,6.5,5.3,11.9c0.7,4.1,1.3,8.3,1.1,11l0,0c-0.8,11.6-3.9,23-5.7,29.8c-0.8,2.8-1.4,4.9-1.5,6.1
		c-0.5,3.8-0.4,9.3-0.4,13c0,0.9,0,1.8,0,2.4c0,1.4,0.2,3.3,0.4,5.5c0.3,2.9,0.7,6.5,0.8,10.7c0.2,7.4-3.3,28.3-4.7,35.4
		c-0.2,1.2-0.4,2-0.5,3.2L-181.7,534z"/>
</g>
<g>
	<path class="st3" d="M-166.6,457.8c0,0-3.9,15.2-2.9,22c1.1,6.2,27.9,13.5,32.5,10c1.4-1.1,1.2-2.1,1.3-2.9
		c0.5-3.6,0.6-27.7,0.6-27.7s0.7,19.5,0.5,27.5c0,0.9-0.3,2.7,0.7,3.3c5.8,3.7,32.7-3.7,33.8-10.1c2.1-6.9-3-22.1-3-22.1
		S-126,451.5-166.6,457.8z"/>
	<polygon class="st3" points="-164.3,447.4 -105.1,447.5 -102.9,458.9 -166.9,458.9 	"/>
	<path class="st3" d="M-155.9,459.5c0,0-2.6,5.1-7.1,8.1c-4.5,2.9-6.3,5.9-6.5,8.1"/>
	<path class="st3" d="M-114.1,459.5c0,0,2.6,5.1,7.1,8.1c4.5,2.9,7,6.5,7.2,8.6"/>
</g>
</svg>
