<?xml version="1.0" encoding="utf-8"?>
<!-- Generator: Adobe Illustrator 19.1.0, SVG Export Plug-In . SVG Version: 6.00 Build 0)  -->
<svg version="1.1" id="Layer_1" xmlns="http://www.w3.org/2000/svg" xmlns:xlink="http://www.w3.org/1999/xlink" x="0px" y="0px"
	 viewBox="-233 325 144 144" style="enable-background:new -233 325 144 144;" xml:space="preserve">
<style type="text/css">
	.st0{stroke:#FFFFFF;stroke-miterlimit:10;}
</style>
<g>
	<path class="st0" d="M-132.2,449.9c0-0.1-0.1-0.1-0.1-0.2C-132.3,449.8-132.3,449.8-132.2,449.9z"/>
	<path class="st0" d="M-115.7,384.1c0,0,0-0.1,0-0.2C-115.7,384-115.6,384-115.7,384.1c0.1-0.1,0-0.2,0-0.2c0-0.2-0.1-0.6-0.2-1.1
		c-0.9-4.8-3.4-19.2-7.4-30c-0.2-0.9-1.4-5.2-5.3-7.8c-2.3-1.5-6-3.1-10-5c-2.9-1.3-6-2.7-8.3-4c-3.2,9.9-12,11.3-15.7,11.5
		c-0.1,0-0.1,0-0.1,0h-0.1h-0.2c-11.5,0-15.6-7.6-17-11.2c-2.1,1.1-6.6,3.4-16.7,8.9c-1.3,0.5-5,2.6-6,6.7c-0.1,0.3-0.3,1-0.8,2.3
		c-0.4,1.3-1.1,3.5-1.8,6.4c-1.3,5.1-2.9,13.1-3.7,23c0,0.3,0,0.5,0.2,0.8c0.1,0.1,0.3,0.2,0.4,0.2h0.1c1.8,0.8,6.7,2.4,13.2,2.3
		c1,0,2.1,0,3-0.1c0.1,0,0.3-0.1,0.5-0.2c0,12-0.1,31.5-1,41.5c-0.3,7-2.3,21-2.4,21.9c-0.1,0.2-0.1,0.3,0,0.5
		c0.1,0.4,0.4,0.6,0.9,0.6c0.1,0,0.1,0,0.2,0c0.3,0,1,0.1,1.7,0.2c3.9,0.5,13.3,1.8,27.6,1.8c10,0,20.5-0.6,31-1.9
		c0.5,0,0.9-0.4,0.9-1c0-0.1,0-0.1,0-0.2c-0.2-1.5-2.5-21.4-2.7-25.9c0-0.1,0-0.1,0-0.1c-0.4-3.5,0-24.5,0.4-37.4
		c0.4,0.1,1,0.2,1.9,0.3s2.7,0.3,4.8,0.3c4,0,8-0.6,11.7-1.9C-115.9,385.1-115.6,384.6-115.7,384.1L-115.7,384.1z M-192,385.8
		l-0.4,0.4c-0.1,0-6.2-4.5-15.4-2.1c-0.3,0.1-0.6-0.1-0.6-0.4c-0.1-0.3,0.1-0.6,0.4-0.6c9.9-2.7,16.4,2.3,16.5,2.4L-192,385.8z
		 M-199.3,348.3c-0.4-0.3-0.2-0.8-0.2-0.9c0.1-0.3,0.3-0.4,0.6-0.4c0.1,0,0.2,0.1,0.3,0.1c1.2,1,6.8,7.4,8.4,37.2
		c0,0.4-0.2,0.8-0.6,0.9c-0.3,0-0.5-0.3-0.5-0.6C-192.9,354.4-198.6,348.9-199.3,348.3z M-132.6,450c0.1,0.3-0.1,0.6-0.4,0.6
		c0,0.1-0.1,0.1-0.1,0.1c-0.1,0-0.2,0-0.3-0.1c-1.5-0.6-24.4-4.7-60.3-0.1c-0.3,0-0.5-0.2-0.6-0.4c0-0.3,0.2-0.5,0.4-0.6
		c19.6-2.5,35-2.4,44.4-1.9c5.7,0.3,9.7,0.9,12.2,1.2C-132.8,449.4-132.7,449.7-132.6,450z M-135.1,385.2c-0.3,0-0.5-0.3-0.5-0.8
		c1.6-30.1,7.3-36.4,8.4-37.4c0.1-0.1,0.2-0.1,0.3-0.1c0.2,0,0.5,0.1,0.6,0.4c0.1,0.3,0,0.6-0.2,0.9c-0.6,0.5-6.4,6.1-7.9,36.3
		C-134.5,384.8-134.7,385.2-135.1,385.2z M-117,384.9c-1.5-0.5-7.1-2.2-17.1,1.1c-0.2,0-0.4-0.1-0.5-0.4s0.1-0.6,0.3-0.8
		c10.3-3.4,16.4-1.6,17.9-1l-0.2,0.5l0.3,0.4C-116.5,385.1-116.9,384.9-117,384.9z"/>
</g>
</svg>
