<?xml version="1.0" encoding="utf-8"?>
<!-- Generator: Adobe Illustrator 19.1.0, SVG Export Plug-In . SVG Version: 6.00 Build 0)  -->
<svg version="1.1" id="Layer_1" xmlns="http://www.w3.org/2000/svg" xmlns:xlink="http://www.w3.org/1999/xlink" x="0px" y="0px"
	 viewBox="-233 253 144 288" style="enable-background:new -233 253 144 288;" xml:space="preserve">
<style type="text/css">
	.st0{fill:#FFFFFF;}
	.st1{fill:#232020;}
	.st2{fill:#CC0000;}
</style>
<g>
	<g>
		<path class="st0" d="M-198.6,362.8c-0.1,0-0.1,0-0.2,0C-198.8,362.9-198.9,362.8-198.6,362.8z"/>
	</g>
	<g>
		<path class="st1" d="M-212.3,382c-0.2,0.8-0.3,1.6-0.4,2.3c-0.3,1.7-0.4,2.4,1.8,2.4c2.1,0,3.5,0.2,4.5,0.4
			c1.7,0.3,2.3,0.2,3.4-1.1c0.8-1.1,1.6-2.3,2.3-3.7c-3.2-1.8-6.6-2-9.2-1.3C-210.9,381.2-211.7,381.6-212.3,382z M-206.9,330.3
			c0.3,0.2,0.6,0.5,1,0.9c0,0,0,0,0,0l0,0c0.5,0.7,1.1,1.7,1.7,3.2c1.7,4-1.6-11.5,0.4-4.1c1.5,5.3,1.4,8.9,1.4,13.8
			c-0.6,0.6,10.4,0.7,24-3.1c13.9-3.9,22.6-9.9,22.6-9.9c-2.6-4.2-4.5-7.2-6-12.5c-2.1-7.4,2.7,7.7,2,3.4c-0.4-2.7-0.3-4.2,0.2-5
			c1.4-5.3,1.5-10.8,0.1-15.7c-1.1-3.9-3.1-7.5-6.2-10.4c-1.6,0.1-3.1,0.4-4.6,0.6c-3.9,0.6-10.1,0.9-10.9-0.9
			c-0.9-1.8-1.1-5.3-1.1-5.3c2.1-2.6,3.4-4,3-5.5c-0.4-1.5-2.1-9.6-6.3-15.7c-4.3-6.1-10.7-11.5-17.1-9.7c-6.4,1.8-9.1,9.7-9.6,17.1
			c-0.4,7.5,2.3,15.2,2.8,16.7c0.4,1.5,2.3,2,5.4,3.1c0,0,1.7,3.1,1.9,5.1c0.2,1.9-5.3,4.9-8.9,6.4c-1.4,0.6-2.9,1.1-4.3,1.9
			c-1.1,4.1-1,8.2,0.1,12.1C-213.8,321.9-210.9,326.5-206.9,330.3z M-169.4,327.9c0.4,0.3,0.4,0.8,0.2,1.1c-0.1,0.1-0.3,0.2-0.4,0.3
			c-0.2,0.1-0.5,0-0.7-0.1c-4.8-3.6-8.1-8.2-9.7-14c-0.6-2.1-1-4.4-1.1-6.8c-0.2-2.8-0.6-5.2-1.2-7.2c-0.7-2.5-1.6-4.4-2.1-5.4
			c-0.6,0-1.1-0.4-1.3-1c-0.2-0.8,0.2-1.5,1-1.8c0.8-0.2,1.5,0.2,1.8,1c0.1,0.3,0.1,0.7-0.1,1c0.6,1.1,1.5,3.1,2.3,5.8
			c0.6,2.1,1.1,4.6,1.2,7.6c0.1,2.3,0.5,4.5,1,6.5C-177,320.2-174,324.5-169.4,327.9z M-206,285.4c-0.3-1.2-2.5-7.3-2.3-13.1
			c0.2-5.8,2.2-12,6.8-13.3c4.7-1.3,9.5,2.9,12.8,7.8c3.2,4.9,4.5,11.2,4.9,12.4c0.3,1.2-6.9,9-9.3,9.7
			C-195.4,289.5-205.6,286.6-206,285.4z M-191.2,338.2c2.1-5.3,1.4-14.5-0.2-19.9c-0.6-2-1.4-4-2.5-6.1c-1.4-2.6-2.3-5-2.9-7.1
			c-0.8-2.7-1-4.9-1.1-6.1c-0.3-0.2-0.5-0.5-0.6-0.8c-0.2-0.8,0.2-1.5,1-1.8c0.8-0.2,1.5,0.2,1.8,1c0.2,0.6-0.1,1.2-0.5,1.5
			c0,0.2,0,0.5,0.1,0.7c0.1,1.2,0.4,2.9,0.9,5c0.6,2,1.4,4.3,2.7,6.8c1.1,2.1,2,4.3,2.6,6.4c1.6,5.8,2.3,15.4,0.1,20.9
			c-0.1,0.2-0.3,0.4-0.5,0.5c-0.2,0-0.3,0-0.5,0C-191.2,339.1-191.4,338.7-191.2,338.2z M-102.8,357.5c-5.4-5.8-11.2-12.9-16.1-19.1
			c-10.2-12.8-8-10.1-20.6-24.3c-12.6-14.3-15-17.4-19-20.8c-1.6-1.4-3.2-2-4.8-2.3c2.6,2.9,4.4,6.3,5.4,9.9
			c1.4,5,1.4,10.5,0.1,15.7c1.4,0.6,3.4,2.7,5.2,5.8c2.1,3.7,3,5.2,13.4,16.2c10.4,11,10.1,9.7,16.4,16.5c3.6,3.8,7.1,7,10.3,9.2
			c1.9-3.5,5-5.7,8-6.5C-104,357.7-103.4,357.6-102.8,357.5z M-99.8,360.8c-0.5-0.5-1-1.1-1.5-1.6c-0.8-0.1-1.8-0.1-2.8,0.2
			c-2.5,0.7-5.3,2.7-7,5.8c1.3,0.8,2.6,1.5,3.9,2c1.6,0.6,2.2,0.4,3.5-0.8c0.8-0.7,1.9-1.5,3.7-2.7
			C-98.3,362.6-98.6,362.1-99.8,360.8z M-208.7,330.9c-3.8-3.9-6.7-8.5-8.1-13.5c-1-3.6-1.2-7.4-0.5-11.2c-1.2,1-2.2,2.4-2.9,4.4
			c-1.6,5-2.1,8.9-5.4,27.6c-3.3,18.7,15.4,34,13.8,41.7c0.5-0.2,0.9-0.4,1.4-0.5c3-0.8,6.8-0.6,10.4,1.4c1.6-3.6-3.6-12.5-5.4-17.5
			c-3.6-9.6-5.1-20.3-4.6-24.8C-209.7,335-209.4,332.1-208.7,330.9z"/>
	</g>
	<g>
		<path class="st1" d="M-112.7,354.1c0.1-2.6,0-5.4-0.3-8.1c-0.9-9,0.1-15.9,3.8-21.9c0,0,0,0,0,0c0.3-0.4,0.7-0.9,1.1-1.4
			c6-7.4,5.9-9.3,5.2-15.4c-0.7-6.1,4.1-18.9,5.6-23.8l-5.5-1.7l-3.9,12.8c-1.9,6.3-12.5,8.7-19,6.9c-6.3-2.2-13.7-10.1-11.8-16.4
			l3.9-12.8l-5.5-1.7c-1.5,4.9-4.8,18.2-8.8,22.8c-4,4.7-5.2,6.1-4.4,15.6c0.1,0.6,0.1,1.2,0.1,1.7c0,0,0,0,0,0
			c-0.3,7-3.4,13.4-9.2,20.3c-1.8,2.1-3.4,4.3-4.8,6.6c-0.1-0.6-7,12.6-7.2,17.2c1.3,0.8,11.4,6.7,27.5,11.7
			c16.2,4.9,27.8,5.7,29.3,5.8C-113.9,368.4-112.3,353.6-112.7,354.1z"/>
		<path class="st0" d="M-116.1,372.9l-0.3,0c-2.2-0.1-13.7-1-29.4-5.8c-15.7-4.9-25.7-10.7-27.6-11.8l-0.3-0.1l0-0.3
			c0.1-3.2,5.5-15.6,7.3-17.4c1.5-2.4,3.1-4.6,4.8-6.6c6-7.1,8.8-13.2,9.1-19.9l0-0.1c0-0.6-0.1-1.1-0.1-1.7
			c-0.9-9.7,0.5-11.3,4.5-16c3.3-3.8,6.1-13.6,7.8-19.5c0.3-1.2,0.7-2.3,0.9-3.1l0.1-0.5l6.4,2l-4.1,13.3
			c-1.9,6.2,5.5,13.7,11.5,15.8c6,1.6,16.4-0.5,18.3-6.6l4.1-13.3l6.4,2l-0.1,0.5c-0.3,0.8-0.6,1.9-1,3.1
			c-1.9,5.8-5.1,15.6-4.6,20.5c0.7,6.1,0.9,8.2-5.3,15.7c-0.4,0.5-0.7,0.9-1.1,1.4l-0.1,0.1c-3.4,5.6-4.5,12.2-3.6,21.4
			c0.3,2.6,0.4,5.4,0.3,8.2c0.5,2.5-2.1,15.8-3.8,18.5L-116.1,372.9z M-172.7,354.6c2.4,1.4,12.2,6.9,27.1,11.5
			c15,4.5,26.2,5.5,28.9,5.7c1.8-3.3,3.2-13,3.5-16.4l0,0l0-1.4c0.1-2.8,0-5.5-0.3-8.1c-1-9.5,0.2-16.3,3.9-22.2l0.2-0.2
			c0.3-0.4,0.6-0.8,0.9-1.2c5.9-7.2,5.7-9,5.1-15c-0.6-5.2,2.7-15,4.6-20.9c0.3-1,0.6-1.9,0.8-2.6l-4.6-1.4l-3.8,12.4
			c-2.1,6.7-13.1,9-19.6,7.3c-6.3-2.2-14.2-10.3-12.1-17l3.8-12.4l-4.6-1.4c-0.2,0.7-0.5,1.6-0.8,2.6c-1.7,6-4.6,15.9-7.9,19.9
			c-3.9,4.6-5.1,5.9-4.2,15.3c0,0.5,0.1,1,0.1,1.5l0.1,0l0,0.3c-0.3,6.9-3.2,13.2-9.3,20.5c-1.7,2-3.3,4.2-4.8,6.5l-0.8,1.2l0,0
			C-168,342.1-172.3,350.8-172.7,354.6z"/>
	</g>
	<g>
		<g>
			<path class="st1" d="M-192.5,385.8c0,0.2,0,0.4,0.1,0.5c0.1,0.8,0.1,1.6,0.3,2.4c0,0.1,0.1,0.3,0.2,0.5c0,0,0,0.1,0,0.1
				c2.5,0.2,5.1,0,7.6,0c5.1,0,10.3,0,15.4,0c4.9,0,9.7,0,14.6,0c1.5,0,3,0,4.4,0c0.3,0,0.7,0,1,0c0,0,0,0,0,0c0,0,0,0,0,0
				c0-0.1,0.1-0.3,0.1-0.4c0.1-0.4,0.1-0.8,0.1-1.1c0-0.6,0-1.2,0-1.9L-192.5,385.8z"/>
			<path class="st0" d="M-189.5,389.8c-0.8,0-1.7,0-2.5-0.1c-0.2,0-0.3-0.1-0.4-0.3c0-0.1-0.1-0.2-0.1-0.3c0,0,0-0.1-0.1-0.1
				c0-0.1-0.1-0.2-0.1-0.3c-0.1-0.6-0.2-1.2-0.3-1.8c0-0.2,0-0.4-0.1-0.6l-0.1-0.5c0-0.1,0-0.3,0.1-0.4c0.1-0.1,0.2-0.2,0.4-0.2
				l43.8,0c0.1,0,0.3,0.1,0.4,0.1c0.1,0.1,0.1,0.2,0.1,0.4c0,0.4,0,0.7,0,1.1c0,0.3,0,0.5,0,0.8c0,0.4,0,0.8-0.1,1.2
				c0,0.1,0,0.1-0.1,0.2c0,0,0,0.1,0,0.1c0,0,0,0.1,0,0.1c0,0.3-0.3,0.5-0.6,0.4c-0.2,0-0.4,0-0.6,0c-0.1,0-0.2,0-0.4,0l-34.4,0
				c-0.8,0-1.7,0-2.6,0C-187.8,389.8-188.7,389.8-189.5,389.8z M-191.6,388.8c1.5,0.1,3.1,0,4.7,0c0.9,0,1.7,0,2.6,0l34.4,0
				c0.1,0,0.2,0,0.3,0c0.1,0,0.2,0,0.4,0l0-0.1c0.1-0.3,0.1-0.6,0.1-1c0-0.3,0-0.6,0-0.8c0-0.2,0-0.4,0-0.6l-42.8,0
				c0,0.2,0,0.4,0.1,0.6c0.1,0.6,0.1,1.2,0.2,1.7c0,0,0,0.1,0,0.1C-191.6,388.7-191.6,388.8-191.6,388.8z"/>
		</g>
		<g>
			<path class="st1" d="M-185.7,353.2L-185.7,353.2c0.1,0,0.1,0.1,0.2,0.1c4.3,1.8,7.1,4.6,8.3,8.1c0.8,2.1,0.6,7.5,0.6,7.6
				c3.2,1.4,7.6,2.3,12.3,0.3c0,0,0,0,0-0.1c0-0.1-0.1-7.5,1.2-9.9c2.2-4.1,6.5-5.5,7.7-5.8c0.2,0,0.3-0.1,0.3-0.1
				c0-0.2,0-0.4,0-0.7c-0.1-3-0.2-5.8-0.2-6.9c-0.1,0.1-0.2,0.3-0.3,0.4c-4.6,7-9.6,10.6-14.8,10.5c-2.5,0-6.5-1.1-10.9-5.6
				c-2-2.1-3.4-4.1-4-5c0,0-0.3-0.5-0.3-0.5s-0.1,6.9-0.1,7.2C-185.7,353.1-185.7,353.1-185.7,353.2L-185.7,353.2z"/>
			<path class="st0" d="M-169.9,370.8c-2.3,0-4.6-0.5-6.9-1.5c-0.2-0.1-0.3-0.3-0.3-0.5c0-0.6,0.1-5.4-0.6-7.3
				c-1.2-3.4-3.9-6-8.1-7.8l0.1-0.5l-0.2,0.5c-0.1,0-0.2-0.1-0.2-0.2l-0.1-0.2c-0.1-0.1-0.1-0.2-0.1-0.3c0-0.3,0.1-7.2,0.1-7.2
				c0-0.2,0.1-0.4,0.3-0.5c0.2-0.1,0.4,0,0.5,0.2c0,0,0.3,0.4,0.3,0.5c0.5,0.8,1.9,2.9,3.9,4.9c4.3,4.4,8.2,5.4,10.6,5.4
				c5,0.1,9.8-3.3,14.4-10.2l0.3-0.4c0.1-0.2,0.3-0.3,0.5-0.2c0.2,0.1,0.4,0.2,0.4,0.5c0,0.8,0.2,3.8,0.2,6.9l0,0.7
				c0,0.2-0.2,0.4-0.4,0.5c0,0-0.1,0-0.3,0.1c-1.2,0.3-5.2,1.6-7.3,5.5c-1.1,2.1-1.2,9-1.1,9.6c0,0.2-0.1,0.5-0.3,0.5
				C-165.9,370.5-167.9,370.8-169.9,370.8z M-176.1,368.6c3.9,1.6,7.7,1.7,11.3,0.3c0-1.6,0-7.6,1.3-9.9c2.3-4.2,6.5-5.6,7.9-6
				l0-0.3c0-2-0.1-4-0.2-5.4c-4.6,6.6-9.5,9.9-14.7,9.9c-2.6-0.1-6.7-1.1-11.3-5.7c-1.6-1.6-2.8-3.2-3.5-4.3c0,1.8-0.1,4.7-0.1,5.5
				c4.4,1.9,7.3,4.7,8.6,8.4C-176,363.1-176,367.3-176.1,368.6z"/>
		</g>
		<g>
			<path class="st1" d="M-145.9,369.2c-0.5-0.9-1.2-1.8-1.7-2.6c-0.8-1.1-1.8-2.4-2.2-3.7c-0.3-0.9-0.3-1.9-0.4-2.9
				c-0.1-1.4-0.1-2.9,0-4.3c0.1-2.5,0.2-5.1,0.4-7.6c0-0.2,0.1-0.6,0.1-0.9c0,0,0-0.1,0-0.1c0.1,0.1-0.6-0.2-0.7-0.2
				c-0.3-0.2-0.6-0.3-1-0.4c-0.9-0.4-1.8-0.6-2.8-0.6c-0.1,0-0.3,0-0.4,0c0,0-0.1,0-0.1,0c-0.1,0-0.2,0-0.3,0c0,0,0,0,0,0
				c0,0.2,0.3,11,0.2,12.7c0,0.7,0,1.5-0.2,2.2c-0.2,0.6-0.6,1.1-1,1.6c-0.4,0.5-0.8,1-1.2,1.5c-0.3,0.3-0.6,0.6-0.9,0.9
				c0,0-4.9,5.6-11.7,5.5c-6.4-0.1-12.7-5.5-12.7-5.5c-1-0.9-1.9-1.9-2.7-3.1c-0.5-0.7-0.7-1.3-0.8-2.1c-0.1-1-0.1-2-0.1-2.9
				c0-1.4,0.1-9.5,0.1-10.9c-1.3,0-2.7,0.4-3.9,0.9c-0.3,0.1-0.8,0.3-1.1,0.5l-0.1,0.1c0,0.3,0,0.6,0.1,0.9c0.1,1,0.1,2.1,0.2,3.1
				c0.2,2.7,0.3,5.5,0.2,8.3c0,0.9,0,1.9-0.3,2.8c-0.3,1.1-1.2,2-1.8,2.9c-0.7,1-1.4,1.9-2,2.9c-0.7,1.1-1,2.5-1.2,3.8
				c-0.5,3.5-0.1,7.4,1.5,10.6c0.4,0.8,1,1.4,1.4,2.1c0.1,0.2,0.2,0.5,0.2,0.7l43.9,0c0.1-0.7,0.3-1,0.7-1.5c1.2-1.3,1.9-3,2.4-4.7
				C-144.7,376-144.4,372.1-145.9,369.2z"/>
			<path class="st0" d="M-192.6,385.8c-0.2,0-0.4-0.2-0.5-0.4c0-0.3-0.1-0.4-0.2-0.6c-0.2-0.3-0.4-0.6-0.7-1
				c-0.3-0.4-0.5-0.7-0.8-1.1c-1.6-3-2.1-6.9-1.6-10.9c0.2-1.2,0.5-2.7,1.2-4c0.4-0.7,0.9-1.3,1.4-2c0.2-0.3,0.5-0.6,0.7-0.9
				c0.2-0.2,0.4-0.5,0.6-0.7c0.5-0.6,1-1.3,1.2-2c0.2-0.8,0.2-1.7,0.3-2.5l0-0.2c0.1-2.7-0.1-5.6-0.2-8.2c-0.1-1-0.1-2.1-0.2-3.1
				c0-0.1,0-0.2,0-0.2c0-0.2-0.1-0.5,0-0.8c0-0.1,0.1-0.2,0.2-0.3l0.1-0.1c0.3-0.2,0.6-0.4,1-0.5l0.2-0.1c1-0.4,2.5-0.9,4.1-0.9
				c0.1,0,0.3,0,0.4,0.1c0.1,0.1,0.1,0.2,0.1,0.4c0,0.4,0,1.4,0,2.6c0,2.9-0.1,7.3-0.1,8.3c0,1,0,2,0.1,2.9c0.1,0.8,0.2,1.2,0.7,1.9
				c0.7,1.1,1.6,2.1,2.6,3c0,0,6.3,5.3,12.4,5.4c6.5,0.1,11.3-5.3,11.3-5.4c0.3-0.3,0.6-0.6,0.9-0.9c0.4-0.5,0.8-0.9,1.2-1.4
				l0.2-0.3c0.3-0.4,0.6-0.8,0.7-1.2c0.1-0.5,0.2-1.1,0.2-1.7l0-0.5c0.1-1.8-0.2-12.6-0.2-12.7c0-0.2,0.2-0.5,0.4-0.5
				c0,0,0.1,0,0.2,0c0,0,0.1,0,0.1,0l0.4,0c0.1,0,0.2,0,0.3,0c1,0.1,2,0.3,2.9,0.7c0.3,0.1,0.7,0.3,1,0.5c0.1,0,0.2,0.1,0.4,0.2
				c0.2,0,0.4,0.1,0.5,0.3c0,0,0,0,0,0l0,0c0,0.1,0.1,0.2,0.1,0.3c0,0,0,0,0,0c0,0.2,0,0.5,0,0.7c0,0.1,0,0.2,0,0.2
				c-0.2,2.8-0.3,5.3-0.4,7.6c0,1.3,0,2.8,0,4.3l0,0.2c0,0.9,0.1,1.7,0.3,2.5c0.3,1,1,1.9,1.6,2.8c0.2,0.3,0.4,0.5,0.5,0.7
				c0.2,0.3,0.4,0.5,0.6,0.8c0.4,0.6,0.9,1.2,1.2,1.9l0,0c1.9,3.8,0.9,8.4,0.3,10.2c-0.6,2-1.4,3.6-2.5,4.9
				c-0.4,0.5-0.6,0.7-0.6,1.2c0,0.3-0.2,0.4-0.5,0.4L-192.6,385.8z M-190.5,347.5c0,0.1,0,0.2,0,0.3c0,0.1,0,0.2,0,0.3
				c0.1,1.1,0.1,2.1,0.2,3.2c0.2,2.7,0.3,5.5,0.2,8.3l0,0.2c0,0.9-0.1,1.8-0.3,2.7c-0.2,0.9-0.8,1.7-1.4,2.3
				c-0.2,0.2-0.4,0.5-0.5,0.7c-0.2,0.3-0.5,0.6-0.7,1c-0.4,0.6-0.9,1.3-1.3,1.9c-0.7,1.1-0.9,2.5-1.1,3.6c-0.5,3.7,0,7.5,1.5,10.3
				c0.2,0.3,0.4,0.7,0.7,1c0.3,0.3,0.5,0.7,0.7,1.1c0.1,0.2,0.1,0.3,0.2,0.5l43.1,0c0.1-0.6,0.4-0.9,0.8-1.3c1-1.1,1.8-2.6,2.3-4.5
				c1-3.6,0.9-7.1-0.3-9.6l0,0c-0.3-0.6-0.7-1.2-1.1-1.7c-0.2-0.3-0.4-0.5-0.6-0.8c-0.2-0.2-0.3-0.5-0.5-0.7c-0.7-1-1.4-2-1.8-3.1
				c-0.3-0.9-0.4-1.9-0.4-2.8l0-0.2c-0.1-1.5-0.1-3.1,0-4.3c0-2.3,0.2-4.8,0.4-7.6c0-0.1,0-0.2,0-0.3c0-0.1,0-0.2,0-0.3
				c-0.1,0-0.2-0.1-0.4-0.2c-0.3-0.2-0.6-0.3-0.9-0.4c-0.9-0.3-1.8-0.5-2.6-0.6c-0.1,0-0.2,0-0.3,0h-0.1c0.1,2.2,0.3,10.7,0.2,12.3
				l0,0.4c0,0.6,0,1.3-0.2,1.9c-0.2,0.6-0.5,1.1-0.9,1.5l-0.2,0.2c-0.4,0.5-0.8,1.1-1.2,1.5c-0.3,0.3-0.6,0.6-0.9,0.9
				c-0.2,0.2-5.1,5.8-12.1,5.7c-6.5-0.1-12.8-5.4-13.1-5.7c-1.1-1-2-2-2.7-3.2c-0.5-0.8-0.8-1.4-0.9-2.3c-0.1-1-0.1-1.9-0.1-3
				c0-1,0.1-5.4,0.1-8.3c0-0.8,0-1.6,0-2.1c-1,0.1-2.1,0.4-3.2,0.8l-0.2,0.1C-190.1,347.3-190.4,347.4-190.5,347.5z"/>
		</g>
	</g>
</g>
<g>
	<g>
		<path class="st0" d="M-198.6,509.3c-0.1,0-0.1,0-0.2,0C-198.8,509.4-198.9,509.3-198.6,509.3z"/>
	</g>
	<g>
		<path class="st2" d="M-212.3,528.5c-0.2,0.8-0.3,1.6-0.4,2.3c-0.3,1.7-0.4,2.4,1.8,2.4c2.1,0,3.5,0.2,4.5,0.4
			c1.7,0.3,2.3,0.2,3.4-1.1c0.8-1.1,1.6-2.3,2.3-3.7c-3.2-1.8-6.6-2-9.2-1.3C-210.9,527.7-211.7,528.1-212.3,528.5z M-206.9,476.8
			c0.3,0.2,0.6,0.5,1,0.9c0,0,0,0,0,0l0,0c0.5,0.7,1.1,1.7,1.7,3.2c1.7,4-1.6-11.5,0.4-4.1c1.5,5.3,1.4,8.9,1.4,13.8
			c-0.6,0.6,10.4,0.7,24-3.1c13.9-3.9,22.6-9.9,22.6-9.9c-2.6-4.2-4.5-7.2-6-12.5c-2.1-7.4,2.7,7.7,2,3.4c-0.4-2.7-0.3-4.2,0.2-5
			c1.4-5.3,1.5-10.8,0.1-15.7c-1.1-3.9-3.1-7.5-6.2-10.4c-1.6,0.1-3.1,0.4-4.6,0.6c-3.9,0.6-10.1,0.9-10.9-0.9
			c-0.9-1.8-1.1-5.3-1.1-5.3c2.1-2.6,3.4-4,3-5.5c-0.4-1.5-2.1-9.6-6.3-15.7c-4.3-6.1-10.7-11.5-17.1-9.7c-6.4,1.8-9.1,9.7-9.6,17.1
			c-0.4,7.5,2.3,15.2,2.8,16.7c0.4,1.5,2.3,2,5.4,3.1c0,0,1.7,3.1,1.9,5.1c0.2,1.9-5.3,4.9-8.9,6.4c-1.4,0.6-2.9,1.1-4.3,1.9
			c-1.1,4.1-1,8.2,0.1,12.1C-213.8,468.4-210.9,473-206.9,476.8z M-169.4,474.4c0.4,0.3,0.4,0.8,0.2,1.1c-0.1,0.1-0.3,0.2-0.4,0.3
			c-0.2,0.1-0.5,0-0.7-0.1c-4.8-3.6-8.1-8.2-9.7-14c-0.6-2.1-1-4.4-1.1-6.8c-0.2-2.8-0.6-5.2-1.2-7.2c-0.7-2.5-1.6-4.4-2.1-5.4
			c-0.6,0-1.1-0.4-1.3-1c-0.2-0.8,0.2-1.5,1-1.8c0.8-0.2,1.5,0.2,1.8,1c0.1,0.3,0.1,0.7-0.1,1c0.6,1.1,1.5,3.1,2.3,5.8
			c0.6,2.1,1.1,4.6,1.2,7.6c0.1,2.3,0.5,4.5,1,6.5C-177,466.7-174,471-169.4,474.4z M-206,431.9c-0.3-1.2-2.5-7.3-2.3-13.1
			c0.2-5.8,2.2-12,6.8-13.3c4.7-1.3,9.5,2.9,12.8,7.8c3.2,4.9,4.5,11.2,4.9,12.4c0.3,1.2-6.9,9-9.3,9.7
			C-195.4,436-205.6,433.1-206,431.9z M-191.2,484.7c2.1-5.3,1.4-14.5-0.2-19.9c-0.6-2-1.4-4-2.5-6.1c-1.4-2.6-2.3-5-2.9-7.1
			c-0.8-2.7-1-4.9-1.1-6.1c-0.3-0.2-0.5-0.5-0.6-0.8c-0.2-0.8,0.2-1.5,1-1.8c0.8-0.2,1.5,0.2,1.8,1c0.2,0.6-0.1,1.2-0.5,1.5
			c0,0.2,0,0.5,0.1,0.7c0.1,1.2,0.4,2.9,0.9,5c0.6,2,1.4,4.3,2.7,6.8c1.1,2.1,2,4.3,2.6,6.4c1.6,5.8,2.3,15.4,0.1,20.9
			c-0.1,0.2-0.3,0.4-0.5,0.5c-0.2,0-0.3,0-0.5,0C-191.2,485.6-191.4,485.2-191.2,484.7z M-102.8,504c-5.4-5.8-11.2-12.9-16.1-19.1
			c-10.2-12.8-8-10.1-20.6-24.3c-12.6-14.3-15-17.4-19-20.8c-1.6-1.4-3.2-2-4.8-2.3c2.6,2.9,4.4,6.3,5.4,9.9
			c1.4,5,1.4,10.5,0.1,15.7c1.4,0.6,3.4,2.7,5.2,5.8c2.1,3.7,3,5.2,13.4,16.2c10.4,11,10.1,9.7,16.4,16.5c3.6,3.8,7.1,7,10.3,9.2
			c1.9-3.5,5-5.7,8-6.5C-104,504.2-103.4,504.1-102.8,504z M-99.8,507.3c-0.5-0.5-1-1.1-1.5-1.6c-0.8-0.1-1.8-0.1-2.8,0.2
			c-2.5,0.7-5.3,2.7-7,5.8c1.3,0.8,2.6,1.5,3.9,2c1.6,0.6,2.2,0.4,3.5-0.8c0.8-0.7,1.9-1.5,3.7-2.7
			C-98.3,509.1-98.6,508.6-99.8,507.3z M-208.7,477.4c-3.8-3.9-6.7-8.5-8.1-13.5c-1-3.6-1.2-7.4-0.5-11.2c-1.2,1-2.2,2.4-2.9,4.4
			c-1.6,5-2.1,8.9-5.4,27.6c-3.3,18.7,15.4,34,13.8,41.7c0.5-0.2,0.9-0.4,1.4-0.5c3-0.8,6.8-0.6,10.4,1.4c1.6-3.6-3.6-12.5-5.4-17.5
			c-3.6-9.6-5.1-20.3-4.6-24.8C-209.7,481.5-209.4,478.6-208.7,477.4z"/>
	</g>
	<g>
		<path class="st2" d="M-112.7,500.6c0.1-2.6,0-5.4-0.3-8.1c-0.9-9,0.1-15.9,3.8-21.9c0,0,0,0,0,0c0.3-0.4,0.7-0.9,1.1-1.4
			c6-7.4,5.9-9.3,5.2-15.4c-0.7-6.1,4.1-18.9,5.6-23.8l-5.5-1.7l-3.9,12.8c-1.9,6.3-12.5,8.7-19,6.9c-6.3-2.2-13.7-10.1-11.8-16.4
			l3.9-12.8l-5.5-1.7c-1.5,4.9-4.8,18.2-8.8,22.8c-4,4.7-5.2,6.1-4.4,15.6c0.1,0.6,0.1,1.2,0.1,1.7c0,0,0,0,0,0
			c-0.3,7-3.4,13.4-9.2,20.3c-1.8,2.1-3.4,4.3-4.8,6.6c-0.1-0.6-7,12.6-7.2,17.2c1.3,0.8,11.4,6.7,27.5,11.7
			c16.2,4.9,27.8,5.7,29.3,5.8C-113.9,514.9-112.3,500.1-112.7,500.6z"/>
		<path class="st0" d="M-116.1,519.4l-0.3,0c-2.2-0.1-13.7-1-29.4-5.8c-15.7-4.9-25.7-10.7-27.6-11.8l-0.3-0.1l0-0.3
			c0.1-3.2,5.5-15.6,7.3-17.4c1.5-2.4,3.1-4.6,4.8-6.6c6-7.1,8.8-13.2,9.1-19.9l0-0.1c0-0.6-0.1-1.1-0.1-1.7
			c-0.9-9.7,0.5-11.3,4.5-16c3.3-3.8,6.1-13.6,7.8-19.5c0.3-1.2,0.7-2.3,0.9-3.1l0.1-0.5l6.4,2l-4.1,13.3
			c-1.9,6.2,5.5,13.7,11.5,15.8c6,1.6,16.4-0.5,18.3-6.6l4.1-13.3l6.4,2l-0.1,0.5c-0.3,0.8-0.6,1.9-1,3.1
			c-1.9,5.8-5.1,15.6-4.6,20.5c0.7,6.1,0.9,8.2-5.3,15.7c-0.4,0.5-0.7,0.9-1.1,1.4l-0.1,0.1c-3.4,5.6-4.5,12.2-3.6,21.4
			c0.3,2.6,0.4,5.4,0.3,8.2c0.5,2.5-2.1,15.8-3.8,18.5L-116.1,519.4z M-172.7,501.1c2.4,1.4,12.2,6.9,27.1,11.5
			c15,4.5,26.2,5.5,28.9,5.7c1.8-3.3,3.2-13,3.5-16.4l0,0l0-1.4c0.1-2.8,0-5.5-0.3-8.1c-1-9.5,0.2-16.3,3.9-22.2l0.2-0.2
			c0.3-0.4,0.6-0.8,0.9-1.2c5.9-7.2,5.7-9,5.1-15c-0.6-5.2,2.7-15,4.6-20.9c0.3-1,0.6-1.9,0.8-2.6l-4.6-1.4l-3.8,12.4
			c-2.1,6.7-13.1,9-19.6,7.3c-6.3-2.2-14.2-10.3-12.1-17l3.8-12.4l-4.6-1.4c-0.2,0.7-0.5,1.6-0.8,2.6c-1.7,6-4.6,15.9-7.9,19.9
			c-3.9,4.6-5.1,5.9-4.2,15.3c0,0.5,0.1,1,0.1,1.5l0.1,0l0,0.3c-0.3,6.9-3.2,13.2-9.3,20.5c-1.7,2-3.3,4.2-4.8,6.5l-0.8,1.2l0,0
			C-168,488.6-172.3,497.3-172.7,501.1z"/>
	</g>
	<g>
		<g>
			<path class="st2" d="M-192.5,532.3c0,0.2,0,0.4,0.1,0.5c0.1,0.8,0.1,1.6,0.3,2.4c0,0.1,0.1,0.3,0.2,0.5c0,0,0,0.1,0,0.1
				c2.5,0.2,5.1,0,7.6,0c5.1,0,10.3,0,15.4,0c4.9,0,9.7,0,14.6,0c1.5,0,3,0,4.4,0c0.3,0,0.7,0,1,0c0,0,0,0,0,0c0,0,0,0,0,0
				c0-0.1,0.1-0.3,0.1-0.4c0.1-0.4,0.1-0.8,0.1-1.1c0-0.6,0-1.2,0-1.9L-192.5,532.3z"/>
			<path class="st0" d="M-189.5,536.3c-0.8,0-1.7,0-2.5-0.1c-0.2,0-0.3-0.1-0.4-0.3c0-0.1-0.1-0.2-0.1-0.3c0,0,0-0.1-0.1-0.1
				c0-0.1-0.1-0.2-0.1-0.3c-0.1-0.6-0.2-1.2-0.3-1.8c0-0.2,0-0.4-0.1-0.6l-0.1-0.5c0-0.1,0-0.3,0.1-0.4c0.1-0.1,0.2-0.2,0.4-0.2
				l43.8,0c0.1,0,0.3,0.1,0.4,0.1c0.1,0.1,0.1,0.2,0.1,0.4c0,0.4,0,0.7,0,1.1c0,0.3,0,0.5,0,0.8c0,0.4,0,0.8-0.1,1.2
				c0,0.1,0,0.1-0.1,0.2c0,0,0,0.1,0,0.1c0,0,0,0.1,0,0.1c0,0.3-0.3,0.5-0.6,0.4c-0.2,0-0.4,0-0.6,0c-0.1,0-0.2,0-0.4,0l-34.4,0
				c-0.8,0-1.7,0-2.6,0C-187.8,536.3-188.7,536.3-189.5,536.3z M-191.6,535.3c1.5,0.1,3.1,0,4.7,0c0.9,0,1.7,0,2.6,0l34.4,0
				c0.1,0,0.2,0,0.3,0c0.1,0,0.2,0,0.4,0l0-0.1c0.1-0.3,0.1-0.6,0.1-1c0-0.3,0-0.6,0-0.8c0-0.2,0-0.4,0-0.6l-42.8,0
				c0,0.2,0,0.4,0.1,0.6c0.1,0.6,0.1,1.2,0.2,1.7c0,0,0,0.1,0,0.1C-191.6,535.2-191.6,535.3-191.6,535.3z"/>
		</g>
		<g>
			<path class="st2" d="M-185.7,499.7L-185.7,499.7c0.1,0,0.1,0.1,0.2,0.1c4.3,1.8,7.1,4.6,8.3,8.1c0.8,2.1,0.6,7.5,0.6,7.6
				c3.2,1.4,7.6,2.3,12.3,0.3c0,0,0,0,0-0.1c0-0.1-0.1-7.5,1.2-9.9c2.2-4.1,6.5-5.5,7.7-5.8c0.2,0,0.3-0.1,0.3-0.1
				c0-0.2,0-0.4,0-0.7c-0.1-3-0.2-5.8-0.2-6.9c-0.1,0.1-0.2,0.3-0.3,0.4c-4.6,7-9.6,10.6-14.8,10.5c-2.5,0-6.5-1.1-10.9-5.6
				c-2-2.1-3.4-4.1-4-5c0,0-0.3-0.5-0.3-0.5s-0.1,6.9-0.1,7.2C-185.7,499.6-185.7,499.6-185.7,499.7L-185.7,499.7z"/>
			<path class="st0" d="M-169.9,517.3c-2.3,0-4.6-0.5-6.9-1.5c-0.2-0.1-0.3-0.3-0.3-0.5c0-0.6,0.1-5.4-0.6-7.3
				c-1.2-3.4-3.9-6-8.1-7.8l0.1-0.5l-0.2,0.5c-0.1,0-0.2-0.1-0.2-0.2l-0.1-0.2c-0.1-0.1-0.1-0.2-0.1-0.3c0-0.3,0.1-7.2,0.1-7.2
				c0-0.2,0.1-0.4,0.3-0.5c0.2-0.1,0.4,0,0.5,0.2c0,0,0.3,0.4,0.3,0.5c0.5,0.8,1.9,2.9,3.9,4.9c4.3,4.4,8.2,5.4,10.6,5.4
				c5,0.1,9.8-3.3,14.4-10.2l0.3-0.4c0.1-0.2,0.3-0.3,0.5-0.2c0.2,0.1,0.4,0.2,0.4,0.5c0,0.8,0.2,3.8,0.2,6.9l0,0.7
				c0,0.2-0.2,0.4-0.4,0.5c0,0-0.1,0-0.3,0.1c-1.2,0.3-5.2,1.6-7.3,5.5c-1.1,2.1-1.2,9-1.1,9.6c0,0.2-0.1,0.5-0.3,0.5
				C-165.9,517-167.9,517.3-169.9,517.3z M-176.1,515.1c3.9,1.6,7.7,1.7,11.3,0.3c0-1.6,0-7.6,1.3-9.9c2.3-4.2,6.5-5.6,7.9-6l0-0.3
				c0-2-0.1-4-0.2-5.4c-4.6,6.6-9.5,9.9-14.7,9.9c-2.6-0.1-6.7-1.1-11.3-5.7c-1.6-1.6-2.8-3.2-3.5-4.3c0,1.8-0.1,4.7-0.1,5.5
				c4.4,1.9,7.3,4.7,8.6,8.4C-176,509.6-176,513.8-176.1,515.1z"/>
		</g>
		<g>
			<path class="st2" d="M-145.9,515.7c-0.5-0.9-1.2-1.8-1.7-2.6c-0.8-1.1-1.8-2.4-2.2-3.7c-0.3-0.9-0.3-1.9-0.4-2.9
				c-0.1-1.4-0.1-2.9,0-4.3c0.1-2.5,0.2-5.1,0.4-7.6c0-0.2,0.1-0.6,0.1-0.9c0,0,0-0.1,0-0.1c0.1,0.1-0.6-0.2-0.7-0.2
				c-0.3-0.2-0.6-0.3-1-0.4c-0.9-0.4-1.8-0.6-2.8-0.6c-0.1,0-0.3,0-0.4,0c0,0-0.1,0-0.1,0c-0.1,0-0.2,0-0.3,0c0,0,0,0,0,0
				c0,0.2,0.3,11,0.2,12.7c0,0.7,0,1.5-0.2,2.2c-0.2,0.6-0.6,1.1-1,1.6c-0.4,0.5-0.8,1-1.2,1.5c-0.3,0.3-0.6,0.6-0.9,0.9
				c0,0-4.9,5.6-11.7,5.5c-6.4-0.1-12.7-5.5-12.7-5.5c-1-0.9-1.9-1.9-2.7-3.1c-0.5-0.7-0.7-1.3-0.8-2.1c-0.1-1-0.1-2-0.1-2.9
				c0-1.4,0.1-9.5,0.1-10.9c-1.3,0-2.7,0.4-3.9,0.9c-0.3,0.1-0.8,0.3-1.1,0.5l-0.1,0.1c0,0.3,0,0.6,0.1,0.9c0.1,1,0.1,2.1,0.2,3.1
				c0.2,2.7,0.3,5.5,0.2,8.3c0,0.9,0,1.9-0.3,2.8c-0.3,1.1-1.2,2-1.8,2.9c-0.7,1-1.4,1.9-2,2.9c-0.7,1.1-1,2.5-1.2,3.8
				c-0.5,3.5-0.1,7.4,1.5,10.6c0.4,0.8,1,1.4,1.4,2.1c0.1,0.2,0.2,0.5,0.2,0.7l43.9,0c0.1-0.7,0.3-1,0.7-1.5c1.2-1.3,1.9-3,2.4-4.7
				C-144.7,522.5-144.4,518.6-145.9,515.7z"/>
			<path class="st0" d="M-192.6,532.3c-0.2,0-0.4-0.2-0.5-0.4c0-0.3-0.1-0.4-0.2-0.6c-0.2-0.3-0.4-0.6-0.7-1
				c-0.3-0.4-0.5-0.7-0.8-1.1c-1.6-3-2.1-6.9-1.6-10.9c0.2-1.2,0.5-2.7,1.2-4c0.4-0.7,0.9-1.3,1.4-2c0.2-0.3,0.5-0.6,0.7-0.9
				c0.2-0.2,0.4-0.5,0.6-0.7c0.5-0.6,1-1.3,1.2-2c0.2-0.8,0.2-1.7,0.3-2.5l0-0.2c0.1-2.7-0.1-5.6-0.2-8.2c-0.1-1-0.1-2.1-0.2-3.1
				c0-0.1,0-0.2,0-0.2c0-0.2-0.1-0.5,0-0.8c0-0.1,0.1-0.2,0.2-0.3l0.1-0.1c0.3-0.2,0.6-0.4,1-0.5l0.2-0.1c1-0.4,2.5-0.9,4.1-0.9
				c0.1,0,0.3,0,0.4,0.1c0.1,0.1,0.1,0.2,0.1,0.4c0,0.4,0,1.4,0,2.6c0,2.9-0.1,7.3-0.1,8.3c0,1,0,2,0.1,2.9c0.1,0.8,0.2,1.2,0.7,1.9
				c0.7,1.1,1.6,2.1,2.6,3c0,0,6.3,5.3,12.4,5.4c6.5,0.1,11.3-5.3,11.3-5.4c0.3-0.3,0.6-0.6,0.9-0.9c0.4-0.5,0.8-0.9,1.2-1.4
				l0.2-0.3c0.3-0.4,0.6-0.8,0.7-1.2c0.1-0.5,0.2-1.1,0.2-1.7l0-0.5c0.1-1.8-0.2-12.6-0.2-12.7c0-0.2,0.2-0.5,0.4-0.5
				c0,0,0.1,0,0.2,0c0,0,0.1,0,0.1,0l0.4,0c0.1,0,0.2,0,0.3,0c1,0.1,2,0.3,2.9,0.7c0.3,0.1,0.7,0.3,1,0.5c0.1,0,0.2,0.1,0.4,0.2
				c0.2,0,0.4,0.1,0.5,0.3c0,0,0,0,0,0l0,0c0,0.1,0.1,0.2,0.1,0.3c0,0,0,0,0,0c0,0.2,0,0.5,0,0.7c0,0.1,0,0.2,0,0.2
				c-0.2,2.8-0.3,5.3-0.4,7.6c0,1.3,0,2.8,0,4.3l0,0.2c0,0.9,0.1,1.7,0.3,2.5c0.3,1,1,1.9,1.6,2.8c0.2,0.3,0.4,0.5,0.5,0.7
				c0.2,0.3,0.4,0.5,0.6,0.8c0.4,0.6,0.9,1.2,1.2,1.9l0,0c1.9,3.8,0.9,8.4,0.3,10.2c-0.6,2-1.4,3.6-2.5,4.9
				c-0.4,0.5-0.6,0.7-0.6,1.2c0,0.3-0.2,0.4-0.5,0.4L-192.6,532.3z M-190.5,494c0,0.1,0,0.2,0,0.3c0,0.1,0,0.2,0,0.3
				c0.1,1.1,0.1,2.1,0.2,3.2c0.2,2.7,0.3,5.5,0.2,8.3l0,0.2c0,0.9-0.1,1.8-0.3,2.7c-0.2,0.9-0.8,1.7-1.4,2.3
				c-0.2,0.2-0.4,0.5-0.5,0.7c-0.2,0.3-0.5,0.6-0.7,1c-0.4,0.6-0.9,1.3-1.3,1.9c-0.7,1.1-0.9,2.5-1.1,3.6c-0.5,3.7,0,7.5,1.5,10.3
				c0.2,0.3,0.4,0.7,0.7,1c0.3,0.3,0.5,0.7,0.7,1.1c0.1,0.2,0.1,0.3,0.2,0.5l43.1,0c0.1-0.6,0.4-0.9,0.8-1.3c1-1.1,1.8-2.6,2.3-4.5
				c1-3.6,0.9-7.1-0.3-9.6l0,0c-0.3-0.6-0.7-1.2-1.1-1.7c-0.2-0.3-0.4-0.5-0.6-0.8c-0.2-0.2-0.3-0.5-0.5-0.7c-0.7-1-1.4-2-1.8-3.1
				c-0.3-0.9-0.4-1.9-0.4-2.8l0-0.2c-0.1-1.5-0.1-3.1,0-4.3c0-2.3,0.2-4.8,0.4-7.6c0-0.1,0-0.2,0-0.3c0-0.1,0-0.2,0-0.3
				c-0.1,0-0.2-0.1-0.4-0.2c-0.3-0.2-0.6-0.3-0.9-0.4c-0.9-0.3-1.8-0.5-2.6-0.6c-0.1,0-0.2,0-0.3,0h-0.1c0.1,2.2,0.3,10.7,0.2,12.3
				l0,0.4c0,0.6,0,1.3-0.2,1.9c-0.2,0.6-0.5,1.1-0.9,1.5l-0.2,0.2c-0.4,0.5-0.8,1.1-1.2,1.5c-0.3,0.3-0.6,0.6-0.9,0.9
				c-0.2,0.2-5.1,5.8-12.1,5.7c-6.5-0.1-12.8-5.4-13.1-5.7c-1.1-1-2-2-2.7-3.2c-0.5-0.8-0.8-1.4-0.9-2.3c-0.1-1-0.1-1.9-0.1-3
				c0-1,0.1-5.4,0.1-8.3c0-0.8,0-1.6,0-2.1c-1,0.1-2.1,0.4-3.2,0.8l-0.2,0.1C-190.1,493.8-190.4,493.9-190.5,494z"/>
		</g>
	</g>
</g>
</svg>
