<?xml version="1.0" encoding="utf-8"?>
<!-- Generator: Adobe Illustrator 19.1.0, SVG Export Plug-In . SVG Version: 6.00 Build 0)  -->
<svg version="1.1" id="Layer_1" xmlns="http://www.w3.org/2000/svg" xmlns:xlink="http://www.w3.org/1999/xlink" x="0px" y="0px"
	 viewBox="-233 325 144 144" style="enable-background:new -233 325 144 144;" xml:space="preserve">
<style type="text/css">
	.st0{stroke:#FFFFFF;stroke-miterlimit:10;}
	.st1{stroke:#FFFFFF;stroke-width:2;stroke-miterlimit:10;}
</style>
<g>
	<path class="st0" d="M-155.1,446.2c0-0.1-0.1-0.1-0.1-0.2C-155.2,446.1-155.2,446.1-155.1,446.2z"/>
	<path class="st0" d="M-139.8,385.4c0,0,0-0.1,0-0.2C-139.8,385.3-139.7,385.3-139.8,385.4c0.1-0.1,0-0.2,0-0.2c0-0.2-0.1-0.6-0.2-1
		c-0.8-4.4-3.1-17.7-6.8-27.7c-0.2-0.8-1.3-4.8-4.9-7.2c-2.1-1.4-5.5-2.9-9.2-4.6c-2.7-1.2-5.5-2.5-7.7-3.7
		c-3,9.1-11.1,10.4-14.5,10.6c-0.1,0-0.1,0-0.1,0h-0.1h-0.2c-10.6,0-14.4-7-15.7-10.3c-1.9,1-6.1,3.1-15.4,8.2
		c-1.2,0.5-4.6,2.4-5.5,6.2c-0.1,0.3-0.3,0.9-0.7,2.1c-0.4,1.2-1,3.2-1.7,5.9c-1.2,4.7-2.7,12.1-3.4,21.2c0,0.3,0,0.5,0.2,0.7
		c0.1,0.1,0.3,0.2,0.4,0.2h0.1c1.7,0.7,6.2,2.2,12.2,2.1c0.9,0,1.9,0,2.8-0.1c0.1,0,0.3-0.1,0.5-0.2c0,11.1-0.1,29.1-0.9,38.3
		c-0.3,6.5-2.1,19.4-2.2,20.2c-0.1,0.2-0.1,0.3,0,0.5c0.1,0.4,0.4,0.6,0.8,0.6c0.1,0,0.1,0,0.2,0c0.3,0,0.9,0.1,1.6,0.2
		c3.6,0.5,12.3,1.7,25.5,1.7c9.2,0,18.9-0.6,28.6-1.8c0.5,0,0.8-0.4,0.8-0.9c0-0.1,0-0.1,0-0.2c-0.2-1.4-2.3-19.8-2.5-23.9
		c0-0.1,0-0.1,0-0.1c-0.4-3.2,0-22.6,0.4-34.5c0.4,0.1,0.9,0.2,1.8,0.3c0.9,0.1,2.5,0.3,4.4,0.3c3.7,0,7.4-0.6,10.8-1.8
		C-140,386.3-139.7,385.9-139.8,385.4L-139.8,385.4z M-210.3,387l-0.4,0.4c-0.1,0-5.7-4.2-14.2-1.9c-0.3,0.1-0.6-0.1-0.6-0.4
		c-0.1-0.3,0.1-0.6,0.4-0.6c9.1-2.5,15.1,2.1,15.2,2.2L-210.3,387z M-217,352.4c-0.4-0.3-0.2-0.7-0.2-0.8c0.1-0.3,0.3-0.4,0.6-0.4
		c0.1,0,0.2,0.1,0.3,0.1c1.1,0.9,6.3,6.8,7.8,34.4c0,0.4-0.2,0.7-0.6,0.8c-0.3,0-0.5-0.3-0.5-0.6C-211.1,358-216.4,352.9-217,352.4z
		 M-155.4,446.3c0.1,0.3-0.1,0.6-0.4,0.6c0,0.1-0.1,0.1-0.1,0.1c-0.1,0-0.2,0-0.3-0.1c-1.4-0.6-22.5-4.3-55.7-0.1
		c-0.3,0-0.5-0.2-0.6-0.4c0-0.3,0.2-0.5,0.4-0.6c18.1-2.3,32.3-2.2,41-1.8c5.3,0.3,9,0.8,11.3,1.1
		C-155.6,445.7-155.5,446-155.4,446.3z M-157.7,386.4c-0.3,0-0.5-0.3-0.5-0.7c1.5-27.8,6.7-33.6,7.8-34.5c0.1-0.1,0.2-0.1,0.3-0.1
		c0.2,0,0.5,0.1,0.6,0.4c0.1,0.3,0,0.6-0.2,0.8c-0.6,0.5-5.9,5.6-7.3,33.5C-157.2,386.1-157.4,386.4-157.7,386.4z M-141,386.2
		c-1.4-0.5-6.6-2-15.8,1c-0.2,0-0.4-0.1-0.5-0.4c-0.1-0.3,0.1-0.6,0.3-0.7c9.5-3.1,15.1-1.5,16.5-0.9l-0.2,0.5l0.3,0.4
		C-140.6,386.3-140.9,386.2-141,386.2z"/>
</g>
<g>
	<path class="st1" d="M-130.2,447.9c-6.5,0-13-0.7-18.9-1.8c-4.1-0.8-13.9-3.1-16.2-6.9l-0.2-0.4l0.2-0.4
		c12.2-32.8,4.2-64.8,4.2-65.1l-0.3-1.1l1.1-0.1c0.2,0,5.7-0.9,4.6-13.2c-0.8-8.3-3.5-14.4-3.5-14.5l-0.5-1.1l8.7-1.4l0.1,1.1
		c0,0.2,1.9,24.4,17.7,24.4l0,0c16.5-0.2,17.2-24.1,17.2-24.3v-1.2l8.5,1.7l-0.4,1.1c0,0.1-2.7,7.1-3.5,15.4l0,0
		c-0.6,6.6,0.7,9.5,1.9,10.8c1.1,1.1,2.3,1.1,2.4,1.1l1.1-0.1v1.1c0,0.5-1.7,53.6,7.6,65.9l0.6,0.8l-0.8,0.6
		C-106.4,445.6-118.3,447.9-130.2,447.9z"/>
</g>
</svg>
