<?xml version="1.0" encoding="utf-8"?>
<!-- Generator: Adobe Illustrator 19.1.0, SVG Export Plug-In . SVG Version: 6.00 Build 0)  -->
<svg version="1.1" id="Layer_1" xmlns="http://www.w3.org/2000/svg" xmlns:xlink="http://www.w3.org/1999/xlink" x="0px" y="0px"
	 viewBox="-233 325 144 144" style="enable-background:new -233 325 144 144;" xml:space="preserve">
<style type="text/css">
	.st0{fill:none;}
</style>
<g>
	<path class="st0" d="M-220.2,383.9c-0.8,7.2,6,12.7,14.9,8.3c4.7-2.3,4.9-3.7,14-6.9l-3.4-6.8l8.8-4.4
		C-203.1,366.6-219.2,374-220.2,383.9z"/>
	<path class="st0" d="M-171,378.3c2.6,4.1,1.3,9.3-4.2,11.5c3.5,4.4,7.6,2.5,9.5-2.9C-164,381.6-165.6,377.2-171,378.3z"/>
	<path d="M-162,362.3l-15.8,7.8c-22-14-48.3-3-49.7,13.3c-1.2,12.6,11.4,22.3,25.5,15.4c5.8-2.9,5.8-4.2,14-6.9l7.8,15.8l69.5,25.2
		l15.6-46.2L-162,362.3z M-194.7,378.5l3.4,6.8c-9,3.2-9.3,4.6-14,6.9c-8.9,4.4-15.7-1.1-14.9-8.3c1-9.9,17.2-17.3,34.3-9.8
		L-194.7,378.5z M-165.8,386.9c-1.8,5.4-5.9,7.3-9.5,2.9c5.5-2.2,6.9-7.4,4.2-11.5C-165.6,377.2-164,381.6-165.8,386.9z
		 M-153.8,398.4c-1.3,0.5-2.9,0.5-4.7-0.1c-1.9-0.6-3.2-1.5-4-2.7s-1-2.6-0.5-4l2.9,0.9c-0.1,0.7-0.1,1.2,0.1,1.6
		c0.3,0.8,1.1,1.3,2.3,1.7c0.7,0.2,1.3,0.3,1.8,0.3c1,0,1.6-0.4,1.8-1.2c0.2-0.5,0.1-0.9-0.3-1.3c-0.3-0.4-0.9-0.8-1.8-1.3l-1.4-0.8
		c-1.4-0.8-2.3-1.5-2.8-2.1c-0.7-1-0.9-2.2-0.4-3.6c0.4-1.3,1.2-2.2,2.5-2.7c1.2-0.5,2.7-0.5,4.6,0.1c1.5,0.5,2.7,1.3,3.5,2.5
		c0.8,1.2,1,2.5,0.6,4l-2.9-0.9c0.2-0.9,0-1.6-0.6-2.2c-0.4-0.4-1-0.7-1.7-0.9c-0.8-0.3-1.5-0.3-2-0.2c-0.6,0.2-0.9,0.5-1.1,1.1
		c-0.2,0.5-0.1,1,0.3,1.4c0.2,0.3,0.8,0.7,1.7,1.2l2.3,1.4c1,0.6,1.7,1.2,2.1,1.8c0.6,1,0.7,2.1,0.3,3.3
		C-151.6,397-152.5,397.9-153.8,398.4z M-141.1,403.6l0-3.3l-5.3-1.7l-1.9,2.6l-3.1-1l9.8-12.7l3.4,1.1l0.4,16L-141.1,403.6z
		 M-125.9,408.6l-10.1-3.3l4.7-14.3l3,1l-3.8,11.8l7.2,2.3L-125.9,408.6z M-117.1,398.4l-1,3l7,2.3l-0.8,2.5l-7-2.3l-1.2,3.7
		l7.9,2.6l-0.8,2.6l-10.9-3.5l4.7-14.3l10.5,3.4l-0.8,2.5L-117.1,398.4z"/>
	<polygon points="-141.1,397.6 -141.1,391.4 -144.8,396.4 	"/>
</g>
</svg>
