<?xml version="1.0" encoding="utf-8"?>
<!-- Generator: Adobe Illustrator 19.1.0, SVG Export Plug-In . SVG Version: 6.00 Build 0)  -->
<svg version="1.1" id="Layer_1" xmlns="http://www.w3.org/2000/svg" xmlns:xlink="http://www.w3.org/1999/xlink" x="0px" y="0px"
	 viewBox="-233 253 144 288" style="enable-background:new -233 253 144 288;" xml:space="preserve">
<style type="text/css">
	.st0{stroke:#000000;stroke-linejoin:round;stroke-miterlimit:22.9256;}
	.st1{stroke:#E6E6E5;stroke-miterlimit:10;}
	.st2{stroke:#E6E6E5;stroke-width:0.15;stroke-miterlimit:10;}
	.st3{fill:#CC0000;stroke:#CC0000;stroke-linejoin:round;stroke-miterlimit:22.9256;}
	.st4{fill:#CC0000;stroke:#E6E6E5;stroke-miterlimit:10;}
	.st5{fill:#CC0000;stroke:#E6E6E5;stroke-width:0.15;stroke-miterlimit:10;}
</style>
<path class="st0" d="M-216.6,360.6c19.9,4.4,39.9,4.4,59.9,0c-11-13.5-12.3-35.8-3.7-56.9c0.1,2.2,1,4.5,2.6,6.9
	c4.8,0.3,9.7-2,14.6-6.7c-1.2-11.5-5.9-20.8-13.9-27.5c-6.4-2.1-12-2.4-16.7-0.8c-2,7.3-6.4,11.9-12.7,13.9
	c-6.2-2.1-10.8-6.6-12.7-13.9c-4.7-1.6-10.3-1.2-16.7,0.8c-8.3,6.9-13,16-14.1,27.5c4.9,4.8,9.8,7.1,14.6,6.7
	c1.7-2.4,2.5-4.7,2.6-6.9C-204.3,324.8-205.6,347.1-216.6,360.6L-216.6,360.6z"/>
<g>
	<g>
		<g>
			<g>
				<path class="st1" d="M-147.8,345.1c4,4.1,8.2,6.2,12.6,6.1c6.5-0.2,11.3-5.1,12.2-6.1c-4.4-10.7-4.8-19.5-1.3-26
					c4-7.4,11.9-9.4,13.1-9.6c4.6-5.5,1.1-10-0.1-11.3c-7.5,11.7-15.6,17.5-24,17.3c-4-0.1-10.3-1.7-17.4-8.9
					c-3.4-3.4-5.7-6.9-6.5-8.1c-4,5.1-0.5,9.9,0.1,10.6c7.1,3,11.7,7.5,13.8,13.4C-141.8,332.4-146.9,343.3-147.8,345.1z"/>
			</g>
		</g>
		<g>
			<g>
				<g>
					<path class="st1" d="M-159.5,297.5c0,0-4.6-0.2-9.1,2.6c0,0,1.9,22.4,0.1,25c-1.8,2.6-5.7,8.2-5.7,8.2
						c-3,4.9-3.7,19.2,2.8,26.5c0.8,1.4,0.6,6.7,1.6,7.9l68.9-0.1c1.1-1.3,0-6.5,0.9-8.1c6.3-6,7.2-19.5,3.7-25.2
						c0,0-4.4-6.1-5.7-8.9c-1.7-4.3,0-25.2,0-25.2c-4.9-3.2-9.3-2.5-9.3-2.5s1,20.8,0,24.3c-10.9,18.5-37.6,17-47.8-0.2
						C-160.4,318.8-159.5,297.5-159.5,297.5z"/>
				</g>
			</g>
		</g>
		<g>
			<g>
				<line class="st2" x1="-170.6" y1="361.1" x2="-100.8" y2="361.1"/>
			</g>
			<g>
				<path class="st1" d="M-170.6,361.5c-0.2,0-0.4-0.2-0.4-0.4c0-0.2,0.2-0.4,0.4-0.4l69.8,0c0.2,0,0.4,0.2,0.4,0.4
					c0,0.2-0.2,0.4-0.4,0.4L-170.6,361.5z"/>
			</g>
		</g>
	</g>
</g>
<g>
	<path class="st3" d="M-216.6,507.3c19.9,4.4,39.9,4.4,59.9,0c-11-13.5-12.3-35.8-3.7-56.9c0.1,2.2,1,4.5,2.6,6.9
		c4.8,0.3,9.7-2,14.6-6.8c-1.2-11.5-5.9-20.8-13.9-27.5c-6.4-2.1-12-2.4-16.7-0.8c-2,7.3-6.4,11.9-12.7,13.9
		c-6.2-2.1-10.8-6.6-12.7-13.9c-4.7-1.6-10.3-1.2-16.7,0.8c-8.3,6.9-13,16-14.1,27.5c4.9,4.8,9.8,7.1,14.6,6.8
		c1.7-2.4,2.5-4.7,2.6-6.9C-204.3,471.5-205.6,493.8-216.6,507.3L-216.6,507.3z"/>
	<g>
		<g>
			<g>
				<g>
					<path class="st4" d="M-147.8,491.7c4,4.1,8.2,6.2,12.6,6.1c6.5-0.2,11.3-5.1,12.2-6.1c-4.4-10.7-4.8-19.5-1.3-26
						c4-7.4,11.9-9.4,13.1-9.6c4.6-5.5,1.1-10-0.1-11.3c-7.5,11.7-15.6,17.5-24,17.3c-4-0.1-10.3-1.7-17.4-8.9
						c-3.4-3.4-5.7-6.9-6.5-8.1c-4,5.1-0.5,9.9,0.1,10.6c7.1,3,11.7,7.5,13.8,13.4C-141.8,479.1-146.9,490-147.8,491.7z"/>
				</g>
			</g>
			<g>
				<g>
					<g>
						<path class="st4" d="M-159.5,444.2c0,0-4.6-0.2-9.1,2.6c0,0,1.9,22.4,0.1,25c-1.8,2.6-5.7,8.2-5.7,8.2
							c-3,4.9-3.7,19.2,2.8,26.5c0.8,1.4,0.6,6.7,1.6,7.9l68.9-0.1c1.1-1.3,0-6.5,0.9-8.1c6.3-6,7.2-19.5,3.7-25.2
							c0,0-4.4-6.1-5.7-8.9c-1.7-4.3,0-25.2,0-25.2c-4.9-3.2-9.3-2.5-9.3-2.5s1,20.8,0,24.3c-10.9,18.5-37.6,17-47.8-0.2
							C-160.4,465.5-159.5,444.2-159.5,444.2z"/>
					</g>
				</g>
			</g>
			<g>
				<g>
					<line class="st5" x1="-170.6" y1="507.8" x2="-100.8" y2="507.8"/>
				</g>
				<g>
					<path class="st4" d="M-170.6,508.2c-0.2,0-0.4-0.2-0.4-0.4c0-0.2,0.2-0.4,0.4-0.4l69.8,0c0.2,0,0.4,0.2,0.4,0.4
						c0,0.2-0.2,0.4-0.4,0.4L-170.6,508.2z"/>
				</g>
			</g>
		</g>
	</g>
</g>
</svg>
