<?xml version="1.0" encoding="utf-8"?>
<!-- Generator: Adobe Illustrator 19.1.0, SVG Export Plug-In . SVG Version: 6.00 Build 0)  -->
<svg version="1.1" id="Layer_1" xmlns="http://www.w3.org/2000/svg" xmlns:xlink="http://www.w3.org/1999/xlink" x="0px" y="0px"
	 viewBox="0 0 144 144" style="enable-background:new 0 0 144 144;" xml:space="preserve">
<g id="yQSqh6.tif">
	<g>
		<path d="M2.5,124c15.8,0,31.6,0,47.6,0c-0.2-0.4-0.4-0.7-0.6-1c-7.6-12.1-15.2-24.2-22.8-36.3c-0.7-1.1-0.8-2.2-0.3-3.4
			c1.7-5.1,3.4-10.1,5.1-15.2c0.3-0.7-0.2-0.9-0.6-1.2c-6.5-4.6-12.1-10.1-16.2-16.8c-3.3-5.3-5-11.1-4-17.4
			c0.9-5.7,4.4-9.7,9.5-10.7C24,21.1,27.6,22.1,31,24c5.5,3,9.3,7.7,12.1,13.2c3.3,6.6,5.5,13.5,6.2,20.9c0.3,2.9,0.2,5.7-1,8.4
			c-1.2,2.8-3.3,4.3-6.3,4.5c-0.2,0-0.4,0-0.6,0c-0.1,0-0.1,0-0.3,0.1c0.4,1.9,1.5,3.1,3.3,3.7c1.9,0.6,3.9,0,5-1.5
			c1.3-1.6,1.5-3.4,0.5-5.2c-0.4-0.7-0.4-1.2-0.2-1.9c0.8-2.3,1-4.7,0.8-7.2c0-0.8-0.1-1.6-0.1-2.5c2.5,0.3,4.8,0.6,7.2,0.9
			c2.6,0.3,5.2,0.7,7.9,1c1.5,0.1,2.5,0.8,3.4,2.1c11.2,17.9,22.5,35.8,33.7,53.8c1.3,2.1,1,3.2-1,4.5c-2.6,1.7-5.3,3.3-7.9,5.2
			c16,0,31.9,0,47.9,0c0,0.6,0,1.1,0,1.7c-46.3,0-92.7,0-139,0C2.5,125.1,2.5,124.5,2.5,124z M41.5,67.9c0.1,0.1,0.2,0.3,0.3,0.4
			c1.3,0.1,2.5-0.4,3.3-1.5c1.1-1.4,1.5-3.2,1.5-4.9c0.1-10.1-3-19.3-8.5-27.7c-2.9-4.6-7-8-12.4-9.5c-4.2-1.2-8.2,0-10.5,3.3
			c-1.5,2.1-2.1,4.5-2.2,7c-0.1,4.7,1.2,8.9,3.5,12.9c2.6,4.6,6.1,8.4,10,11.9c1.9,1.7,3.9,3.2,5.9,4.9c0.2-0.4,0.3-0.5,0.3-0.7
			c0.8-2.3,1.5-4.6,2.3-6.9c0.5-1.5,1.4-2.3,2.9-2.2c2.2,0.2,4.3,0.5,6.5,0.8c0.2,0,0.6,0.3,0.7,0.5c0.4,2.9,0.7,5.8-0.4,8.7
			c-0.2,0.4-0.6,0.8-1,1.1C43,66.7,42.2,67.3,41.5,67.9z M62.2,82.5c1.9,3.5,3.7,6.8,5.5,10.2c0.3,0.6,0.7,0.8,1.3,0.4
			c0.3-0.2,0.6-0.4,0.9-0.6c1.4-0.8,1.4-0.8,0.8-2.3c-0.3-0.7-0.1-1.1,0.5-1.5c0.6-0.4,1.1-0.4,1.5,0.2c1,1.6,2,3.2,2.9,4.8
			c0.3,0.6,0.1,1.1-0.5,1.4c-0.6,0.4-1.1,0.3-1.5-0.2c-0.3-0.4-0.5-0.8-0.8-1.2c-0.8-1.3-0.8-1.3-2.1-0.5c-2.3,1.4-2.2,1-0.7,3.3
			c1.1,1.7,2.6,2.8,4.8,2.6c3.2-0.3,5.6-3.3,4.6-6.2c-1-2.9-2.6-5.4-4.7-7.7c-0.8-0.8-1.8-1.1-2.9-0.9c-1.4,0.2-2.4,1-3.2,2.2
			c-0.5-1-1-1.8-1.5-2.8c1.3-0.8,2.6-1.6,3.9-2.4c0.5-0.3,0.8-0.7,0.4-1.2c-0.6-0.7-0.6-2-1.9-2.2c-0.1,0-0.1,0.1-0.2,0.1
			C67.1,79.5,64.7,81,62.2,82.5z M45.6,91c-0.7,0.5-1.5,0.9-2.2,1.5c-0.1,0.1-0.1,0.5,0,0.6c0.6,0.7,0.1,1.2-0.2,1.9
			c-0.3,0.5-0.4,1.1-0.5,1.7c-0.1,3.2,2.3,6,5.6,6.7c1.2,0.3,2.5,0.4,3.7,0.7c1.2,0.3,2.2,0.9,2.5,2.2c0.1,0.3-0.1,0.9-0.3,1.2
			c-0.8,0.8-1.4,0.5-2.2-0.8c-0.9-1.4-0.9-1.4-2.3-0.6c-1.9,1.2-2,1.2-0.7,3.1c1.2,1.7,2.7,2.8,4.9,2.5c0.2,0,0.7,0.2,0.8,0.5
			c0.4,0.6,0.8,0.6,1.3,0.2c0.4-0.3,0.8-0.5,1.3-0.8c0.5-0.3,0.6-0.7,0.4-1.2c-0.1-0.3,0-0.7,0.1-1.1c0.2-1,0.7-2,0.7-2.9
			c0-2.6-2.2-5.2-4.9-5.9c-1.2-0.3-2.4-0.5-3.6-0.7c-1.5-0.3-2.7-0.8-3.4-2.3c-0.3-0.7-0.1-1.1,0.4-1.4c0.6-0.4,1.1-0.2,1.5,0.3
			c1.2,1.4,1.2,1.4,2.8,0.4c0.3-0.2,0.6-0.3,0.8-0.5c0.2-0.2,0.4-0.7,0.3-0.9c-0.8-1.6-2.5-3.4-4.6-3.3c-0.7,0-1.4,0.2-1.8-0.7
			C46.2,91.2,45.9,91.1,45.6,91z M58.4,89.1c0.2,0.5,0.3,0.9,0.4,1.2c1.4,4.9,2.8,9.8,4.3,14.6c0.4,1.2,0.5,1.3,1.6,0.6
			c0.4-0.3,0.8-0.5,1.3-0.8c0.7-0.3,0.9-0.8,0.6-1.6c-1.1-3.7-2.2-7.5-3.3-11.2c-0.7-2.4-1.1-5-2.6-7.2c-0.5-0.8-0.9-0.9-1.7-0.4
			c-1.9,1.2-3.9,2.4-5.8,3.6c-2.2,1.3-2.1,0.9-0.8,3.2c0.7,1.1,0.7,1.1,1.9,0.4C55.7,90.8,57,90,58.4,89.1z"/>
	</g>
</g>
</svg>
