<?xml version="1.0" encoding="utf-8"?>
<!-- Generator: Adobe Illustrator 19.1.0, SVG Export Plug-In . SVG Version: 6.00 Build 0)  -->
<svg version="1.1" id="Layer_1" xmlns="http://www.w3.org/2000/svg" xmlns:xlink="http://www.w3.org/1999/xlink" x="0px" y="0px"
	 viewBox="0 0 144 144" style="enable-background:new 0 0 144 144;" xml:space="preserve">
<style type="text/css">
	.st0{fill:#010101;}
</style>
<path class="st0" d="M114.5,85.6c-8.5-1.8-14.5,4.6-14.5,4.6s3.4,2.7,4.3,6c1,3.9-1.2,8.9-1.2,8.9s-0.4-7.4-3.6-11.2
	c-3.6-4.3-8.9-6.5-12.2-7.6c-8.5-2.9-15.9-3.2-20.9-2c-9.5,2.4-18.2,11.4-18.2,11.4s0.5-3.6,1.9-4.8c3.8-3.2,9-6.7,9-6.7
	s2.2-10.9,1.2-13.9c-1-3-6-15.5-5.1-18.7c0.9-3.2,7.6-20.1,6.3-21.4c-7.4-7.2-1.3-6.6-1.3-6.6s2.6,7.5,3.7,8.1
	c1.1,0.6,5.3,0.1,6.7,0.3c1.4,0.3,6.7,3.8,7.8,3.1c1.1-0.7,3-1.4,3.3-1.3c0.4,0.1,1.4-2.2,0.6-2.9C81.6,30,87.4,26.3,88,25
	c1.1-2.4-7.2-12.1-9.2-14.9c-2-2.8-3.9-1.4-6.9-1.4c-3.3,0-13.7,0.8-13.7,0.8c-4.2,1-5.2,1.1-11.2,10.4C45,23.1,28.8,60.2,26.9,63.4
	c-2,3.3-9.5,16.7-10.6,23s1.3,12.5,1.5,15.6c0.2,3.2-1.8,8.8-1.6,10.6c0.2,1.8,9.8,0.2,12.2,4.8c3.1,6,22.3,13.9,33.7,14.3
	c8.4,1.8,34.1,2.8,44.6,3.9c2.9,0.3,4.2,2.2,4.2,2.2L124,91C124,91,118.4,86.4,114.5,85.6z M82.2,117.4c-10.4,1.5-18.1-6.3-18.1-6.3
	s12.2,5.6,18.7,3.9c6.5-1.7,14.3-7.1,14.3-7.1S92.6,116,82.2,117.4z M70.6,28.3c-0.3,2.7-5.5,3.5-5.5,3.5s4.4-2.2,4.2-4
	c-0.2-1.8-2.4-4.4-2.4-4.4S71,25.6,70.6,28.3z M78.2,28.1c-0.4,3-5.4,4-5.4,4s4.3-2.5,4.2-4.5s-2.1-4.8-2.1-4.8S78.6,25.1,78.2,28.1
	z M85,25.9c-0.4,3-5.4,4-5.4,4s4.3-2.5,4.2-4.5s-2.1-4.8-2.1-4.8S85.4,22.8,85,25.9z"/>
</svg>
