<?xml version="1.0" encoding="utf-8"?>
<!-- Generator: Adobe Illustrator 19.1.0, SVG Export Plug-In . SVG Version: 6.00 Build 0)  -->
<svg version="1.1" id="Layer_1" xmlns="http://www.w3.org/2000/svg" xmlns:xlink="http://www.w3.org/1999/xlink" x="0px" y="0px"
	 viewBox="0 0 144 144" style="enable-background:new 0 0 144 144;" xml:space="preserve">
<style type="text/css">
	.st0{fill:#1D1D1B;}
</style>
<path class="st0" d="M95.4,116c-1.9-4.3-6.8-6.2-11.1-4.4c-5.4,2.4-11.2,3.6-17.2,3.6c-23.8,0-43.2-19.4-43.2-43.2
	c0-11.5,4.5-22.4,12.6-30.5s19-12.6,30.5-12.6c11.5,0,22.4,4.5,30.5,12.6c8.1,8.1,12.5,18.8,12.6,30.2l-11.8,0.1L118.9,97l20-25.6
	l-11.8,0.1c-0.1-15.9-6.3-30.7-17.6-42c0,0,0,0,0,0C98.2,18.2,83.1,12,67.1,12c-16,0-31.1,6.2-42.4,17.6C13.3,40.9,7.1,56,7.1,72
	c0,16,6.2,31.1,17.6,42.4C36,125.8,51.1,132,67.1,132c8.3,0,16.4-1.7,23.9-5C95.3,125.2,97.3,120.2,95.4,116z"/>
</svg>
