<?xml version="1.0" encoding="utf-8"?>
<!-- Generator: Adobe Illustrator 19.1.0, SVG Export Plug-In . SVG Version: 6.00 Build 0)  -->
<svg version="1.1" id="Layer_1" xmlns="http://www.w3.org/2000/svg" xmlns:xlink="http://www.w3.org/1999/xlink" x="0px" y="0px"
	 viewBox="0 0 144 144" style="enable-background:new 0 0 144 144;" xml:space="preserve">
<g id="dP4xLM.tif">
	<g>
		<path d="M14.6,5.5c2.9,4.2,5.7,8.4,8.6,12.6c10.1,14.7,20.3,29.3,30.4,44c0.5,0.7,1,1.1,2,1.1c11,0,22.1,0,33.1,0
			c0.9,0,1.3-0.3,1.8-1c13.1-18.9,26.1-37.8,39.2-56.7c0.1,0,0.2,0,0.3,0c2.9,2.1,5.7,4.2,8.6,6.2c0,0.2,0,0.3,0,0.5
			c-1.1,1.5-2.2,3.1-3.3,4.6c-10.9,16-21.7,32.2-32.9,48.1c-7,9.9-10.5,21-12.2,32.8c-1.6,10.4,1.2,20,5.9,29.1
			c2.1,4,4.7,7.8,7.1,11.7c-3.8,0-7.6,0-11.4,0c-1.3-2.3-2.7-4.5-4-6.8c-4-7.5-6.8-15.4-6.9-24.1c-0.1-9.2,1.1-18.4,3.7-27.3
			c0.8-2.8,1.9-5.5,2.8-8.3c-10.1,0-20.3,0-30.5,0c0.7,1.9,1.4,3.7,2,5.5c2.5,7.8,3.8,15.8,4.1,23.9c0.2,3.9,0.2,7.9-0.4,11.8
			c-1.4,9.3-5.5,17.5-10.7,25.2c-3.6,0-7.3,0-10.9,0c4.8-6,8.4-12.7,10.9-20c3.2-9.5,3-19,0.4-28.6c-1.9-7.1-4.1-14.1-7.8-20.4
			c-2.8-4.8-6.2-9.4-9.3-14C25.6,41.3,16,27.2,6.3,13c-0.3-0.4-0.6-0.7-0.9-1.1c0-0.1,0-0.2,0-0.3c2.1-1.5,4.3-3,6.4-4.5
			c0.8-0.5,1.4-1.2,2.1-1.8C14.2,5.5,14.4,5.5,14.6,5.5z"/>
		<path d="M5.5,102.9c8.1,0,16.3,0,24.4,0c0.1,0,0.2-0.1,0.5-0.1c-2.4-2.4-4.8-4.6-7.1-6.9c2.2-2.2,4.1-4.1,6.2-6.1
			c3.6,3.6,7.3,7.3,11,11c1.5,1.5,3,3,4.5,4.5c0.7,0.7,0.9,3.3,0.2,3.9c-5.2,5.3-10.5,10.6-15.7,15.8c-2-2-3.9-3.9-5.8-5.9
			c2.2-2.2,4.6-4.5,6.9-6.9c-0.1-0.1-0.1-0.2-0.2-0.3c-0.4,0-0.8-0.1-1.2-0.1c-7.4,0-14.8,0-22.2,0c-0.5,0-0.9-0.1-1.4-0.2
			C5.5,108.8,5.5,105.9,5.5,102.9z"/>
		<path d="M138.5,112c-6.9,0-13.8,0-20.6-0.1c-1.3,0-2.6,0-3.8,0c2.4,2.3,4.7,4.6,7,6.8c-2.3,2.3-4.2,4.2-6.4,6.3
			c-1.6-1.6-3.3-3.4-5-5.2c-3.4-3.4-6.9-6.9-10.3-10.3c-0.8-0.8-0.9-3.3-0.1-4.1c5.1-5.1,10.2-10.2,15.3-15.3
			c0.1-0.1,0.3-0.2,0.4-0.3c1.9,2,3.9,3.9,5.9,6c-2.3,2.3-4.7,4.6-7.3,7.1c8.6,0,16.8,0,25,0C138.5,106,138.5,109,138.5,112z"/>
		<path d="M54.3,36.4c0-9.8,8-17.7,17.8-17.7c9.7,0,17.7,8,17.8,17.6c0,9.9-8,17.9-17.9,17.9C62.3,54.3,54.3,46.3,54.3,36.4z
			 M80.9,36.5c0-4.8-3.9-8.8-8.7-8.8c-5,0-9,3.9-9,8.9c0,4.8,4,8.7,8.9,8.7C77,45.3,80.9,41.4,80.9,36.5z"/>
	</g>
</g>
</svg>
