<?xml version="1.0" encoding="utf-8"?>
<!-- Generator: Adobe Illustrator 19.1.0, SVG Export Plug-In . SVG Version: 6.00 Build 0)  -->
<svg version="1.1" id="Layer_1" xmlns="http://www.w3.org/2000/svg" xmlns:xlink="http://www.w3.org/1999/xlink" x="0px" y="0px"
	 viewBox="-233 253 144 288" style="enable-background:new -233 253 144 288;" xml:space="preserve">
<style type="text/css">
	.st0{fill:#CC0000;}
</style>
<path d="M-212,368.4c0-0.5,0.1-1.7-0.1-1.7c-3.8-1-2.2-4.1-2.1-6.1c0-5,0.8-9.5,5.7-12.9c3.8-2.6,6-6.9,6.9-11.7
	c1-5,2.3-9.9,3.5-14.9c0.4,0,0.8,0,1.2-0.1c0.5,4.2,1.3,8.5,1.3,12.7c0,3.2-1.5,6.3-1.8,9.6c-0.5,5.6-1.2,11.3-0.8,16.9
	c0.3,4.2,0.9,8.3,1.4,12.4c0.7-0.1,1.4-0.2,2.2-0.3c9-3.2,18.3-5.5,27.6-6.6c0-1.4,0.1-2.8,0.1-4.2c1.6,0.9,2.3,1.6,3,1.8
	c1,0.3,2.2,0.5,3.2,0.2c4.5-1.1,6-4.7,6.3-8.7c0.7-8,2.3-15.8,5-23.4c0.7-2,0.3-4.5,0.1-6.7c0,0,0-0.1,0-0.1c2.5,2.4,4.9,5.1,9,5.9
	c-0.7,1.8-1.1,3.5-1.9,5c-1.8,3.2-3.9,6.3-5.8,9.5c-0.2,0.4,0.2,1.3,0.5,1.8c1.3,1.8,3.1,2.9,3.5,5.7c0.5,3.6,1.2,7.2,2,10.8
	c4.9,0.1,9.7,0.5,14.3,1.4c0.4-3.3,0.9-6.6,1.4-9.9c0.3,0,0.7-0.1,1-0.1c0.5,1,1.1,1.9,1.4,2.9c0.9,3.1,2.3,6,3.8,8.7
	c6.4,1.7,12.6,4.1,18.5,7.2c-2.6-8.9-5.1-17.8-8-26.7c-0.9-2.6-1.9-5-0.6-7.8c0.3,0.8,0.5,1.6,0.7,2.3c0.1,0,0.2,0,0.4,0
	c-0.1-2.2-0.2-4.4-0.4-7.1c1.4,0.7,2.3,1.1,3.1,1.5c3.5-5.3,4.5-11.2,6.1-16.9c0.5-1.8,1.2-4.1,0.5-5.6c-1.9-4.2-0.8-9-3.3-13
	c-0.2-0.4-0.1-1.2,0.1-1.6c1.5-2,0.7-3.8-0.5-5.5c-0.5-0.7-1.3-1.4-1.2-2.1c0.5-3.5-1.5-5.8-3.6-8c-0.8-0.9-1.7-1.7-2-2.8
	c-1.2-3.7-1.8-7.5-3.2-11.1c-1.6-4.1-3.4-8.2-5.8-11.8c-2.8-4.2-10.1-4.3-13.5-0.5c-1.2,1.4-2.2,2.9-3,4.5c-1.5,3.3-2.8,6.6-4.2,9.9
	c-0.1,0.2-0.1,0.5-0.1,0.7c0.4,3.4,0.4,6.8-1.6,9.9c-0.1,0.2,0.1,0.7,0,1c-0.4,1.4-0.6,2.9-1.3,4.1c-1.6,2.6-3.5,5-5.3,7.5
	c-0.6,0.8-0.8,1.8-1.5,2.6c-1.4,1.6-2.8,3.2-4.2,4.7c-0.1-0.2-0.2-0.5-0.3-0.7c-0.9-2.2-2.4-4.3-2.9-6.6c-1.1-4.4-3.2-8.3-7.9-8.7
	c-4-0.4-7.3-1.9-10.9-3c-4.7-1.5-5.3-3.1-4.5-8c0.6-3.5,0.9-7.2,0.2-10.6c-0.6-2.8-1.7-6.1-5.8-6.5c-0.3,0-0.5-0.1-0.7-0.3
	c-2.1,0.4-4.3,0.7-6.5,0.7c-0.1,0.1-0.2,0.2-0.4,0.3c-4.3,3.5-6.2,10-4.2,14.9c0.7,1.8,2.1,3.4,2.6,5.3c0.7,3,2,6.4,1.2,9
	c-0.9,2.6-3.9,5-6.5,6.6c-6.5,4-8.5,7.7-7.6,15.3c0.2,1.3-0.1,2.7-0.4,4c-0.8,3.7-1.7,7.4-2.6,11.1c-0.3,1.2-0.7,2.4-1,3.6
	c-0.8,2.5-1.7,4.9-2.4,7.4c-2.1,7.7-3.9,15.5-6.4,23.1c-1.1,3.3-0.6,6,1.3,8.2C-217.8,368.8-215.4,371.2-212,368.4z M-111.5,318.5
	c0.8-3.6,1.8-7.1,3.1-10.7c2.1,2,3,4.4,2.7,7c-0.4,3.5-1.4,7-2.1,10.5c-0.1,0.4-0.4,0.7-0.6,1C-111.2,324.2-112.3,321.6-111.5,318.5
	z M-142.8,301.3c0.6-0.5,1.3-0.8,2-1.2c0.2,0.2,0.3,0.4,0.5,0.5c-0.2,0.7-0.4,1.3-0.7,2.2h2.5c-0.6,1.2-1.2,2.3-1.7,3.4
	c0.1,0.2,0.3,0.4,0.5,0.5c0.9-0.7,1.9-1.4,3-2.3c2,2.4,2.7,5.4,3.2,8.4c0.4,2.2,0.8,4.7,0.2,6.7c-0.8,3-5.3,4.1-7.8,2.3
	c-3.3-2.4-7.2-4.2-9.6-7.6c-0.2-1.7-0.5-3.3-0.8-5C-148.7,306.6-145.7,304-142.8,301.3z M-170,323.8c2.3-2.9,4-6.2,5.8-9.1
	c1,1.7,2.1,3.5,3.2,5.4c0.4,0.8,1,1.7,0.9,2.5c-0.8,4.6,0.2,8.9,1.1,13.4c1,5.6-0.9,10.2-5,13c-2.2-5.1-4.3-10.5-7-15.6
	C-173,329.7-172.6,326.9-170,323.8z"/>
<path class="st0" d="M-212,515.5c0-0.5,0.1-1.7-0.1-1.7c-3.8-1-2.2-4.1-2.1-6.1c0-5,0.8-9.5,5.7-12.9c3.8-2.6,6-6.9,6.9-11.7
	c1-5,2.3-9.9,3.5-14.9c0.4,0,0.8,0,1.2-0.1c0.5,4.2,1.3,8.5,1.3,12.7c0,3.2-1.5,6.3-1.8,9.6c-0.5,5.6-1.2,11.3-0.8,16.9
	c0.3,4.2,0.9,8.3,1.4,12.4c0.7-0.1,1.4-0.2,2.2-0.3c9-3.2,18.3-5.5,27.6-6.6c0-1.4,0.1-2.8,0.1-4.2c1.6,0.9,2.3,1.6,3,1.8
	c1,0.3,2.2,0.5,3.2,0.2c4.5-1.1,6-4.7,6.3-8.7c0.7-8,2.3-15.8,5-23.4c0.7-2,0.3-4.5,0.1-6.7c0,0,0-0.1,0-0.1c2.5,2.4,4.9,5.1,9,5.9
	c-0.7,1.8-1.1,3.5-1.9,5c-1.8,3.2-3.9,6.3-5.8,9.5c-0.2,0.4,0.2,1.3,0.5,1.8c1.3,1.8,3.1,2.9,3.5,5.7c0.5,3.6,1.2,7.2,2,10.8
	c4.9,0.1,9.7,0.5,14.3,1.4c0.4-3.3,0.9-6.6,1.4-9.9c0.3,0,0.7-0.1,1-0.1c0.5,1,1.1,1.9,1.4,2.9c0.9,3.1,2.3,6,3.8,8.7
	c6.4,1.7,12.6,4.1,18.5,7.2c-2.6-8.9-5.1-17.8-8-26.7c-0.9-2.6-1.9-5-0.6-7.8c0.3,0.8,0.5,1.6,0.7,2.3c0.1,0,0.2,0,0.4,0
	c-0.1-2.2-0.2-4.4-0.4-7.1c1.4,0.7,2.3,1.1,3.1,1.5c3.5-5.3,4.5-11.2,6.1-16.9c0.5-1.8,1.2-4.1,0.5-5.6c-1.9-4.2-0.8-9-3.3-13
	c-0.2-0.4-0.1-1.2,0.1-1.6c1.5-2,0.7-3.8-0.5-5.5c-0.5-0.7-1.3-1.4-1.2-2.1c0.5-3.5-1.5-5.8-3.6-8c-0.8-0.9-1.7-1.7-2-2.8
	c-1.2-3.7-1.8-7.5-3.2-11.1c-1.6-4.1-3.4-8.2-5.8-11.8c-2.8-4.2-10.1-4.3-13.5-0.5c-1.2,1.4-2.2,2.9-3,4.5c-1.5,3.3-2.8,6.6-4.2,9.9
	c-0.1,0.2-0.1,0.5-0.1,0.7c0.4,3.4,0.4,6.8-1.6,9.9c-0.1,0.2,0.1,0.7,0,1c-0.4,1.4-0.6,2.9-1.3,4.1c-1.6,2.6-3.5,5-5.3,7.5
	c-0.6,0.8-0.8,1.8-1.5,2.6c-1.4,1.6-2.8,3.2-4.2,4.7c-0.1-0.2-0.2-0.5-0.3-0.7c-0.9-2.2-2.4-4.3-2.9-6.6c-1.1-4.4-3.2-8.3-7.9-8.7
	c-4-0.4-7.3-1.9-10.9-3c-4.7-1.5-5.3-3.1-4.5-8c0.6-3.5,0.9-7.2,0.2-10.6c-0.6-2.8-1.7-6.1-5.8-6.5c-0.3,0-0.5-0.1-0.7-0.3
	c-2.1,0.4-4.3,0.7-6.5,0.7c-0.1,0.1-0.2,0.2-0.4,0.3c-4.3,3.5-6.2,10-4.2,14.9c0.7,1.8,2.1,3.4,2.6,5.3c0.7,3,2,6.4,1.2,9
	c-0.9,2.6-3.9,5-6.5,6.6c-6.5,4-8.5,7.7-7.6,15.3c0.2,1.3-0.1,2.7-0.4,4c-0.8,3.7-1.7,7.4-2.6,11.1c-0.3,1.2-0.7,2.4-1,3.6
	c-0.8,2.5-1.7,4.9-2.4,7.4c-2.1,7.7-3.9,15.5-6.4,23.1c-1.1,3.3-0.6,6,1.3,8.2C-217.8,515.8-215.4,518.2-212,515.5z M-111.5,465.5
	c0.8-3.6,1.8-7.1,3.1-10.7c2.1,2,3,4.4,2.7,7c-0.4,3.5-1.4,7-2.1,10.5c-0.1,0.4-0.4,0.7-0.6,1C-111.2,471.2-112.3,468.6-111.5,465.5
	z M-142.8,448.4c0.6-0.5,1.3-0.8,2-1.2c0.2,0.2,0.3,0.4,0.5,0.5c-0.2,0.7-0.4,1.3-0.7,2.2h2.5c-0.6,1.2-1.2,2.3-1.7,3.4
	c0.1,0.2,0.3,0.4,0.5,0.5c0.9-0.7,1.9-1.4,3-2.3c2,2.4,2.7,5.4,3.2,8.4c0.4,2.2,0.8,4.7,0.2,6.7c-0.8,3-5.3,4.1-7.8,2.3
	c-3.3-2.4-7.2-4.2-9.6-7.6c-0.2-1.7-0.5-3.3-0.8-5C-148.7,453.6-145.7,451-142.8,448.4z M-170,470.8c2.3-2.9,4-6.2,5.8-9.1
	c1,1.7,2.1,3.5,3.2,5.4c0.4,0.8,1,1.7,0.9,2.5c-0.8,4.6,0.2,8.9,1.1,13.4c1,5.6-0.9,10.2-5,13c-2.2-5.1-4.3-10.5-7-15.6
	C-173,476.7-172.6,473.9-170,470.8z"/>
</svg>
