<?xml version="1.0" encoding="utf-8"?>
<!-- Generator: Adobe Illustrator 19.1.0, SVG Export Plug-In . SVG Version: 6.00 Build 0)  -->
<svg version="1.1" id="Layer_1" xmlns="http://www.w3.org/2000/svg" xmlns:xlink="http://www.w3.org/1999/xlink" x="0px" y="0px"
	 viewBox="-233 253 144 288" style="enable-background:new -233 253 144 288;" xml:space="preserve">
<style type="text/css">
	.st0{fill:#020202;}
	.st1{fill:#CC0000;}
</style>
<g>
	<path class="st0" d="M-112.3,295c0,3.9,3.2,7.1,7.1,7.1c3.9,0,7.1-3.2,7.1-7.1c0-3.9-3.2-7.1-7.1-7.1
		C-109.1,288-112.3,291.1-112.3,295z M-106.8,295c0-0.9,0.7-1.6,1.6-1.6c0.9,0,1.6,0.7,1.6,1.6c0,0.9-0.7,1.6-1.6,1.6
		C-106.1,296.7-106.8,295.9-106.8,295z"/>
	<g>
		<path class="st0" d="M-176,374.8c0.3-0.2,0.5-0.5,0.8-0.7c2.3-2.2,6.7-7.5,8.2-9.3c0.6-0.2,1.3-0.4,1.9-0.6
			c1.1,2.6,1.8,5.4,2.2,8.3c-0.4,0.1-0.9,0.1-1.3,0.2c-0.1,0-0.8,0.1-0.8,0.1c-0.2,0-0.3,0-0.5,0.1c-1.8,0.2-3.8,0.3-5.7,0.7
			C-172.8,373.6-174.5,374.1-176,374.8z"/>
		<path class="st0" d="M-214,301.1c1.7,0,3.4-0.3,5-0.8c0.1,0.2,0.3,0.4,0.4,0.6c2.4,3.3,5.1,6.4,5.3,10.7c0.2-2.5,0.8-6.2,4.9-10.1
			c3.1-2.9,7-3.7,7.4-3.9c0.6-1.6,1.6-3.2,2.4-4.3c1.1-1.4,2.6-2.6,4.1-3.6c0.8-0.5,1.7-1.1,2.7-1.4c0.3-0.3,0.7-0.5,1-0.7
			c-0.1-0.3-0.1-0.7-0.1-1c-0.1-0.3-0.1-0.6-0.2-0.9c-0.2-0.7-0.5-1.6-0.7-2.5c-0.6,0.3-3.6,1.9-4.4,2c-0.5,0.1-0.9,0.1-1.6-0.3
			c-0.4-0.3-0.8-0.5-1-0.8c-0.4-0.5-0.1-1.5-0.3-1.7c0-0.1-0.1-0.2-0.1-0.2c-0.1-0.1-0.5-0.5-0.6-0.5c-0.2-0.1-0.2-0.2-0.2-0.3
			c0,0,0.1-0.3,0.1-0.5c-0.1,0-0.2-0.1-0.3-0.1c-0.2-0.1-0.2-0.2-0.2-0.3c0-0.5-0.1-0.7-0.3-1.1c-0.1-0.1-0.2-0.3-0.2-0.4
			c0,0,0,0-0.1,0c-0.3,0-0.6,0.1-0.9,0.1c-1,0.1-1.4-0.5-1.4-1.3c0-0.5,0-0.9,0-1.4c0-0.4,0-0.8,0-1.2c0-0.1,0-0.9,0.3-2
			c-0.1-0.3-0.6-0.7-0.8-1c-0.2-0.3-0.4-0.7-0.5-1.1c0-0.3-0.6-5-0.5-4.9c0,0-0.4-0.2-0.6-0.7c-0.2-0.4-0.2-0.9-0.2-1.3
			c0.1-1.6,1.4-3.1,2.4-4.3c3.7-4.2,10.1-5,11.4-5c2,0.1,4.2,0.3,6.1,1c1.7,0.7,3.3,1.6,4.5,3c2.1,2.4,2.4,6.1,2.5,7.3
			c0.1,1.7,0.2,4-0.5,5.8c0,0.4-0.1,0.8-0.1,1.2c0,1.2,2.1,6.2,3,7.4c0.1,0.2,0.3,0.4,0.4,0.6c0,0,0,0,0,0c0.5,0.7,1.1,1.4,1.8,2
			c3.7,3,6.4,7.2,7.7,9.7c1.8,3.5,2.5,7.4,2.8,11.3c0.2,3.1,0.2,4.5-1.3,8.9c-1.9,4.7-8.9,16.3-4.5,25.9c0.8,1.9,1.9,3.7,2.7,5.6
			c1.6,3.8,0.3,8.4-0.5,10.3c-1.4,3.4-3.3,7-10.3,9c0,0-3.6,4.2-4.4,5.1c-1.7,2.1-3.6,4-5.6,5.8c-2.2,2-4.5,4-6.9,5.8
			c-2.8-2.1-5.6-2.3-8.8-0.9c-5.7,2.4-9.4,4.2-12.1,6.6c-1.5,1.4-1.7,4.7-1.7,4.7c-1.7,0.9-3.9,2-3.8,2c-0.5-1.2,0.3-7.1,2.4-12.6
			c0.4-1,5.6-14.2,13.3-25.3c3.8-5.5,10.3-11.9,10.9-12.4c0,0,0,0,0-0.1c0.1-0.1,0.1-0.2,0.2-0.3c0-0.1,0-0.1,0-0.2
			c-0.4-1.5-0.8-3-1.3-4.6c-0.4-1.3-0.6-2.5-0.4-3.9c0.1-0.6,0.1-1.2,0.1-1.9c-0.5-0.7-0.9-1.5-1.1-2.3c-0.3-1-0.5-2.6,0.1-3.7
			c0,0,0-0.1,0-0.1c-0.1-0.1-0.2-0.2-0.3-0.4c-0.7-0.8-1.4-1.9-1.8-3c0,0-0.7,0.7-2.1,1.7c-0.7,0.5-1.5,1.1-2.6,1.7
			c-2.4,1.4-8.3,3.7-12.3,5c-0.7,0.2-2.2-0.6-2.7-0.7c-2-0.3-2-0.6-3.3-2c-1-1-4.7-9-5.3-13.2c-0.9-6.1-1.2-10.7-1.4-14.3
			C-217.2,300.9-215.6,301.1-214,301.1z"/>
		<path class="st0" d="M-118.5,380.7c-0.2-0.1-0.4-0.1-0.6-0.2c-0.4-0.2-0.9-0.3-1.3-0.4c-0.7-1.8-1.7-4.3-1.7-4.3s0.8-1.9,1.2-2.9
			c0.6-1.5,1.2-3,1.7-4.6c1.8-5.9,2.3-12.1,2-18.3c0,0,5.5,6.8,9,15.6c2,5.2,3.3,10.6,4.2,16.1c-0.1,0-0.2-0.1-0.3-0.1
			c-1.2-0.5-2.2-1.1-3.4-1.7c-2.8-1.5-6.5-2.4-9.4-0.4C-117.6,379.9-118.1,380.3-118.5,380.7z"/>
		<path class="st0" d="M-154.9,329.8c0.1,0.1,0.2,0.3,0.4,0.5c0.2,0.3,0.5,0.6,0.8,0.9c0.6,0.9,0.7,0.9,1.2,1.5
			c1.5,1.8,12.7,9.1,13.1,9.2c-1.1,1.7-1.9,3.5-2.3,5.5c-0.3,1.5-1.7,7.3,4,11.6c0,0.1-2.3,7.2-3,10.6c-0.2,0.9-0.4,1.9-0.6,2.9
			c0.2,0,0.3,0,0.5,0c2.6,0.1,5.1,0.6,7.7,0.8c3.4,0.3,7,1.4,8.8,4.1c0.2-0.5,0.4-1,0.7-1.4c1.5-3.4,2.8-6.8,3.7-10.4
			c1.5-6,1.8-12.9,1.4-19.1c0.2-1.4,3.2-6.4,3.7-11.8c0.5-5,0.5-8.8,0.6-9.5c0.1,0,4.5,2.6,5,2.7c0.7,0.3,2.4,0.6,3,0.3
			c0.8-0.4,4.1-15,5.1-26c-1.1,0.6-2.4,0.9-3.7,0.9c-0.3,0-0.6,0-1-0.1c-0.9,4.5-2.6,8.2-3.1,9.3c-0.9,2-2.1,4.3-2.2,5
			c-2.1-2.4-2.2-2.2-3-2.8c0,0,0-0.3,0-0.6c1.5-0.9,2.4-3.1,2.1-5.2c-0.3-2.3-2.3-4.8-4.1-6.1c-2.5-1.7-4.8-2.8-7.5-4.2
			c-0.7-0.4-1.4-0.8-2.2-1.1c-0.3-0.1-0.4-0.2-0.5-0.4c-0.2-0.2-0.3-0.5-0.5-0.7c-0.7-0.9-1.7-1.3-2.5-2.1c-0.7-0.8-1.3-1.1-1.5-2.1
			c0.4-1.2,1.2-2.9,1.8-4.1c0.4-0.1,0.9-0.2,1.3-0.2c0.1,0,0.3,0,0.4,0c0.4,0.1,0.7,0.1,1.1,0.2c0,0,0,0,0,0c0.1,0,0.2,0,0.4,0.1
			c0.2,0,0.3,0.1,0.5,0.1c0.3,0.1,0.6,0.1,0.9,0.2c0.1,0,0.2,0,0.3,0.1c0,0,0.1,0,0.1,0c0,0,0,0,0,0c0.2,0,0.4,0,0.7,0
			c0.1,0,0.1,0,0.2,0c0.3,0,0.6,0,0.9-0.1c0.4-0.1,0.8-0.3,1-0.6c0.9-0.6,0-1.8,0.4-2.5c0.1-0.1,0.1-0.1,0.2-0.2
			c0.1-0.1,0.2-0.1,0.3-0.2c0,0,0,0,0,0c0.2-0.2,0.2-0.4,0.1-0.6c0-0.1-0.1-0.3-0.3-0.4c0.1-0.1,0.2-0.1,0.2-0.2
			c0-0.1,0.1-0.1,0.1-0.2c0.1-0.2,0.2-0.4,0.3-0.5c0-0.2-0.1-0.2-0.2-0.4c-0.1-0.2-0.2-0.4-0.3-0.5c0-0.1,0-0.1,0-0.2
			c0-0.2,0.1-0.4,0.2-0.5c0-0.1,0.1-0.1,0.1-0.1c0.1-0.1,0.2-0.2,0.4-0.3c0.2-0.1,0.3-0.3,0.5-0.4c0,0,0,0,0,0
			c0.2-0.2,0.3-0.5,0.3-0.8c0-0.2-0.1-0.5-0.3-0.6c0,0-0.1-0.1-0.1-0.1c0,0-0.1-0.1-0.1-0.1c-0.1-0.1-0.1-0.1-0.2-0.2
			c-0.6-0.5-1.4-1-1.9-1.7c0-0.2-0.1-0.3-0.1-0.5c0.2-0.6,0.4-1.5,0-2c0,0,0-0.1,0-0.1c0,0,0,0,0,0c0,0,0,0,0,0c0-0.1,0-0.1-0.1-0.2
			c-0.1-0.3-0.3-0.6-0.4-0.9c0-0.1-0.3-0.7-0.3-0.8c-0.2-0.4-0.4-0.8-0.6-1.2c0,0,0-0.1-0.1-0.1c-0.1-0.2-0.2-0.3-0.3-0.5
			c-0.1-0.1-0.3-0.3-0.3-0.3c0.2-0.4,0.1-0.7,0.1-0.9c0,0,0-0.1,0-0.1c0,0,0,0,0,0c0-0.4-0.4-1.3-0.4-1.2c-0.2-0.4-0.4-0.8-0.7-1
			c-1.5-1.4-3.1-2-3.5-2.1c-0.5-0.1-1-0.3-1.6-0.4c-0.5-0.1-0.9-0.2-1.4-0.3c-1.3-0.2-2.6-0.4-4-0.3c-1.1,0.3-2.3,0.4-3.4,0.8
			c-1,0.3-1.8,1.1-2.8,1.4c-0.1-0.2-0.2-0.4-0.4-0.5c-1-0.7-2.3-0.4-3.1,0.4c-0.1,0.1-0.2,0.2-0.2,0.3c-1.9,1.1-3.2,3.5-3.9,5.4
			c-1,2.5-1.5,5.6-1.3,8.3c0.4,5.8,4.5,12.9-0.4,17.9c0,0,7.9-1.5,8-9.5c0-3.1-1.1-6-1.7-8.9c-0.3-1.2-0.5-2.5-0.5-3.8
			c0,0,0,0.1,0,0.1c0.4,0.8,0.8,1.6,1.2,2.3c0.3,0.5,0.7,1,1,1.5c1,1.2,1.9,2.6,3,3.8c0.4,1.4,0.1,3.1-0.1,4.5
			c-0.4,2.3-1.2,4.5-2.6,6.3c-0.9,1.1-3.5,3.8-3.6,4c-1,1.3-1.6,2.5-1.8,3.2c-0.3,0.9-0.5,2.8-0.4,4.3c-0.1,1.3-1.8,4.5-2.6,7.5
			c-0.3,1.2-0.5,2.4-0.6,3.7C-152.2,318.8-155.8,328.6-154.9,329.8z M-147.3,327.8c0.6-2.9,3.1-4.9,4.8-7.9c2.9-5.1,3.3-6.7,3.3-6.7
			c0.7,1,1.5,1.9,2.3,2.7c1.5,1.6,2.9,3.8,4.3,5.4c0.4,0.5,0.8,1,1.1,1.6c0.6,1.1,1.2,4.8,0.8,8.5c-0.1,1.1-2.2,3.9-4,5.1
			c-0.8,0.6-1.5,1.3-2.1,2C-140.2,335.6-143.3,330.2-147.3,327.8z"/>
	</g>
	<path class="st0" d="M-224.4,284.6c0,5.8,4.7,10.5,10.5,10.5c5.8,0,10.5-4.7,10.5-10.5c0-5.8-4.7-10.5-10.5-10.5
		C-219.7,274.1-224.4,278.8-224.4,284.6z M-220.9,284.6c0-3.8,3.1-7,7-7c3.8,0,7,3.1,7,7c0,3.8-3.1,7-7,7
		C-217.8,291.6-220.9,288.4-220.9,284.6z"/>
	<g>
		<path class="st0" d="M-229.3,284.6c0,8.4,6.8,15.3,15.3,15.3s15.3-6.8,15.3-15.3c0-8.4-6.8-15.3-15.3-15.3
			S-229.3,276.2-229.3,284.6z M-225.6,284.6c0-6.5,5.2-11.7,11.7-11.7c6.5,0,11.7,5.2,11.7,11.7c0,6.5-5.2,11.7-11.7,11.7
			C-220.4,296.3-225.6,291.1-225.6,284.6z"/>
		<path class="st0" d="M-214.9,292.5c4.6,0.4,8.6-2.4,9.1-7.1c0.2-2.3,0-4.5-1.7-6.2c-1-1-2.3-1.9-3.7-1.9c0,0,0,0,0,0
			c-1.7-2-5.1-0.7-7,0.3c-2.3,1.1-3.6,3.1-3.8,5.6C-222.4,287.2-219.3,292-214.9,292.5z M-214,287.1c-1.4,0-2.5-1.1-2.5-2.5
			s1.1-2.5,2.5-2.5s2.5,1.1,2.5,2.5S-212.6,287.1-214,287.1z"/>
	</g>
</g>
<g>
	<path class="st1" d="M-112.3,441.2c0,3.9,3.2,7.1,7.1,7.1c3.9,0,7.1-3.2,7.1-7.1c0-3.9-3.2-7.1-7.1-7.1
		C-109.1,434.1-112.3,437.3-112.3,441.2z M-106.8,441.2c0-0.9,0.7-1.6,1.6-1.6c0.9,0,1.6,0.7,1.6,1.6c0,0.9-0.7,1.6-1.6,1.6
		C-106.1,442.8-106.8,442.1-106.8,441.2z"/>
	<g>
		<path class="st1" d="M-176,521c0.3-0.2,0.5-0.5,0.8-0.7c2.3-2.2,6.7-7.5,8.2-9.3c0.6-0.2,1.3-0.4,1.9-0.6c1.1,2.6,1.8,5.4,2.2,8.3
			c-0.4,0.1-0.9,0.1-1.3,0.2c-0.1,0-0.8,0.1-0.8,0.1c-0.2,0-0.3,0-0.5,0.1c-1.8,0.2-3.8,0.3-5.7,0.7
			C-172.8,519.8-174.5,520.2-176,521z"/>
		<path class="st1" d="M-214,447.3c1.7,0,3.4-0.3,5-0.8c0.1,0.2,0.3,0.4,0.4,0.6c2.4,3.3,5.1,6.4,5.3,10.7c0.2-2.5,0.8-6.2,4.9-10.1
			c3.1-2.9,7-3.7,7.4-3.9c0.6-1.6,1.6-3.2,2.4-4.3c1.1-1.4,2.6-2.6,4.1-3.6c0.8-0.5,1.7-1.1,2.7-1.4c0.3-0.3,0.7-0.5,1-0.7
			c-0.1-0.3-0.1-0.7-0.1-1c-0.1-0.3-0.1-0.6-0.2-0.9c-0.2-0.7-0.5-1.6-0.7-2.5c-0.6,0.3-3.6,1.9-4.4,2c-0.5,0.1-0.9,0.1-1.6-0.3
			c-0.4-0.3-0.8-0.5-1-0.8c-0.4-0.5-0.1-1.5-0.3-1.7c0-0.1-0.1-0.2-0.1-0.2c-0.1-0.1-0.5-0.5-0.6-0.5c-0.2-0.1-0.2-0.2-0.2-0.3
			c0,0,0.1-0.3,0.1-0.5c-0.1,0-0.2-0.1-0.3-0.1c-0.2-0.1-0.2-0.2-0.2-0.3c0-0.5-0.1-0.7-0.3-1.1c-0.1-0.1-0.2-0.3-0.2-0.4
			c0,0,0,0-0.1,0c-0.3,0-0.6,0.1-0.9,0.1c-1,0.1-1.4-0.5-1.4-1.3c0-0.5,0-0.9,0-1.4c0-0.4,0-0.8,0-1.2c0-0.1,0-0.9,0.3-2
			c-0.1-0.3-0.6-0.7-0.8-1c-0.2-0.3-0.4-0.7-0.5-1.1c0-0.3-0.6-5-0.5-4.9c0,0-0.4-0.2-0.6-0.7c-0.2-0.4-0.2-0.9-0.2-1.3
			c0.1-1.6,1.4-3.1,2.4-4.3c3.7-4.2,10.1-5,11.4-5c2,0.1,4.2,0.3,6.1,1c1.7,0.7,3.3,1.6,4.5,3c2.1,2.4,2.4,6.1,2.5,7.3
			c0.1,1.7,0.2,4-0.5,5.8c0,0.4-0.1,0.8-0.1,1.2c0,1.2,2.1,6.2,3,7.4c0.1,0.2,0.3,0.4,0.4,0.6c0,0,0,0,0,0c0.5,0.7,1.1,1.4,1.8,2
			c3.7,3,6.4,7.2,7.7,9.7c1.8,3.5,2.5,7.4,2.8,11.3c0.2,3.1,0.2,4.5-1.3,8.9c-1.9,4.7-8.9,16.3-4.5,25.9c0.8,1.9,1.9,3.7,2.7,5.6
			c1.6,3.8,0.3,8.4-0.5,10.3c-1.4,3.4-3.3,7-10.3,9c0,0-3.6,4.2-4.4,5.1c-1.7,2.1-3.6,4-5.6,5.8c-2.2,2-4.5,4-6.9,5.8
			c-2.8-2.1-5.6-2.3-8.8-0.9c-5.7,2.4-9.4,4.2-12.1,6.6c-1.5,1.4-1.7,4.7-1.7,4.7c-1.7,0.9-3.9,2-3.8,2c-0.5-1.2,0.3-7.1,2.4-12.6
			c0.4-1,5.6-14.2,13.3-25.3c3.8-5.5,10.3-11.9,10.9-12.4c0,0,0,0,0-0.1c0.1-0.1,0.1-0.2,0.2-0.3c0-0.1,0-0.1,0-0.2
			c-0.4-1.5-0.8-3-1.3-4.6c-0.4-1.3-0.6-2.5-0.4-3.9c0.1-0.6,0.1-1.2,0.1-1.9c-0.5-0.7-0.9-1.5-1.1-2.3c-0.3-1-0.5-2.6,0.1-3.7
			c0,0,0-0.1,0-0.1c-0.1-0.1-0.2-0.2-0.3-0.4c-0.7-0.8-1.4-1.9-1.8-3c0,0-0.7,0.7-2.1,1.7c-0.7,0.5-1.5,1.1-2.6,1.7
			c-2.4,1.4-8.3,3.7-12.3,5c-0.7,0.2-2.2-0.6-2.7-0.7c-2-0.3-2-0.6-3.3-2c-1-1-4.7-9-5.3-13.2c-0.9-6.1-1.2-10.7-1.4-14.3
			C-217.2,447-215.6,447.3-214,447.3z"/>
		<path class="st1" d="M-118.5,526.9c-0.2-0.1-0.4-0.1-0.6-0.2c-0.4-0.2-0.9-0.3-1.3-0.4c-0.7-1.8-1.7-4.3-1.7-4.3s0.8-1.9,1.2-2.9
			c0.6-1.5,1.2-3,1.7-4.6c1.8-5.9,2.3-12.1,2-18.3c0,0,5.5,6.8,9,15.6c2,5.2,3.3,10.6,4.2,16.1c-0.1,0-0.2-0.1-0.3-0.1
			c-1.2-0.5-2.2-1.1-3.4-1.7c-2.8-1.5-6.5-2.4-9.4-0.4C-117.6,526-118.1,526.4-118.5,526.9z"/>
		<path class="st1" d="M-154.9,475.9c0.1,0.1,0.2,0.3,0.4,0.5c0.2,0.3,0.5,0.6,0.8,0.9c0.6,0.9,0.7,0.9,1.2,1.5
			c1.5,1.8,12.7,9.1,13.1,9.2c-1.1,1.7-1.9,3.5-2.3,5.5c-0.3,1.5-1.7,7.3,4,11.6c0,0.1-2.3,7.2-3,10.6c-0.2,0.9-0.4,1.9-0.6,2.9
			c0.2,0,0.3,0,0.5,0c2.6,0.1,5.1,0.6,7.7,0.8c3.4,0.3,7,1.4,8.8,4.1c0.2-0.5,0.4-1,0.7-1.4c1.5-3.4,2.8-6.8,3.7-10.4
			c1.5-6,1.8-12.9,1.4-19.1c0.2-1.4,3.2-6.4,3.7-11.8c0.5-5,0.5-8.8,0.6-9.5c0.1,0,4.5,2.6,5,2.7c0.7,0.3,2.4,0.6,3,0.3
			c0.8-0.4,4.1-15,5.1-26c-1.1,0.6-2.4,0.9-3.7,0.9c-0.3,0-0.6,0-1-0.1c-0.9,4.5-2.6,8.2-3.1,9.3c-0.9,2-2.1,4.3-2.2,5
			c-2.1-2.4-2.2-2.2-3-2.8c0,0,0-0.3,0-0.6c1.5-0.9,2.4-3.1,2.1-5.2c-0.3-2.3-2.3-4.8-4.1-6.1c-2.5-1.7-4.8-2.8-7.5-4.2
			c-0.7-0.4-1.4-0.8-2.2-1.1c-0.3-0.1-0.4-0.2-0.5-0.4c-0.2-0.2-0.3-0.5-0.5-0.7c-0.7-0.9-1.7-1.3-2.5-2.1c-0.7-0.8-1.3-1.1-1.5-2.1
			c0.4-1.2,1.2-2.9,1.8-4.1c0.4-0.1,0.9-0.2,1.3-0.2c0.1,0,0.3,0,0.4,0c0.4,0.1,0.7,0.1,1.1,0.2c0,0,0,0,0,0c0.1,0,0.2,0,0.4,0.1
			c0.2,0,0.3,0.1,0.5,0.1c0.3,0.1,0.6,0.1,0.9,0.2c0.1,0,0.2,0,0.3,0.1c0,0,0.1,0,0.1,0c0,0,0,0,0,0c0.2,0,0.4,0,0.7,0
			c0.1,0,0.1,0,0.2,0c0.3,0,0.6,0,0.9-0.1c0.4-0.1,0.8-0.3,1-0.6c0.9-0.6,0-1.8,0.4-2.5c0.1-0.1,0.1-0.1,0.2-0.2
			c0.1-0.1,0.2-0.1,0.3-0.2c0,0,0,0,0,0c0.2-0.2,0.2-0.4,0.1-0.6c0-0.1-0.1-0.3-0.3-0.4c0.1-0.1,0.2-0.1,0.2-0.2
			c0-0.1,0.1-0.1,0.1-0.2c0.1-0.2,0.2-0.4,0.3-0.5c0-0.2-0.1-0.2-0.2-0.4c-0.1-0.2-0.2-0.4-0.3-0.5c0-0.1,0-0.1,0-0.2
			c0-0.2,0.1-0.4,0.2-0.5c0-0.1,0.1-0.1,0.1-0.1c0.1-0.1,0.2-0.2,0.4-0.3c0.2-0.1,0.3-0.3,0.5-0.4c0,0,0,0,0,0
			c0.2-0.2,0.3-0.5,0.3-0.8c0-0.2-0.1-0.5-0.3-0.6c0,0-0.1-0.1-0.1-0.1c0,0-0.1-0.1-0.1-0.1c-0.1-0.1-0.1-0.1-0.2-0.2
			c-0.6-0.5-1.4-1-1.9-1.7c0-0.2-0.1-0.3-0.1-0.5c0.2-0.6,0.4-1.5,0-2c0,0,0-0.1,0-0.1c0,0,0,0,0,0c0,0,0,0,0,0c0-0.1,0-0.1-0.1-0.2
			c-0.1-0.3-0.3-0.6-0.4-0.9c0-0.1-0.3-0.7-0.3-0.8c-0.2-0.4-0.4-0.8-0.6-1.2c0,0,0-0.1-0.1-0.1c-0.1-0.2-0.2-0.3-0.3-0.5
			c-0.1-0.1-0.3-0.3-0.3-0.3c0.2-0.4,0.1-0.7,0.1-0.9c0,0,0-0.1,0-0.1c0,0,0,0,0,0c0-0.4-0.4-1.3-0.4-1.2c-0.2-0.4-0.4-0.8-0.7-1
			c-1.5-1.4-3.1-2-3.5-2.1c-0.5-0.1-1-0.3-1.6-0.4c-0.5-0.1-0.9-0.2-1.4-0.3c-1.3-0.2-2.6-0.4-4-0.3c-1.1,0.3-2.3,0.4-3.4,0.8
			c-1,0.3-1.8,1.1-2.8,1.4c-0.1-0.2-0.2-0.4-0.4-0.5c-1-0.7-2.3-0.4-3.1,0.4c-0.1,0.1-0.2,0.2-0.2,0.3c-1.9,1.1-3.2,3.5-3.9,5.4
			c-1,2.5-1.5,5.6-1.3,8.3c0.4,5.8,4.5,12.9-0.4,17.9c0,0,7.9-1.5,8-9.5c0-3.1-1.1-6-1.7-8.9c-0.3-1.2-0.5-2.5-0.5-3.8
			c0,0,0,0.1,0,0.1c0.4,0.8,0.8,1.6,1.2,2.3c0.3,0.5,0.7,1,1,1.5c1,1.2,1.9,2.6,3,3.8c0.4,1.4,0.1,3.1-0.1,4.5
			c-0.4,2.3-1.2,4.5-2.6,6.3c-0.9,1.1-3.5,3.8-3.6,4c-1,1.3-1.6,2.5-1.8,3.2c-0.3,0.9-0.5,2.8-0.4,4.3c-0.1,1.3-1.8,4.5-2.6,7.5
			c-0.3,1.2-0.5,2.4-0.6,3.7C-152.2,465-155.8,474.8-154.9,475.9z M-147.3,473.9c0.6-2.9,3.1-4.9,4.8-7.9c2.9-5.1,3.3-6.7,3.3-6.7
			c0.7,1,1.5,1.9,2.3,2.7c1.5,1.6,2.9,3.8,4.3,5.4c0.4,0.5,0.8,1,1.1,1.6c0.6,1.1,1.2,4.8,0.8,8.5c-0.1,1.1-2.2,3.9-4,5.1
			c-0.8,0.6-1.5,1.3-2.1,2C-140.2,481.8-143.3,476.3-147.3,473.9z"/>
	</g>
	<path class="st1" d="M-224.4,430.7c0,5.8,4.7,10.5,10.5,10.5c5.8,0,10.5-4.7,10.5-10.5c0-5.8-4.7-10.5-10.5-10.5
		C-219.7,420.3-224.4,425-224.4,430.7z M-220.9,430.7c0-3.8,3.1-7,7-7c3.8,0,7,3.1,7,7s-3.1,7-7,7
		C-217.8,437.7-220.9,434.6-220.9,430.7z"/>
	<g>
		<path class="st1" d="M-229.3,430.7c0,8.4,6.8,15.3,15.3,15.3s15.3-6.8,15.3-15.3c0-8.4-6.8-15.3-15.3-15.3
			S-229.3,422.3-229.3,430.7z M-225.6,430.7c0-6.5,5.2-11.7,11.7-11.7c6.5,0,11.7,5.2,11.7,11.7c0,6.5-5.2,11.7-11.7,11.7
			C-220.4,442.4-225.6,437.2-225.6,430.7z"/>
		<path class="st1" d="M-214.9,438.6c4.6,0.4,8.6-2.4,9.1-7.1c0.2-2.3,0-4.5-1.7-6.2c-1-1-2.3-1.9-3.7-1.9c0,0,0,0,0,0
			c-1.7-2-5.1-0.7-7,0.3c-2.3,1.1-3.6,3.1-3.8,5.6C-222.4,433.4-219.3,438.2-214.9,438.6z M-214,433.2c-1.4,0-2.5-1.1-2.5-2.5
			s1.1-2.5,2.5-2.5s2.5,1.1,2.5,2.5S-212.6,433.2-214,433.2z"/>
	</g>
</g>
</svg>
