<?xml version="1.0" encoding="utf-8"?>
<!-- Generator: Adobe Illustrator 19.1.0, SVG Export Plug-In . SVG Version: 6.00 Build 0)  -->
<svg version="1.1" id="Layer_1" xmlns="http://www.w3.org/2000/svg" xmlns:xlink="http://www.w3.org/1999/xlink" x="0px" y="0px"
	 viewBox="-233 253 144 288" style="enable-background:new -233 253 144 288;" xml:space="preserve">
<style type="text/css">
	.st0{fill:#CC0000;}
</style>
<g>
	<path d="M-228.3,268v79.6c0,7.3,5.9,13.3,13.3,13.3h92.9l26.5,26.5L-95.7,268c0-7.3-5.9-13.3-13.2-13.3h-106.1
		C-222.4,254.8-228.3,260.7-228.3,268z M-201.8,310.8h79.6v13.3h-79.6V310.8z M-166.8,330.4h44.6v12.2h-44.6V330.4z M-201.8,290.9
		h79.6v13.3h-79.6V290.9z M-201.8,271h79.6v13.3h-79.6V271z"/>
</g>
<g>
	<path class="st0" d="M-228.3,414.3v79.6c0,7.3,5.9,13.3,13.3,13.3h92.9l26.5,26.5l-0.1-119.4c0-7.3-5.9-13.3-13.2-13.3h-106.1
		C-222.4,401-228.3,407-228.3,414.3z M-201.8,457h79.6v13.3h-79.6V457z M-166.8,476.6h44.6v12.2h-44.6V476.6z M-201.8,437.1h79.6
		v13.3h-79.6V437.1z M-201.8,417.2h79.6v13.3h-79.6V417.2z"/>
</g>
</svg>
