<?xml version="1.0" encoding="utf-8"?>
<!-- Generator: Adobe Illustrator 19.1.0, SVG Export Plug-In . SVG Version: 6.00 Build 0)  -->
<svg version="1.1" id="Layer_1" xmlns="http://www.w3.org/2000/svg" xmlns:xlink="http://www.w3.org/1999/xlink" x="0px" y="0px"
	 viewBox="-233 253 144 288" style="enable-background:new -233 253 144 288;" xml:space="preserve">
<style type="text/css">
	.st0{fill:#221F1F;stroke:#221F1F;stroke-miterlimit:10;}
	.st1{fill:#FFFFFF;}
	.st2{fill:#CC0000;stroke:#CC0000;stroke-miterlimit:10;}
</style>
<g>
	<path class="st0" d="M-205.4,324.9c-8.2-0.9-11.1-1.5-2-10.3c1.9-1.8,3.6-4.2,4.1-6.9c0.1-0.4,0.4-4.7,0.2-4.6
		c-1.3,0.5-1-3.3-0.9-3.7c0.3-3.4,1-6.8,1.8-10.2c0.6-2.4,1.6-4.6,2.9-6.7c0.4-0.6,0.8-1.1,1.2-1.7c-1.8-4.8-2.2-10.2,2.4-13.8
		c21-16.7,58.3-11.6,72.5,11.7c6,9.9,5.7,22.2,2.8,33.1c-1.4,5.2-3.4,10.3-6.4,14.8c-1.7,2.6-8.3,7.3-8.9,10
		c-2.6,11.6,1.9,21.3,1.9,21.3l-45.8,5.5c0,0-2.4-8.8-2.5-9c-0.8-1.6-2.3-2.3-4-2.7c-5.4-1.2-14.6,0.7-17.3-5.6
		c-2.1-4.8,2.5-8.5-0.5-9c-3-0.5-0.7-4.4-0.7-4.4s-3.5-0.6-1.1-3.7C-203.3,326-205.4,324.9-205.4,324.9z"/>
	<path class="st1" d="M-163.8,295.1v-36.1c0-2.8,2.4-5.1,5.4-5.1c3,0,5.4,2.3,5.4,5.1v36.1c5.6,2.1,9.7,7.4,9.7,13.7
		c0,8.1-6.7,14.7-15,14.7c-8.3,0-15-6.6-15-14.7C-173.5,302.6-169.5,297.2-163.8,295.1z"/>
	<path class="st1" d="M-193.6,326.6c1.8,0,3.3,1,4,2.6c4.7-0.8,13.7-3,19.7-9.3l2.2,1.9c0,0-6.6,8.8-21.6,10.4
		c-0.5,2-2.2,3.4-4.4,3.4c-2.5,0-4.5-2-4.5-4.5C-198,328.6-196,326.6-193.6,326.6z"/>
	<path class="st0" d="M-132.2,356.7c0,0,6.4,8.3,3.4,15.3c-3,7-43.7,2.2-54.1,16.2c0,0,1.4-17.3-5.9-22.1
		C-188.8,366.2-161.5,359.2-132.2,356.7z"/>
</g>
<g>
	<path class="st2" d="M-205.4,471.9c-8.2-0.9-11.1-1.5-2-10.3c1.9-1.8,3.6-4.2,4.1-6.9c0.1-0.4,0.4-4.7,0.2-4.6
		c-1.3,0.5-1-3.3-0.9-3.7c0.3-3.4,1-6.8,1.8-10.2c0.6-2.4,1.6-4.6,2.9-6.7c0.4-0.6,0.8-1.1,1.2-1.7c-1.8-4.8-2.2-10.2,2.4-13.8
		c21-16.7,58.3-11.6,72.5,11.7c6,9.9,5.7,22.2,2.8,33.1c-1.4,5.2-3.4,10.3-6.4,14.8c-1.7,2.6-8.3,7.3-8.9,10
		c-2.6,11.6,1.9,21.3,1.9,21.3l-45.8,5.5c0,0-2.4-8.8-2.5-9c-0.8-1.6-2.3-2.3-4-2.7c-5.4-1.2-14.6,0.7-17.3-5.6
		c-2.1-4.8,2.5-8.5-0.5-9c-3-0.5-0.7-4.4-0.7-4.4s-3.5-0.6-1.1-3.7C-203.3,473-205.4,471.9-205.4,471.9z"/>
	<path class="st1" d="M-163.8,442.1v-36.1c0-2.8,2.4-5.1,5.4-5.1c3,0,5.4,2.3,5.4,5.1v36.1c5.6,2.1,9.7,7.4,9.7,13.7
		c0,8.1-6.7,14.7-15,14.7c-8.3,0-15-6.6-15-14.7C-173.5,449.6-169.5,444.3-163.8,442.1z"/>
	<path class="st1" d="M-193.6,473.6c1.8,0,3.3,1,4,2.6c4.7-0.8,13.7-3,19.7-9.3l2.2,1.9c0,0-6.6,8.8-21.6,10.4
		c-0.5,2-2.2,3.4-4.4,3.4c-2.5,0-4.5-2-4.5-4.5C-198,475.6-196,473.6-193.6,473.6z"/>
	<path class="st2" d="M-132.2,503.7c0,0,6.4,8.3,3.4,15.3c-3,7-43.7,2.2-54.1,16.2c0,0,1.4-17.3-5.9-22.1
		C-188.8,513.2-161.5,506.3-132.2,503.7z"/>
</g>
</svg>
