<?xml version="1.0" encoding="utf-8"?>
<!-- Generator: Adobe Illustrator 19.1.0, SVG Export Plug-In . SVG Version: 6.00 Build 0)  -->
<svg version="1.1" id="Layer_1" xmlns="http://www.w3.org/2000/svg" xmlns:xlink="http://www.w3.org/1999/xlink" x="0px" y="0px"
	 viewBox="-233 253 144 288" style="enable-background:new -233 253 144 288;" xml:space="preserve">
<style type="text/css">
	.st0{fill:#231F20;}
	.st1{fill:#CC0000;}
</style>
<g>
	<g>
		<g>
			<path class="st0" d="M-127,256.3h-68.2c-16.2,0-29.5,13.2-29.5,29.5v68.2c0,16.2,13.2,29.5,29.5,29.5h35.8
				c-0.1-0.8,0-1.5-0.1-2.3h-35.8c-14.9,0-27.1-12.2-27.1-27.1V286c0-14.9,12.2-27.1,27.1-27.1h68.2c14.9,0,27.1,12.2,27.1,27.1
				v68.2c0,14.9-12.2,27.1-27.1,27.1h-13c-0.1,0.8,0,1.6,0,2.3h13c16.2,0,29.5-13.2,29.5-29.5v-68.2
				C-97.4,269.5-110.7,256.3-127,256.3z"/>
			<path class="st0" d="M-127,386h-15.7l-0.2-2.9c0-0.3,0.5,0.1,0.5-0.2c0-0.6-0.1-1.1,0-1.7l0.2-2.2h15.2
				c13.7,0,24.8-11.2,24.8-24.8v-68.2c0-13.7-11.2-24.8-24.8-24.8h-68.2c-13.7,0-24.8,11.2-24.8,24.8v68.2
				c0,13.7,11.2,24.8,24.8,24.8h38.1l0.2,2.2c0,0.4,0,0.8,0,1.2c0,0.3,0,0.7,0,1l0.3,2.6h-38.5c-17.6,0-31.9-14.3-31.9-31.9v-68.2
				c0-17.6,14.3-31.9,31.9-31.9h68.2c17.6,0,31.9,14.3,31.9,31.9v68.2C-95.1,371.7-109.4,386-127,386z"/>
		</g>
	</g>
	<g>
		<g>
			<path class="st0" d="M-137.2,298.9c1-0.9,2.7-1.3,5.2-1.1l13.4,0.2V277l-1.1-0.1c-0.8-0.1-18.9-1.7-27.2,2.3
				c-12.3,5.9-13.5,19.9-13.6,20.5l-0.8,13.2H-173v17.7h12.4v52.9h1.3c0.8,0,0,0,1,0l0.1-1.2v-54.1h-12.4v-13h11.5l0.9-15.4
				c0-0.1,1.2-13.2,12.3-18.6c6.7-3.2,20.9-2.4,25-2.2v16.3l-11-0.1c-3-0.2-5.3,0.4-6.8,1.7c-1.2,1.1-1.9,2.7-1.9,4.8l-0.3,12.4
				h14.2V328h-13.6v54.2l0,0c0,1.2-0.1,1.2,0.5,1.2h1.8v-53.1h13.6v-18.6h-14.1l0.3-10.1C-138.4,300.6-138,299.6-137.2,298.9z"/>
			<path class="st0" d="M-135.7,386h-4.2c-0.4,0-1.6,0-2.7,0c0,0-0.2-2.5-0.2-3.1v-2.7v-54.2h13.6v-9.1h-14.2l0.4-14.8
				c0.1-2.6,1-4.9,2.7-6.4c2-1.8,4.9-2.6,8.6-2.3l8.4,0.1v-11.8c-7.9-0.4-17.1,0-21.5,2.1c-9.7,4.7-11,16.5-11,16.6l-1,17.6H-168
				v8.2h12.4l-0.2,60h-6.9v-52.9h-12.4v-22.4h11.7l0.7-11c0.1-0.7,1.4-15.9,14.9-22.4c8.8-4.3,26.5-2.7,28.5-2.5l3.2,0.3v25.5
				l-15.8-0.2c-2.5-0.2-3.4,0.3-3.6,0.5c-0.1,0.1-0.4,0.3-0.4,1.3l-0.2,7.6h14.1v23.4h-13.6V386H-135.7z"/>
		</g>
	</g>
</g>
<g>
	<g>
		<g>
			<path class="st1" d="M-127,403.4h-68.2c-16.2,0-29.5,13.2-29.5,29.5v68.2c0,16.2,13.2,29.5,29.5,29.5h35.8
				c-0.1-0.8,0-1.5-0.1-2.3h-35.8c-14.9,0-27.1-12.2-27.1-27.1V433c0-14.9,12.2-27.1,27.1-27.1h68.2c14.9,0,27.1,12.2,27.1,27.1
				v68.2c0,14.9-12.2,27.1-27.1,27.1h-13c-0.1,0.8,0,1.6,0,2.3h13c16.2,0,29.5-13.2,29.5-29.5v-68.2
				C-97.4,416.7-110.7,403.4-127,403.4z"/>
			<path class="st1" d="M-127,533h-15.7l-0.2-2.9c0-0.3,0.5,0.1,0.5-0.2c0-0.6-0.1-1.1,0-1.7l0.2-2.2h15.2
				c13.7,0,24.8-11.2,24.8-24.8v-68.2c0-13.7-11.2-24.8-24.8-24.8h-68.2c-13.7,0-24.8,11.2-24.8,24.8v68.2
				c0,13.7,11.2,24.8,24.8,24.8h38.1l0.2,2.2c0,0.4,0,0.8,0,1.2c0,0.3,0,0.7,0,1l0.3,2.6h-38.5c-17.6,0-31.9-14.3-31.9-31.9v-68.2
				c0-17.6,14.3-31.9,31.9-31.9h68.2c17.6,0,31.9,14.3,31.9,31.9v68.2C-95.1,518.7-109.4,533-127,533z"/>
		</g>
	</g>
	<g>
		<g>
			<path class="st1" d="M-137.2,446c1-0.9,2.7-1.3,5.2-1.1l13.4,0.2v-20.9l-1.1-0.1c-0.8-0.1-18.9-1.7-27.2,2.3
				c-12.3,5.9-13.5,19.9-13.6,20.5l-0.8,13.2H-173v17.7h12.4v52.9h1.3c0.8,0,0,0,1,0l0.1-1.2v-54.1h-12.4v-12.9h11.5l0.9-15.4
				c0-0.1,1.2-13.2,12.3-18.6c6.7-3.2,20.9-2.4,25-2.2v16.3l-11-0.1c-3-0.2-5.3,0.4-6.8,1.7c-1.2,1.1-1.9,2.7-1.9,4.8l-0.3,12.4
				h14.2v13.9h-13.6v54.2l0,0c0,1.2-0.1,1.2,0.5,1.2h1.8v-53.1h13.6V459h-14.1l0.3-10.1C-138.4,447.6-138,446.6-137.2,446z"/>
			<path class="st1" d="M-135.7,533h-4.2c-0.4,0-1.6,0-2.7,0c0,0-0.2-2.5-0.2-3.1v-2.7v-54.2h13.6v-9.1h-14.2l0.4-14.8
				c0.1-2.6,1-4.9,2.7-6.4c2-1.8,4.9-2.6,8.6-2.3l8.4,0.1v-11.8c-7.9-0.4-17.1,0-21.5,2.1c-9.7,4.7-11,16.5-11,16.6l-1,17.6H-168
				v8.2h12.4l-0.2,60h-6.9v-52.9h-12.4v-22.4h11.7l0.7-11c0.1-0.7,1.4-15.9,14.9-22.4c8.8-4.3,26.5-2.7,28.5-2.5l3.2,0.3v25.5
				l-15.8-0.2c-2.5-0.2-3.4,0.3-3.6,0.5c-0.1,0.1-0.4,0.3-0.4,1.3l-0.2,7.6h14.1v23.4h-13.6V533H-135.7z"/>
		</g>
	</g>
</g>
</svg>
