<?xml version="1.0" encoding="utf-8"?>
<!-- Generator: Adobe Illustrator 19.1.0, SVG Export Plug-In . SVG Version: 6.00 Build 0)  -->
<svg version="1.1" id="Layer_1" xmlns="http://www.w3.org/2000/svg" xmlns:xlink="http://www.w3.org/1999/xlink" x="0px" y="0px"
	 viewBox="-233 253 144 288" style="enable-background:new -233 253 144 288;" xml:space="preserve">
<style type="text/css">
	.st0{fill:#CC0000;}
</style>
<g>
	<path d="M-225.4,253v131.4h128.9V253H-225.4z M-99.1,255.6v12.8h-123.8v-12.8H-99.1z M-99.1,270.9v95.7h-123.8v-95.7H-99.1z
		 M-222.9,381.9v-12.8h123.8v12.8H-222.9z"/>
	<path d="M-220.3,263.2h5.1c0.7,0,1.3-0.6,1.3-1.3s-0.6-1.3-1.3-1.3h-5.1c-0.7,0-1.3,0.6-1.3,1.3S-221,263.2-220.3,263.2z"/>
	<path d="M-199.8,263.2h5.2c0.7,0,1.3-0.6,1.3-1.3s-0.6-1.3-1.3-1.3h-5.2c-0.7,0-1.3,0.6-1.3,1.3S-200.4,263.2-199.8,263.2z"/>
	<path d="M-189.4,263.2h5.2c0.7,0,1.3-0.6,1.3-1.3s-0.6-1.3-1.3-1.3h-5.2c-0.7,0-1.3,0.6-1.3,1.3S-190.1,263.2-189.4,263.2z"/>
	<path d="M-210.1,263.2h5.2c0.7,0,1.3-0.6,1.3-1.3s-0.6-1.3-1.3-1.3h-5.2c-0.7,0-1.3,0.6-1.3,1.3S-210.8,263.2-210.1,263.2z"/>
	<path d="M-148.1,263.2h5.2c0.7,0,1.3-0.6,1.3-1.3s-0.6-1.3-1.3-1.3h-5.2c-0.7,0-1.3,0.6-1.3,1.3S-148.8,263.2-148.1,263.2z"/>
	<path d="M-137.8,263.2h5.2c0.7,0,1.3-0.6,1.3-1.3s-0.6-1.3-1.3-1.3h-5.2c-0.7,0-1.3,0.6-1.3,1.3S-138.5,263.2-137.8,263.2z"/>
	<path d="M-127.4,263.2h5.2c0.7,0,1.3-0.6,1.3-1.3s-0.6-1.3-1.3-1.3h-5.2c-0.7,0-1.3,0.6-1.3,1.3S-128.1,263.2-127.4,263.2z"/>
	<path d="M-168.8,263.2h5.2c0.7,0,1.3-0.6,1.3-1.3s-0.6-1.3-1.3-1.3h-5.2c-0.7,0-1.3,0.6-1.3,1.3S-169.5,263.2-168.8,263.2z"/>
	<path d="M-179.1,263.2h5.2c0.7,0,1.3-0.6,1.3-1.3s-0.6-1.3-1.3-1.3h-5.2c-0.7,0-1.3,0.6-1.3,1.3S-179.8,263.2-179.1,263.2z"/>
	<path d="M-158.4,263.2h5.2c0.7,0,1.3-0.6,1.3-1.3s-0.6-1.3-1.3-1.3h-5.2c-0.7,0-1.3,0.6-1.3,1.3S-159.1,263.2-158.4,263.2z"/>
	<path d="M-117.1,263.2h5.2c0.7,0,1.3-0.6,1.3-1.3s-0.6-1.3-1.3-1.3h-5.2c-0.7,0-1.3,0.6-1.3,1.3S-117.8,263.2-117.1,263.2z"/>
	<path d="M-106.8,263.2h5.1c0.7,0,1.3-0.6,1.3-1.3s-0.6-1.3-1.3-1.3h-5.1c-0.7,0-1.3,0.6-1.3,1.3S-107.5,263.2-106.8,263.2z"/>
	<path d="M-215.2,374.2h-5.1c-0.7,0-1.3,0.6-1.3,1.3s0.6,1.3,1.3,1.3h5.1c0.7,0,1.3-0.6,1.3-1.3S-214.5,374.2-215.2,374.2z"/>
	<path d="M-132.6,374.2h-5.2c-0.7,0-1.3,0.6-1.3,1.3s0.6,1.3,1.3,1.3h5.2c0.7,0,1.3-0.6,1.3-1.3S-131.9,374.2-132.6,374.2z"/>
	<path d="M-122.3,374.2h-5.2c-0.7,0-1.3,0.6-1.3,1.3s0.6,1.3,1.3,1.3h5.2c0.7,0,1.3-0.6,1.3-1.3S-121.6,374.2-122.3,374.2z"/>
	<path d="M-153.3,374.2h-5.2c-0.7,0-1.3,0.6-1.3,1.3s0.6,1.3,1.3,1.3h5.2c0.7,0,1.3-0.6,1.3-1.3S-152.6,374.2-153.3,374.2z"/>
	<path d="M-112,374.2h-5.2c-0.7,0-1.3,0.6-1.3,1.3s0.6,1.3,1.3,1.3h5.2c0.7,0,1.3-0.6,1.3-1.3S-111.2,374.2-112,374.2z"/>
	<path d="M-142.9,374.2h-5.2c-0.7,0-1.3,0.6-1.3,1.3s0.6,1.3,1.3,1.3h5.2c0.7,0,1.3-0.6,1.3-1.3S-142.2,374.2-142.9,374.2z"/>
	<path d="M-184.2,374.2h-5.2c-0.7,0-1.3,0.6-1.3,1.3s0.6,1.3,1.3,1.3h5.2c0.7,0,1.3-0.6,1.3-1.3S-183.5,374.2-184.2,374.2z"/>
	<path d="M-194.6,374.2h-5.2c-0.7,0-1.3,0.6-1.3,1.3s0.6,1.3,1.3,1.3h5.2c0.7,0,1.3-0.6,1.3-1.3S-193.9,374.2-194.6,374.2z"/>
	<path d="M-204.9,374.2h-5.2c-0.7,0-1.3,0.6-1.3,1.3s0.6,1.3,1.3,1.3h5.2c0.7,0,1.3-0.6,1.3-1.3S-204.2,374.2-204.9,374.2z"/>
	<path d="M-173.9,374.2h-5.2c-0.7,0-1.3,0.6-1.3,1.3s0.6,1.3,1.3,1.3h5.2c0.7,0,1.3-0.6,1.3-1.3S-173.2,374.2-173.9,374.2z"/>
	<path d="M-163.6,374.2h-5.2c-0.7,0-1.3,0.6-1.3,1.3s0.6,1.3,1.3,1.3h5.2c0.7,0,1.3-0.6,1.3-1.3S-162.9,374.2-163.6,374.2z"/>
	<path d="M-101.7,374.2h-5.1c-0.7,0-1.3,0.6-1.3,1.3s0.6,1.3,1.3,1.3h5.1c0.7,0,1.3-0.6,1.3-1.3S-101,374.2-101.7,374.2z"/>
	<path d="M-191,354.6c0.6,0.3,1.2,0.5,1.9,0.5s1.3-0.2,1.9-0.5l56.2-32.6c1.2-0.7,1.9-1.9,1.9-3.3s-0.7-2.6-1.9-3.3l0,0l-56.2-32.6
		c-1.2-0.7-2.7-0.7-3.8,0c-1.2,0.7-1.9,2-1.9,3.3v65.2C-192.9,352.7-192.2,354-191,354.6z M-190.4,286.1c0-0.5,0.2-0.9,0.6-1.1
		c0.2-0.1,0.4-0.2,0.6-0.2c0.2,0,0.4,0.1,0.6,0.2l56.2,32.6l0,0c0.4,0.2,0.6,0.6,0.6,1.1s-0.2,0.9-0.6,1.1l-56.2,32.6
		c-0.4,0.2-0.9,0.2-1.3,0c-0.4-0.2-0.6-0.7-0.6-1.1L-190.4,286.1L-190.4,286.1z"/>
</g>
<g>
	<path class="st0" d="M-225.4,399.4v131.4h128.9V399.4H-225.4z M-99.1,402v12.8h-123.8V402H-99.1z M-99.1,417.3v95.6h-123.8v-95.7
		h123.8V417.3z M-222.9,528.3v-12.8h123.8v12.8H-222.9z"/>
	<path class="st0" d="M-220.3,409.6h5.1c0.7,0,1.3-0.6,1.3-1.3s-0.6-1.3-1.3-1.3h-5.1c-0.7,0-1.3,0.6-1.3,1.3
		S-221,409.6-220.3,409.6z"/>
	<path class="st0" d="M-199.8,409.6h5.2c0.7,0,1.3-0.6,1.3-1.3s-0.6-1.3-1.3-1.3h-5.2c-0.7,0-1.3,0.6-1.3,1.3
		S-200.4,409.6-199.8,409.6z"/>
	<path class="st0" d="M-189.4,409.6h5.2c0.7,0,1.3-0.6,1.3-1.3s-0.6-1.3-1.3-1.3h-5.2c-0.7,0-1.3,0.6-1.3,1.3
		S-190.1,409.6-189.4,409.6z"/>
	<path class="st0" d="M-210.1,409.6h5.2c0.7,0,1.3-0.6,1.3-1.3s-0.6-1.3-1.3-1.3h-5.2c-0.7,0-1.3,0.6-1.3,1.3
		S-210.8,409.6-210.1,409.6z"/>
	<path class="st0" d="M-148.1,409.6h5.2c0.7,0,1.3-0.6,1.3-1.3s-0.6-1.3-1.3-1.3h-5.2c-0.7,0-1.3,0.6-1.3,1.3
		S-148.8,409.6-148.1,409.6z"/>
	<path class="st0" d="M-137.8,409.6h5.2c0.7,0,1.3-0.6,1.3-1.3s-0.6-1.3-1.3-1.3h-5.2c-0.7,0-1.3,0.6-1.3,1.3
		S-138.5,409.6-137.8,409.6z"/>
	<path class="st0" d="M-127.4,409.6h5.2c0.7,0,1.3-0.6,1.3-1.3s-0.6-1.3-1.3-1.3h-5.2c-0.7,0-1.3,0.6-1.3,1.3
		S-128.1,409.6-127.4,409.6z"/>
	<path class="st0" d="M-168.8,409.6h5.2c0.7,0,1.3-0.6,1.3-1.3s-0.6-1.3-1.3-1.3h-5.2c-0.7,0-1.3,0.6-1.3,1.3
		S-169.5,409.6-168.8,409.6z"/>
	<path class="st0" d="M-179.1,409.6h5.2c0.7,0,1.3-0.6,1.3-1.3s-0.6-1.3-1.3-1.3h-5.2c-0.7,0-1.3,0.6-1.3,1.3
		S-179.8,409.6-179.1,409.6z"/>
	<path class="st0" d="M-158.4,409.6h5.2c0.7,0,1.3-0.6,1.3-1.3s-0.6-1.3-1.3-1.3h-5.2c-0.7,0-1.3,0.6-1.3,1.3
		S-159.1,409.6-158.4,409.6z"/>
	<path class="st0" d="M-117.1,409.6h5.2c0.7,0,1.3-0.6,1.3-1.3s-0.6-1.3-1.3-1.3h-5.2c-0.7,0-1.3,0.6-1.3,1.3
		S-117.8,409.6-117.1,409.6z"/>
	<path class="st0" d="M-106.8,409.6h5.1c0.7,0,1.3-0.6,1.3-1.3s-0.6-1.3-1.3-1.3h-5.1c-0.7,0-1.3,0.6-1.3,1.3
		S-107.5,409.6-106.8,409.6z"/>
	<path class="st0" d="M-215.2,520.6h-5.1c-0.7,0-1.3,0.6-1.3,1.3c0,0.7,0.6,1.3,1.3,1.3h5.1c0.7,0,1.3-0.6,1.3-1.3
		C-214,521.2-214.5,520.6-215.2,520.6z"/>
	<path class="st0" d="M-132.6,520.6h-5.2c-0.7,0-1.3,0.6-1.3,1.3c0,0.7,0.6,1.3,1.3,1.3h5.2c0.7,0,1.3-0.6,1.3-1.3
		C-131.3,521.2-131.9,520.6-132.6,520.6z"/>
	<path class="st0" d="M-122.3,520.6h-5.2c-0.7,0-1.3,0.6-1.3,1.3c0,0.7,0.6,1.3,1.3,1.3h5.2c0.7,0,1.3-0.6,1.3-1.3
		C-121,521.2-121.6,520.6-122.3,520.6z"/>
	<path class="st0" d="M-153.3,520.6h-5.2c-0.7,0-1.3,0.6-1.3,1.3c0,0.7,0.6,1.3,1.3,1.3h5.2c0.7,0,1.3-0.6,1.3-1.3
		C-152,521.2-152.6,520.6-153.3,520.6z"/>
	<path class="st0" d="M-112,520.6h-5.2c-0.7,0-1.3,0.6-1.3,1.3c0,0.7,0.6,1.3,1.3,1.3h5.2c0.7,0,1.3-0.6,1.3-1.3
		C-110.7,521.2-111.2,520.6-112,520.6z"/>
	<path class="st0" d="M-142.9,520.6h-5.2c-0.7,0-1.3,0.6-1.3,1.3c0,0.7,0.6,1.3,1.3,1.3h5.2c0.7,0,1.3-0.6,1.3-1.3
		C-141.8,521.2-142.2,520.6-142.9,520.6z"/>
	<path class="st0" d="M-184.2,520.6h-5.2c-0.7,0-1.3,0.6-1.3,1.3c0,0.7,0.6,1.3,1.3,1.3h5.2c0.7,0,1.3-0.6,1.3-1.3
		C-183,521.2-183.5,520.6-184.2,520.6z"/>
	<path class="st0" d="M-194.6,520.6h-5.2c-0.7,0-1.3,0.6-1.3,1.3c0,0.7,0.6,1.3,1.3,1.3h5.2c0.7,0,1.3-0.6,1.3-1.3
		C-193.3,521.2-193.9,520.6-194.6,520.6z"/>
	<path class="st0" d="M-204.9,520.6h-5.2c-0.7,0-1.3,0.6-1.3,1.3c0,0.7,0.6,1.3,1.3,1.3h5.2c0.7,0,1.3-0.6,1.3-1.3
		C-203.6,521.2-204.2,520.6-204.9,520.6z"/>
	<path class="st0" d="M-173.9,520.6h-5.2c-0.7,0-1.3,0.6-1.3,1.3c0,0.7,0.6,1.3,1.3,1.3h5.2c0.7,0,1.3-0.6,1.3-1.3
		C-172.6,521.2-173.2,520.6-173.9,520.6z"/>
	<path class="st0" d="M-163.6,520.6h-5.2c-0.7,0-1.3,0.6-1.3,1.3c0,0.7,0.6,1.3,1.3,1.3h5.2c0.7,0,1.3-0.6,1.3-1.3
		C-162.3,521.2-162.9,520.6-163.6,520.6z"/>
	<path class="st0" d="M-101.7,520.6h-5.1c-0.7,0-1.3,0.6-1.3,1.3c0,0.7,0.6,1.3,1.3,1.3h5.1c0.7,0,1.3-0.6,1.3-1.3
		C-100.4,521.2-101,520.6-101.7,520.6z"/>
	<path class="st0" d="M-191,501c0.6,0.3,1.2,0.5,1.9,0.5s1.3-0.2,1.9-0.5l56.2-32.6c1.2-0.7,1.9-1.9,1.9-3.3s-0.7-2.6-1.9-3.3l0,0
		l-56.2-32.6c-1.2-0.7-2.7-0.7-3.8,0c-1.2,0.7-1.9,2-1.9,3.3v65.2C-192.9,499.1-192.2,500.3-191,501z M-190.4,432.5
		c0-0.5,0.2-0.9,0.6-1.1c0.2-0.1,0.4-0.2,0.6-0.2c0.2,0,0.4,0.1,0.6,0.2l56.2,32.6l0,0c0.4,0.2,0.6,0.6,0.6,1.1s-0.2,0.9-0.6,1.1
		l-56.2,32.6c-0.4,0.2-0.9,0.2-1.3,0c-0.4-0.2-0.6-0.7-0.6-1.1L-190.4,432.5L-190.4,432.5z"/>
</g>
</svg>
