<?xml version="1.0" encoding="utf-8"?>
<!-- Generator: Adobe Illustrator 19.1.0, SVG Export Plug-In . SVG Version: 6.00 Build 0)  -->
<svg version="1.1" id="Layer_1" xmlns="http://www.w3.org/2000/svg" xmlns:xlink="http://www.w3.org/1999/xlink" x="0px" y="0px"
	 viewBox="-233 253 144 288" style="enable-background:new -233 253 144 288;" xml:space="preserve">
<style type="text/css">
	.st0{fill:#231F20;}
	.st1{fill:#CC0000;}
</style>
<g>
	<g>
		<path class="st0" d="M-125.8,384.4h-69.5c-16.6,0-30.1-13.5-30.1-30.1v-69.5c0-16.6,13.5-30.1,30.1-30.1h69.5
			c16.6,0,30.1,13.5,30.1,30.1v69.5C-95.8,370.9-109.3,384.4-125.8,384.4z M-195.4,257.1c-15.3,0-27.7,12.4-27.7,27.7v69.5
			c0,15.2,12.4,27.7,27.7,27.7h69.5c15.2,0,27.7-12.4,27.7-27.7v-69.5c0-15.3-12.4-27.7-27.7-27.7H-195.4z"/>
		<path class="st0" d="M-125.8,386.1h-69.5c-17.5,0-31.8-14.3-31.8-31.8v-69.5c0-17.5,14.3-31.8,31.8-31.8h69.5
			c17.5,0,31.8,14.3,31.8,31.8v69.5C-94,371.9-108.3,386.1-125.8,386.1z M-195.4,258.9c-14.3,0-25.9,11.6-25.9,25.9v69.5
			c0,14.3,11.6,25.9,25.9,25.9h69.5c14.3,0,25.9-11.6,25.9-25.9v-69.5c0-14.3-11.6-25.9-25.9-25.9H-195.4z"/>
	</g>
</g>
<g>
	<g>
		<path class="st0" d="M-160.6,347.9c-17.5,0-31.7-14.2-31.7-31.7s14.2-31.7,31.7-31.7s31.7,14.2,31.7,31.7
			S-143.1,347.9-160.6,347.9z M-160.6,289.4c-14.8,0-26.9,12-26.9,26.9c0,14.8,12,26.9,26.9,26.9c14.8,0,26.9-12,26.9-26.9
			C-133.7,301.4-145.8,289.4-160.6,289.4z"/>
	</g>
</g>
<g>
	<g>
		<path class="st0" d="M-160.6,335.7c-10.7,0-19.4-8.7-19.4-19.4c0-10.7,8.7-19.4,19.4-19.4s19.4,8.7,19.4,19.4
			S-149.9,335.7-160.6,335.7z M-160.6,306.4c-5.4,0-9.8,4.4-9.8,9.8c0,5.4,4.4,9.8,9.8,9.8c5.4,0,9.8-4.4,9.8-9.8
			C-150.8,310.8-155.2,306.4-160.6,306.4z"/>
	</g>
</g>
<g>
	<g>
		<rect x="-211.7" y="259.5" class="st0" width="4.8" height="29.6"/>
	</g>
</g>
<g>
	<g>
		<rect x="-201.8" y="255.9" class="st0" width="4.8" height="33.2"/>
	</g>
</g>
<g>
	<g>
		<rect x="-192.3" y="255" class="st0" width="4.8" height="34.1"/>
	</g>
</g>
<g>
	<g>
		<rect x="-224.2" y="296.2" class="st0" width="40.3" height="4.8"/>
	</g>
</g>
<g>
	<g>
		<rect x="-136" y="296.2" class="st0" width="39" height="4.8"/>
	</g>
</g>
<g>
	<g>
		<path class="st0" d="M-129.5,270.8h10.1c0,0,4.1-0.2,4.2,3.5c0.2,3.8,0,10.1,0,10.1s0.3,3-4.7,2.9c-4.3,0-9.6,0-9.6,0
			s-4,0.4-4-2.9s0-10.9,0-10.9S-133.5,270.8-129.5,270.8z"/>
	</g>
</g>
<g>
	<g>
		<path class="st1" d="M-125.8,530.2h-69.5c-16.6,0-30.1-13.5-30.1-30.1v-69.5c0-16.6,13.5-30.1,30.1-30.1h69.5
			c16.6,0,30.1,13.5,30.1,30.1v69.5C-95.8,516.7-109.3,530.2-125.8,530.2z M-195.4,402.9c-15.3,0-27.7,12.4-27.7,27.7v69.5
			c0,15.2,12.4,27.7,27.7,27.7h69.5c15.2,0,27.7-12.4,27.7-27.7v-69.5c0-15.3-12.4-27.7-27.7-27.7H-195.4z"/>
		<path class="st1" d="M-125.8,531.9h-69.5c-17.5,0-31.8-14.3-31.8-31.8v-69.5c0-17.5,14.3-31.8,31.8-31.8h69.5
			c17.5,0,31.8,14.3,31.8,31.8v69.5C-94,517.6-108.3,531.9-125.8,531.9z M-195.4,404.6c-14.3,0-25.9,11.6-25.9,25.9V500
			c0,14.3,11.6,25.9,25.9,25.9h69.5c14.3,0,25.9-11.6,25.9-25.9v-69.5c0-14.3-11.6-25.9-25.9-25.9H-195.4z"/>
	</g>
</g>
<g>
	<g>
		<path class="st1" d="M-160.6,493.7c-17.5,0-31.7-14.2-31.7-31.7s14.2-31.7,31.7-31.7s31.7,14.2,31.7,31.7
			S-143.1,493.7-160.6,493.7z M-160.6,435.2c-14.8,0-26.9,12-26.9,26.9c0,14.8,12,26.9,26.9,26.9c14.8,0,26.9-12,26.9-26.9
			C-133.7,447.2-145.8,435.2-160.6,435.2z"/>
	</g>
</g>
<g>
	<g>
		<path class="st1" d="M-160.6,481.5c-10.7,0-19.4-8.7-19.4-19.4s8.7-19.4,19.4-19.4s19.4,8.7,19.4,19.4
			C-141.2,472.7-149.9,481.5-160.6,481.5z M-160.6,452.2c-5.4,0-9.8,4.4-9.8,9.8c0,5.4,4.4,9.8,9.8,9.8c5.4,0,9.8-4.4,9.8-9.8
			C-150.8,456.6-155.2,452.2-160.6,452.2z"/>
	</g>
</g>
<g>
	<g>
		<rect x="-211.7" y="405.3" class="st1" width="4.8" height="29.6"/>
	</g>
</g>
<g>
	<g>
		<rect x="-201.8" y="401.7" class="st1" width="4.8" height="33.2"/>
	</g>
</g>
<g>
	<g>
		<rect x="-192.3" y="400.8" class="st1" width="4.8" height="34.1"/>
	</g>
</g>
<g>
	<g>
		<rect x="-224.2" y="442" class="st1" width="40.3" height="4.8"/>
	</g>
</g>
<g>
	<g>
		<rect x="-136" y="442" class="st1" width="39" height="4.8"/>
	</g>
</g>
<g>
	<g>
		<path class="st1" d="M-129.5,416.6h10.1c0,0,4.1-0.2,4.2,3.5c0.2,3.8,0,10.1,0,10.1s0.3,3-4.7,2.9c-4.3,0-9.6,0-9.6,0
			s-4,0.4-4-2.9s0-10.9,0-10.9S-133.5,416.6-129.5,416.6z"/>
	</g>
</g>
</svg>
