<?xml version="1.0" encoding="utf-8"?>
<!-- Generator: Adobe Illustrator 19.1.0, SVG Export Plug-In . SVG Version: 6.00 Build 0)  -->
<svg version="1.1" id="Layer_1" xmlns="http://www.w3.org/2000/svg" xmlns:xlink="http://www.w3.org/1999/xlink" x="0px" y="0px"
	 viewBox="-233 253 144 288" style="enable-background:new -233 253 144 288;" xml:space="preserve">
<style type="text/css">
	.st0{fill:#231F20;stroke:#231F20;stroke-width:2;stroke-miterlimit:10;}
	.st1{fill:#CC0000;stroke:#CC0000;stroke-width:2;stroke-miterlimit:10;}
</style>
<g>
	<path class="st0" d="M-191,377c-17,0-36.3-8-38.4-8.9l-1.3-0.6c0,0-0.5-0.2-0.6-0.7c-0.1-0.4,0-0.8,0-0.8c0.2-0.8,0.6-0.9,3.8-1.1
		c5.1-0.4,15.6-1.8,24.6-5.1c6.4-2.3,11.7-5.1,15.5-7.8c-2.3,0.3-5,0.3-8.4-0.7c-14.2-2.8-20.2-12.1-21.6-14.3l-0.6-0.9
		c0,0-1.4-2.5-0.8-3.2c0.6-0.7,1.7-0.6,2.5-0.6c2,0.1,5.7,0.4,9.4,0.3c3.5-0.1,6.4-0.7,8.4-1.4l-2.7-0.1
		c-7.7-0.7-16.2-6.5-19.8-10.5c-4.3-4.8-8.8-14.4-7.5-16.3c0.3-0.5,0.9-0.7,1.5-0.5c7.2,2.6,13,3.2,16.4,3.3
		c-4.6-2.8-12.6-8.6-16.2-16.5c-5.1-11.3,0.1-21.9,0.1-21.9s1-1.9,1.9-2c0.9-0.1,2.2,2.8,2.2,2.8c0,0.1,3.5,7,9.9,12
		c6.4,5.1,18.7,11.4,26.8,13.9c6.3,1.9,17.2,2.9,21.4,3.2c-0.7-2-1.6-5.7-1.5-11.5c0.1-5.6,2.3-19.2,19.8-25.2
		c13.5-4.6,26.5,6.7,29.3,9.3l18-7l-13,15l18-3.4l-15.5,13.4c0.4,4,1.7,26.9-11.5,50.7c-4.4,8-22.5,35.3-68.5,36.9
		C-189.8,377-190.4,377-191,377z M-225.6,366.8c7.5,2.6,23.7,7.5,36.2,7.1c44.8-1.5,62.4-27.1,66.7-34.8
		c14.1-25.5,11.2-49.8,11.1-50.1l-0.1-0.6l12-9.6l-15.3,2l10.8-12.7l-13.3,5.8l-0.5-0.5c-0.1-0.1-14-13.9-27.6-9.3
		c-15.7,5.3-18.2,16.8-18.3,23.2c-0.2,8.3,1.3,11.6,1.7,12.6l0.5,1.2l-1.2-0.1c-0.6,0-13-0.3-23.6-3.4c-9.6-2.8-20.7-9-27.5-14.3
		c-5-4-8.9-9.4-10.7-12.2c-1.4,3.3-3.7,10.9-0.2,18.7c4.7,10.4,18.3,17.3,18.5,17.3c0,0,2.5,0.8,3,1.5c0.7,1-1.9,0.7-4.1,0.5
		c-1.5-0.1-6,0-19.1-2.9c0.4,2.7,3.9,9.3,7.7,13c3.5,3.4,13.1,9,18.3,9.8c5.3,0.9,8.8,0.7,9.3,1.7c0.5,1.1,0.2,1.2-2.5,2
		c-2.9,0.9-5,1.2-12.9,1.8c-4.5,0.4-7.1,0.3-8.7,0.2c2.4,3.7,8.5,11.5,19.7,13.7c10.6,2.5,13.3-0.1,13.9,0.7c0.6,0.8-1,2.3-1,2.3
		c-0.9,1-3.4,4.4-16.8,9.5C-208,364.3-220,366.3-225.6,366.8z"/>
</g>
<g>
	<path class="st1" d="M-191,523.4c-17,0-36.3-8-38.4-8.9l-1.3-0.6c0,0-0.5-0.2-0.6-0.7c-0.1-0.4,0-0.8,0-0.8
		c0.2-0.8,0.6-0.9,3.8-1.1c5.1-0.4,15.6-1.8,24.6-5.1c6.4-2.3,11.7-5.1,15.5-7.8c-2.3,0.3-5,0.3-8.4-0.7
		c-14.2-2.8-20.2-12.1-21.6-14.3l-0.6-0.9c0,0-1.4-2.5-0.8-3.2c0.6-0.7,1.7-0.6,2.5-0.6c2,0.1,5.7,0.4,9.4,0.3
		c3.5-0.1,6.4-0.7,8.4-1.4l-2.7-0.1c-7.7-0.7-16.2-6.5-19.8-10.5c-4.3-4.8-8.8-14.4-7.5-16.3c0.3-0.5,0.9-0.7,1.5-0.5
		c7.2,2.6,13,3.2,16.4,3.3c-4.6-2.8-12.6-8.6-16.2-16.5c-5.1-11.3,0.1-21.9,0.1-21.9s1-1.9,1.9-2c0.9-0.1,2.2,2.8,2.2,2.8
		c0,0.1,3.5,7,9.9,12c6.4,5.1,18.7,11.4,26.8,13.9c6.3,1.9,17.2,2.9,21.4,3.2c-0.7-2-1.6-5.7-1.5-11.5c0.1-5.6,2.3-19.2,19.8-25.2
		c13.5-4.6,26.5,6.7,29.3,9.3l18-7l-13,15l18-3.4l-15.5,13.4c0.4,4,1.7,26.9-11.5,50.7c-4.4,8-22.5,35.3-68.5,36.9
		C-189.8,523.4-190.4,523.4-191,523.4z M-225.6,513.2c7.5,2.6,23.7,7.5,36.2,7.1c44.8-1.5,62.4-27.1,66.7-34.8
		c14.1-25.5,11.2-49.8,11.1-50.1l-0.1-0.6l12-9.6l-15.3,2l10.8-12.7l-13.3,5.8l-0.5-0.5c-0.1-0.1-14-13.9-27.6-9.3
		c-15.7,5.3-18.2,16.8-18.3,23.2c-0.2,8.3,1.3,11.6,1.7,12.6l0.5,1.2l-1.2-0.1c-0.6,0-13-0.3-23.6-3.4c-9.6-2.8-20.7-9-27.5-14.3
		c-5-4-8.9-9.4-10.7-12.2c-1.4,3.3-3.7,10.9-0.2,18.7c4.7,10.4,18.3,17.3,18.5,17.3c0,0,2.5,0.8,3,1.5c0.7,1-1.9,0.7-4.1,0.5
		c-1.5-0.1-6,0-19.1-2.9c0.4,2.7,3.9,9.3,7.7,13c3.5,3.4,13.1,9,18.3,9.8c5.3,0.9,8.8,0.7,9.3,1.7c0.5,1.1,0.2,1.2-2.5,2
		c-2.9,0.9-5,1.2-12.9,1.8c-4.5,0.4-7.1,0.3-8.7,0.2c2.4,3.7,8.5,11.5,19.7,13.7c10.6,2.5,13.3-0.1,13.9,0.7c0.6,0.8-1,2.3-1,2.3
		c-0.9,1-3.4,4.4-16.8,9.5C-208,510.6-220,512.7-225.6,513.2z"/>
</g>
</svg>
