<?xml version="1.0" encoding="utf-8"?>
<!-- Generator: Adobe Illustrator 19.1.0, SVG Export Plug-In . SVG Version: 6.00 Build 0)  -->
<svg version="1.1" id="Layer_1" xmlns="http://www.w3.org/2000/svg" xmlns:xlink="http://www.w3.org/1999/xlink" x="0px" y="0px"
	 viewBox="-233 253 144 288" style="enable-background:new -233 253 144 288;" xml:space="preserve">
<style type="text/css">
	.st0{fill:#CC0000;}
</style>
<g id="youtube_1_">
	<g>
		<path class="st0" d="M-106.9,433.4h-50.6c-9.3,0-16.9,7.6-16.9,16.9v28.1c0,9.3,7.6,16.9,16.9,16.9h50.6c9.3,0,16.9-7.6,16.9-16.9
			v-28.1C-90,441-97.6,433.4-106.9,433.4z M-93.7,478.4c0,7.2-5.9,13.1-13.1,13.1h-50.6c-7.2,0-13.1-5.9-13.1-13.1v-28.1
			c0-7.2,5.9-13.1,13.1-13.1h50.6c7.2,0,13.1,5.9,13.1,13.1V478.4z"/>
	</g>
</g>
<g>
	<path class="st0" d="M-230.6,445c0.1,0,0.3-0.1,0.4-0.1c1.6,0,3.2,0,4.8,0c0.3,0,0.4,0.1,0.5,0.4c0.9,3.7,1.9,7.4,2.8,11.1
		c0.2,0.8,0.4,1.7,0.6,2.5c0,0.2,0.2,0.3,0.3,0.4c0.1-0.1,0.2-0.3,0.3-0.4c0.7-2.9,1.4-5.8,2.1-8.6c0.4-1.7,0.8-3.3,1.2-5
		c0.1-0.3,0.2-0.4,0.6-0.4c1.6,0,3.1,0,4.7,0c0.1,0,0.3,0,0.5,0c-0.3,0.9-0.5,1.7-0.7,2.5c-0.7,2.2-1.4,4.5-2.1,6.7
		c-0.8,2.5-1.5,4.9-2.3,7.4c-0.5,1.5-0.9,3-1.4,4.5c-0.1,0.2-0.1,0.4-0.1,0.5c0,4.7,0,9.3,0,14c0,0.2,0,0.4,0,0.6
		c-1.8,0-3.6,0-5.5,0c0-0.2,0-0.3,0-0.5c0-4.2,0-8.5,0-12.7c0-0.7-0.2-1.4-0.4-2.1c-0.8-2.6-1.6-5.1-2.3-7.7c-0.6-2-1.2-4.1-1.9-6.1
		c-0.7-2.2-1.3-4.3-2-6.5C-230.5,445.4-230.6,445.3-230.6,445C-230.6,445.1-230.6,445.1-230.6,445z"/>
	<path class="st0" d="M-125.4,444.6c0,3.8,0,7.6,0,11.6c0.8-0.8,1.5-1.5,2.4-2c2.2-1.1,5.2-0.4,6.2,2.4c0.3,0.9,0.5,1.8,0.5,2.7
		c0.1,3.7,0.1,7.4,0.1,11.1c0,2,0,4,0,6c0,1.3-0.3,2.5-1.1,3.5c-0.7,1-1.7,1.5-3,1.6c-1.5,0.1-2.9-0.2-4-1.2
		c-0.4-0.3-0.7-0.6-1.1-1.1c0,0.7,0,1.3,0,1.9c-1.7,0-3.4,0-5.1,0c0-12.2,0-24.4,0-36.6C-128.8,444.6-127.1,444.6-125.4,444.6z
		 M-125.4,467.7c0,2.6,0,5.3,0,7.9c0,0.2,0,0.5,0.1,0.5c0.4,0.3,0.9,0.7,1.4,0.9c1.4,0.5,2.5-0.2,2.5-1.7c0-4.9,0-9.8,0-14.7
		c0-0.8-0.2-1.5-0.8-2c-0.8-0.6-2-0.4-2.8,0.3c-0.3,0.3-0.4,0.5-0.4,1C-125.4,462.6-125.4,465.2-125.4,467.7z"/>
	<path class="st0" d="M-107.3,468.4c0,0.5,0,0.9,0,1.2c0,1.5-0.1,3,0,4.4c0,0.7,0.2,1.5,0.5,2.2c0.1,0.3,0.5,0.6,0.8,0.7
		c1.8,0.4,2.8,0,3-1.9c0.1-1.1,0.1-2.2,0.1-3.3c0-0.2,0-0.3,0-0.5c0.1,0,0.2,0,0.3,0c1.5,0,3,0,4.5,0c0.3,0,0.4,0.1,0.4,0.4
		c0,1.7,0.1,3.5-0.3,5.2c-0.7,3-2.7,4.8-5.8,5.1c-1.5,0.1-2.9,0.1-4.2-0.4c-1.6-0.7-2.7-1.8-3.4-3.4c-0.6-1.3-0.8-2.7-0.8-4.2
		c0-4.1,0-8.3,0-12.4c0-1.2,0.1-2.4,0.6-3.6c0.9-2,2.3-3.3,4.3-4c1.9-0.6,3.9-0.6,5.8,0.2c1.6,0.7,2.7,1.9,3.3,3.6
		c0.3,0.9,0.5,1.9,0.5,2.8c0.1,2.5,0.1,5.1,0.1,7.6c0,0.4-0.1,0.5-0.5,0.5c-2.8,0-5.6,0-8.5,0C-106.9,468.4-107.1,468.4-107.3,468.4
		z M-107.4,463.8c1.6,0,3,0,4.5,0c-0.1-1.3-0.1-2.6-0.3-3.9c-0.1-0.9-0.7-1.5-2.1-1.5c-1,0-1.7,0.5-1.8,1.5
		C-107.3,461.2-107.3,462.5-107.4,463.8z"/>
	<path class="st0" d="M-140.3,454c1.7,0,3.3,0,5,0c0,9,0,18,0,27.1c-1.6,0-3.3,0-5,0c0-0.9,0-1.9,0-2.7c-0.9,0.7-1.7,1.5-2.6,2.1
		c-1.1,0.7-2.3,1.1-3.6,1c-1.3-0.1-2.4-1-2.7-2.4c-0.2-0.7-0.3-1.3-0.3-2c0-7.5,0-15,0-22.5c0-0.1,0-0.3,0-0.4c0.1,0,0.2,0,0.3,0
		c1.4,0,2.9,0,4.3,0c0.4,0,0.4,0.2,0.4,0.5c0,5.5,0,10.9,0,16.4c0,1.3,0,2.7,0,4c0,0.8,0.4,1.3,1.1,1.4c0.3,0,0.7-0.1,1-0.2
		c0.8-0.4,1.4-0.9,1.9-1.6c0.1-0.1,0.1-0.4,0.1-0.6c0-6.4,0-12.8,0-19.2C-140.3,454.5-140.3,454.3-140.3,454z"/>
	<path class="st0" d="M-155.1,450.2c0,10.3,0,20.6,0,30.9c-1.9,0-3.7,0-5.6,0c0-10.3,0-20.6,0-30.9c-0.2,0-0.4,0-0.5,0
		c-1.6,0-3.2,0-4.9,0c-0.3,0-0.4-0.1-0.4-0.4c0-1.6,0-3.2,0-4.9c0-0.4,0.1-0.4,0.4-0.4c5.4,0,10.9,0,16.3,0c0.3,0,0.5,0.1,0.4,0.4
		c0,1.6,0,3.2,0,4.9c0,0.3-0.1,0.4-0.4,0.4c-1.6,0-3.2,0-4.8,0C-154.8,450.2-154.9,450.2-155.1,450.2z"/>
	<path class="st0" d="M-212.1,467.5c0-2.4,0-4.8,0-7.2c0-2.8,1.3-4.8,3.8-5.8c2.3-1,4.7-1,7,0.2c1.8,0.9,2.9,2.5,3.3,4.5
		c0.1,0.5,0.2,1,0.2,1.6c0,4.7,0,9.4,0,14.2c0,1.6-0.4,3.2-1.5,4.5c-0.9,1.1-2.1,1.9-3.5,2.2c-1.9,0.4-3.8,0.4-5.6-0.4
		c-1.2-0.5-2.1-1.4-2.8-2.5c-0.7-1.2-1-2.4-1-3.8C-212.1,472.4-212.1,470-212.1,467.5z M-202.8,467.7c0-2.5,0-5,0-7.5
		c0-0.3-0.1-0.7-0.3-1c-0.6-0.8-1.4-0.9-2.3-0.8c-1,0.1-1.6,0.9-1.6,1.8c0,5,0,10,0,14.9c0,0.5,0.2,1,0.5,1.3
		c0.5,0.7,1.5,0.9,2.4,0.6c0.9-0.3,1.4-1.1,1.4-2C-202.8,472.7-202.8,470.2-202.8,467.7z"/>
	<path class="st0" d="M-184.3,454.5c0.2,0,0.4,0,0.6,0c1.2,0,2.5,0,3.7,0c0.6,0,0.6,0,0.6,0.6c0,3.7,0,7.4,0,11.2
		c0,4.7,0,9.5,0,14.2c0,0.2,0,0.4,0,0.6c-1.6,0-3.2,0-4.9,0c0-0.9,0-1.9,0-2.7c-0.4,0.3-0.7,0.6-1.1,1c-1.1,1-2.2,1.8-3.6,2.1
		c-2.4,0.5-4-0.5-4.4-3c-0.1-0.7-0.1-1.5-0.1-2.3c0-7,0-14,0-21c0-0.2,0-0.4,0-0.6c1.6,0,3.2,0,4.9,0c0,0.2,0,0.4,0,0.6
		c0,6.5,0,13.1,0,19.6c0,0.4,0.1,0.9,0.2,1.3c0.2,0.6,0.8,0.9,1.4,0.8c1.1-0.3,1.9-1.1,2.6-1.9c0.1-0.1,0.1-0.3,0.1-0.5
		c0-6.4,0-12.8,0-19.2C-184.3,454.9-184.3,454.8-184.3,454.5z"/>
</g>
<g id="youtube_2_">
	<g>
		<path d="M-106.9,286.9h-50.6c-9.3,0-16.9,7.6-16.9,16.9v28.1c0,9.3,7.6,16.9,16.9,16.9h50.6c9.3,0,16.9-7.6,16.9-16.9v-28.1
			C-90,294.5-97.6,286.9-106.9,286.9z M-93.7,331.9c0,7.2-5.9,13.1-13.1,13.1h-50.6c-7.2,0-13.1-5.9-13.1-13.1v-28.1
			c0-7.2,5.9-13.1,13.1-13.1h50.6c7.2,0,13.1,5.9,13.1,13.1V331.9z"/>
	</g>
</g>
<g>
	<path d="M-230.6,298.5c0.1,0,0.3-0.1,0.4-0.1c1.6,0,3.2,0,4.8,0c0.3,0,0.4,0.1,0.5,0.4c0.9,3.7,1.9,7.4,2.8,11.1
		c0.2,0.8,0.4,1.7,0.6,2.5c0,0.2,0.2,0.3,0.3,0.4c0.1-0.1,0.2-0.3,0.3-0.4c0.7-2.9,1.4-5.8,2.1-8.6c0.4-1.7,0.8-3.3,1.2-5
		c0.1-0.3,0.2-0.4,0.6-0.4c1.6,0,3.1,0,4.7,0c0.1,0,0.3,0,0.5,0c-0.3,0.9-0.5,1.7-0.7,2.5c-0.7,2.2-1.4,4.5-2.1,6.7
		c-0.8,2.5-1.5,4.9-2.3,7.4c-0.5,1.5-0.9,3-1.4,4.5c-0.1,0.2-0.1,0.4-0.1,0.5c0,4.7,0,9.3,0,14c0,0.2,0,0.4,0,0.6
		c-1.8,0-3.6,0-5.5,0c0-0.2,0-0.3,0-0.5c0-4.2,0-8.5,0-12.7c0-0.7-0.2-1.4-0.4-2.1c-0.8-2.6-1.6-5.1-2.3-7.7c-0.6-2-1.2-4.1-1.9-6.1
		c-0.7-2.2-1.3-4.3-2-6.5C-230.5,298.9-230.6,298.8-230.6,298.5C-230.6,298.6-230.6,298.6-230.6,298.5z"/>
	<path d="M-125.4,298.1c0,3.8,0,7.6,0,11.6c0.8-0.8,1.5-1.5,2.4-2c2.2-1.1,5.2-0.4,6.2,2.4c0.3,0.9,0.5,1.8,0.5,2.7
		c0.1,3.7,0.1,7.4,0.1,11.1c0,2,0,4,0,6c0,1.3-0.3,2.5-1.1,3.5c-0.7,1-1.7,1.5-3,1.6c-1.5,0.1-2.9-0.2-4-1.2
		c-0.4-0.3-0.7-0.6-1.1-1.1c0,0.7,0,1.3,0,1.9c-1.7,0-3.4,0-5.1,0c0-12.2,0-24.4,0-36.6C-128.8,298.1-127.1,298.1-125.4,298.1z
		 M-125.4,321.2c0,2.6,0,5.3,0,7.9c0,0.2,0,0.5,0.1,0.5c0.4,0.3,0.9,0.7,1.4,0.9c1.4,0.5,2.5-0.2,2.5-1.7c0-4.9,0-9.8,0-14.7
		c0-0.8-0.2-1.5-0.8-2c-0.8-0.6-2-0.4-2.8,0.3c-0.3,0.3-0.4,0.5-0.4,1C-125.4,316.1-125.4,318.7-125.4,321.2z"/>
	<path d="M-107.3,321.9c0,0.5,0,0.9,0,1.2c0,1.5-0.1,3,0,4.4c0,0.7,0.2,1.5,0.5,2.2c0.1,0.3,0.5,0.6,0.8,0.7c1.8,0.4,2.8,0,3-1.9
		c0.1-1.1,0.1-2.2,0.1-3.3c0-0.2,0-0.3,0-0.5c0.1,0,0.2,0,0.3,0c1.5,0,3,0,4.5,0c0.3,0,0.4,0.1,0.4,0.4c0,1.7,0.1,3.5-0.3,5.2
		c-0.7,3-2.7,4.8-5.8,5.1c-1.5,0.1-2.9,0.1-4.2-0.4c-1.6-0.7-2.7-1.8-3.4-3.4c-0.6-1.3-0.8-2.7-0.8-4.2c0-4.1,0-8.3,0-12.4
		c0-1.2,0.1-2.4,0.6-3.6c0.9-2,2.3-3.3,4.3-4c1.9-0.6,3.9-0.6,5.8,0.2c1.6,0.7,2.7,1.9,3.3,3.6c0.3,0.9,0.5,1.9,0.5,2.8
		c0.1,2.5,0.1,5.1,0.1,7.6c0,0.4-0.1,0.5-0.5,0.5c-2.8,0-5.6,0-8.5,0C-106.9,321.9-107.1,321.9-107.3,321.9z M-107.4,317.3
		c1.6,0,3,0,4.5,0c-0.1-1.3-0.1-2.6-0.3-3.9c-0.1-0.9-0.7-1.5-2.1-1.5c-1,0-1.7,0.5-1.8,1.5C-107.3,314.7-107.3,316-107.4,317.3z"/>
	<path d="M-140.3,307.5c1.7,0,3.3,0,5,0c0,9,0,18,0,27.1c-1.6,0-3.3,0-5,0c0-0.9,0-1.9,0-2.7c-0.9,0.7-1.7,1.5-2.6,2.1
		c-1.1,0.7-2.3,1.1-3.6,1c-1.3-0.1-2.4-1-2.7-2.4c-0.2-0.7-0.3-1.3-0.3-2c0-7.5,0-15,0-22.5c0-0.1,0-0.3,0-0.4c0.1,0,0.2,0,0.3,0
		c1.4,0,2.9,0,4.3,0c0.4,0,0.4,0.2,0.4,0.5c0,5.5,0,10.9,0,16.4c0,1.3,0,2.7,0,4c0,0.8,0.4,1.3,1.1,1.4c0.3,0,0.7-0.1,1-0.2
		c0.8-0.4,1.4-0.9,1.9-1.6c0.1-0.1,0.1-0.4,0.1-0.6c0-6.4,0-12.8,0-19.2C-140.3,308-140.3,307.8-140.3,307.5z"/>
	<path d="M-155.1,303.7c0,10.3,0,20.6,0,30.9c-1.9,0-3.7,0-5.6,0c0-10.3,0-20.6,0-30.9c-0.2,0-0.4,0-0.5,0c-1.6,0-3.2,0-4.9,0
		c-0.3,0-0.4-0.1-0.4-0.4c0-1.6,0-3.2,0-4.9c0-0.4,0.1-0.4,0.4-0.4c5.4,0,10.9,0,16.3,0c0.3,0,0.5,0.1,0.4,0.4c0,1.6,0,3.2,0,4.9
		c0,0.3-0.1,0.4-0.4,0.4c-1.6,0-3.2,0-4.8,0C-154.8,303.7-154.9,303.7-155.1,303.7z"/>
	<path d="M-212.1,321c0-2.4,0-4.8,0-7.2c0-2.8,1.3-4.8,3.8-5.8c2.3-1,4.7-1,7,0.2c1.8,0.9,2.9,2.5,3.3,4.5c0.1,0.5,0.2,1,0.2,1.6
		c0,4.7,0,9.4,0,14.2c0,1.6-0.4,3.2-1.5,4.5c-0.9,1.1-2.1,1.9-3.5,2.2c-1.9,0.4-3.8,0.4-5.6-0.4c-1.2-0.5-2.1-1.4-2.8-2.5
		c-0.7-1.2-1-2.4-1-3.8C-212.1,325.9-212.1,323.5-212.1,321z M-202.8,321.2c0-2.5,0-5,0-7.5c0-0.3-0.1-0.7-0.3-1
		c-0.6-0.8-1.4-0.9-2.3-0.8c-1,0.1-1.6,0.9-1.6,1.8c0,5,0,10,0,14.9c0,0.5,0.2,1,0.5,1.3c0.5,0.7,1.5,0.9,2.4,0.6
		c0.9-0.3,1.4-1.1,1.4-2C-202.8,326.2-202.8,323.7-202.8,321.2z"/>
	<path d="M-184.3,308c0.2,0,0.4,0,0.6,0c1.2,0,2.5,0,3.7,0c0.6,0,0.6,0,0.6,0.6c0,3.7,0,7.4,0,11.2c0,4.7,0,9.5,0,14.2
		c0,0.2,0,0.4,0,0.6c-1.6,0-3.2,0-4.9,0c0-0.9,0-1.9,0-2.7c-0.4,0.3-0.7,0.6-1.1,1c-1.1,1-2.2,1.8-3.6,2.1c-2.4,0.5-4-0.5-4.4-3
		c-0.1-0.7-0.1-1.5-0.1-2.3c0-7,0-14,0-21c0-0.2,0-0.4,0-0.6c1.6,0,3.2,0,4.9,0c0,0.2,0,0.4,0,0.6c0,6.5,0,13.1,0,19.6
		c0,0.4,0.1,0.9,0.2,1.3c0.2,0.6,0.8,0.9,1.4,0.8c1.1-0.3,1.9-1.1,2.6-1.9c0.1-0.1,0.1-0.3,0.1-0.5c0-6.4,0-12.8,0-19.2
		C-184.3,308.4-184.3,308.3-184.3,308z"/>
</g>
</svg>
