<?xml version="1.0" encoding="utf-8"?>
<!-- Generator: Adobe Illustrator 19.1.0, SVG Export Plug-In . SVG Version: 6.00 Build 0)  -->
<svg version="1.1" id="Layer_1" xmlns="http://www.w3.org/2000/svg" xmlns:xlink="http://www.w3.org/1999/xlink" x="0px" y="0px"
	 viewBox="-233 253 144 288" style="enable-background:new -233 253 144 288;" xml:space="preserve">
<style type="text/css">
	.st0{fill:#CA2027;}
</style>
<path d="M-117.2,379c-11.7-15.4-9.6-82.3-9.6-82.9l0-1.4l-1.4,0.1c-0.1,0-1.6,0.1-3-1.4c-1.5-1.6-3.2-5.2-2.4-13.6
	c1-10.5,4.4-19.3,4.4-19.4l0.5-1.4l-10.7-2.1l0,1.5c0,0.3-0.9,30.4-21.6,30.6c0,0,0,0,0,0c-19.9,0-22.3-30.4-22.3-30.7l-0.1-1.3
	l-11,1.8l0.6,1.4c0,0.1,3.4,7.8,4.4,18.2c1.5,15.5-5.5,16.6-5.7,16.6l-1.4,0.1l0.4,1.4c0.1,0.4,10.2,40.7-5.2,82l-0.2,0.6l0.3,0.5
	c2.9,4.7,15.2,7.6,20.4,8.6c7.4,1.4,15.6,2.3,23.8,2.3c15,0,30-2.8,39.6-9.9l1-0.7L-117.2,379z"/>
<path class="st0" d="M-117.2,524.4c-11.7-15.4-9.6-82.3-9.6-82.9l0-1.4l-1.4,0.1c-0.1,0-1.6,0.1-3-1.4c-1.5-1.6-3.2-5.2-2.4-13.6
	c1-10.5,4.4-19.3,4.4-19.4l0.5-1.4l-10.7-2.1l0,1.5c0,0.3-0.9,30.4-21.6,30.6c0,0,0,0,0,0c-19.9,0-22.3-30.4-22.3-30.7l-0.1-1.3
	l-11,1.8l0.6,1.4c0,0.1,3.4,7.8,4.4,18.2c1.5,15.5-5.5,16.6-5.7,16.6l-1.4,0.1l0.4,1.4c0.1,0.4,10.2,40.7-5.2,82l-0.2,0.6l0.3,0.5
	c2.9,4.7,15.2,7.6,20.4,8.6c7.4,1.4,15.6,2.3,23.8,2.3c15,0,30-2.8,39.6-9.9l1-0.7L-117.2,524.4z"/>
</svg>
