<?xml version="1.0" encoding="utf-8"?>
<!-- Generator: Adobe Illustrator 19.1.0, SVG Export Plug-In . SVG Version: 6.00 Build 0)  -->
<svg version="1.1" id="Layer_1" xmlns="http://www.w3.org/2000/svg" xmlns:xlink="http://www.w3.org/1999/xlink" x="0px" y="0px"
	 viewBox="-233 253 144 288" style="enable-background:new -233 253 144 288;" xml:space="preserve">
<style type="text/css">
	.st0{fill:none;}
	.st1{fill:#CC0000;}
</style>
<g>
	<path class="st0" d="M-220.9,316.7c-0.8,7.4,6.2,13.1,15.3,8.5c4.8-2.4,5-3.8,14.4-7.1l-3.5-7l9.1-4.5
		C-203.3,298.9-219.9,306.5-220.9,316.7z"/>
	<path class="st0" d="M-170.3,310.9c2.7,4.2,1.3,9.6-4.3,11.8c3.6,4.5,7.8,2.6,9.8-3C-163.1,314.3-164.7,309.8-170.3,310.9z"/>
	<path d="M-161,294.5l-16.3,8c-22.6-14.4-49.7-3.1-51.1,13.7c-1.2,13,11.7,22.9,26.2,15.8c6-3,6-4.3,14.4-7.1l8,16.3l71.5,25.9
		l16-47.5L-161,294.5z M-194.7,311.2l3.5,7c-9.3,3.3-9.6,4.7-14.4,7.1c-9.2,4.5-16.2-1.1-15.3-8.5c1-10.2,17.7-17.8,35.3-10.1
		L-194.7,311.2z M-164.9,319.8c-1.9,5.6-6.1,7.5-9.8,3c5.7-2.3,7.1-7.6,4.3-11.8C-164.7,309.8-163.1,314.3-164.9,319.8z
		 M-152.6,331.6c-1.3,0.5-3,0.5-4.8-0.1c-2-0.6-3.3-1.5-4.1-2.8c-0.8-1.2-1-2.7-0.5-4.1l3,0.9c-0.1,0.7-0.1,1.2,0.1,1.6
		c0.3,0.8,1.1,1.3,2.4,1.7c0.7,0.2,1.3,0.3,1.9,0.3c1,0,1.6-0.4,1.9-1.2c0.2-0.5,0.1-0.9-0.3-1.3c-0.3-0.4-0.9-0.8-1.9-1.3l-1.4-0.8
		c-1.4-0.8-2.4-1.5-2.9-2.2c-0.7-1-0.9-2.3-0.4-3.7c0.4-1.3,1.2-2.3,2.6-2.8c1.2-0.5,2.8-0.5,4.7,0.1c1.5,0.5,2.8,1.3,3.6,2.6
		c0.8,1.2,1,2.6,0.6,4.1l-3-0.9c0.2-0.9,0-1.6-0.6-2.3c-0.4-0.4-1-0.7-1.7-0.9c-0.8-0.3-1.5-0.3-2.1-0.2c-0.6,0.2-0.9,0.5-1.1,1.1
		c-0.2,0.5-0.1,1,0.3,1.4c0.2,0.3,0.8,0.7,1.7,1.2l2.4,1.4c1,0.6,1.7,1.2,2.2,1.9c0.6,1,0.7,2.2,0.3,3.4
		C-150.3,330.2-151.3,331.1-152.6,331.6z M-139.5,337v-3.4l-5.5-1.7l-2,2.7l-3.2-1l10.1-13.1l3.5,1.1l0.4,16.5L-139.5,337z
		 M-123.9,342.1l-10.4-3.4l4.8-14.7l3.1,1l-3.9,12.1l7.4,2.4L-123.9,342.1z M-114.8,331.6l-1,3.1l7.2,2.4l-0.8,2.6l-7.2-2.4
		l-1.2,3.8l8.1,2.7l-0.8,2.7l-11.2-3.6l4.8-14.7l10.8,3.5l-0.8,2.6L-114.8,331.6z"/>
	<polygon points="-139.5,330.8 -139.5,324.4 -143.3,329.6 	"/>
</g>
<g>
	<path class="st0" d="M-220.9,462.6c-0.8,7.4,6.2,13.1,15.3,8.5c4.8-2.4,5-3.8,14.4-7.1l-3.5-7l9.1-4.5
		C-203.3,444.8-219.9,452.4-220.9,462.6z"/>
	<path class="st0" d="M-170.3,456.8c2.7,4.2,1.3,9.6-4.3,11.8c3.6,4.5,7.8,2.6,9.8-3C-163.1,460.2-164.7,455.7-170.3,456.8z"/>
	<path class="st1" d="M-161,440.4l-16.3,8c-22.6-14.4-49.7-3.1-51.1,13.7c-1.2,13,11.7,22.9,26.2,15.8c6-3,6-4.3,14.4-7.1l8,16.3
		l71.5,25.9l16-47.5L-161,440.4z M-194.7,457l3.5,7c-9.3,3.3-9.6,4.7-14.4,7.1c-9.2,4.5-16.2-1.1-15.3-8.5
		c1-10.2,17.7-17.8,35.3-10.1L-194.7,457z M-164.9,465.7c-1.9,5.6-6.1,7.5-9.8,3c5.7-2.3,7.1-7.6,4.3-11.8
		C-164.7,455.7-163.1,460.2-164.9,465.7z M-152.6,477.5c-1.3,0.5-3,0.5-4.8-0.1c-2-0.6-3.3-1.5-4.1-2.8c-0.8-1.2-1-2.7-0.5-4.1
		l3,0.9c-0.1,0.7-0.1,1.2,0.1,1.6c0.3,0.8,1.1,1.3,2.4,1.7c0.7,0.2,1.3,0.3,1.9,0.3c1,0,1.6-0.4,1.9-1.2c0.2-0.5,0.1-0.9-0.3-1.3
		c-0.3-0.4-0.9-0.8-1.9-1.3l-1.4-0.8c-1.4-0.8-2.4-1.5-2.9-2.2c-0.7-1-0.9-2.3-0.4-3.7c0.4-1.3,1.2-2.3,2.6-2.8
		c1.2-0.5,2.8-0.5,4.7,0.1c1.5,0.5,2.8,1.3,3.6,2.6c0.8,1.2,1,2.6,0.6,4.1l-3-0.9c0.2-0.9,0-1.6-0.6-2.3c-0.4-0.4-1-0.7-1.7-0.9
		c-0.8-0.3-1.5-0.3-2.1-0.2c-0.6,0.2-0.9,0.5-1.1,1.1c-0.2,0.5-0.1,1,0.3,1.4c0.2,0.3,0.8,0.7,1.7,1.2l2.4,1.4
		c1,0.6,1.7,1.2,2.2,1.9c0.6,1,0.7,2.2,0.3,3.4C-150.3,476.1-151.3,477-152.6,477.5z M-139.5,482.8v-3.4l-5.5-1.7l-2,2.7l-3.2-1
		l10.1-13.1l3.5,1.1l0.4,16.5L-139.5,482.8z M-123.9,488l-10.4-3.4l4.8-14.7l3.1,1l-3.9,12.1l7.4,2.4L-123.9,488z M-114.8,477.5
		l-1,3.1l7.2,2.4l-0.8,2.6l-7.2-2.4l-1.2,3.8l8.1,2.7l-0.8,2.7l-11.2-3.6l4.8-14.7l10.8,3.5l-0.8,2.6L-114.8,477.5z"/>
	<polygon class="st1" points="-139.5,476.7 -139.5,470.3 -143.3,475.4 	"/>
</g>
</svg>
