<?xml version="1.0" encoding="utf-8"?>
<!-- Generator: Adobe Illustrator 19.1.0, SVG Export Plug-In . SVG Version: 6.00 Build 0)  -->
<svg version="1.1" id="Layer_1" xmlns="http://www.w3.org/2000/svg" xmlns:xlink="http://www.w3.org/1999/xlink" x="0px" y="0px"
	 viewBox="-233 253 144 288" style="enable-background:new -233 253 144 288;" xml:space="preserve">
<style type="text/css">
	.st0{fill:none;}
	.st1{fill:#FFFFFF;}
	.st2{fill:#CC0000;}
</style>
<g>
	<path class="st0" d="M-158,298.7c0.6,0,1.4,0,2,0.1c0.6,0,1.4,0.1,2,0.3c1.7,0.1,3.4,0.4,4.9,0.1h0.3c1-0.1,1.3-0.1,1.6-0.7
		c0.3-0.4,0.7-0.7,1.3-1.1c0.4-0.3,1.1-0.4,1.6-0.7c0.4-0.1,1-0.4,1.4-0.6l1-0.4c1-0.4,1.8-1,2.7-1.4c1.3-0.7,1.8-1.6,1.8-2.7
		c0.3-3.1-0.4-5.4-2.3-7.4c-3.1-3.2-6.9-4.9-11.2-6.9c-0.1,0-0.4,0-0.6,0c-0.4,0-1,0.1-1.3,0.1s-0.6,0.1-1,0.1
		c-3.2,0.4-5.7,1.4-7.8,3.1c-1.1,0.7-2,1.7-3.1,2.4c-1.1,1-2.1,1.7-3.4,2.7l-0.1,0.1c-3.5,3-7.2,6.1-10.5,9.5l-0.1,0.1
		c-0.1,0.1-0.3,0.3-0.3,0.3l-0.3,1c-0.4,1-0.7,1.8-1.1,3c-0.1,0.4,0,1.3,0.1,1.8v0.1c0,0,0,0,0.1,0c0.6,0,1.3,0,1.8-0.1
		c3-0.1,6.1-0.1,8.8-1.1c3.2-1.1,6.8-1.6,10.5-1.7L-158,298.7z"/>
	<polygon class="st0" points="-164.5,349.7 -154.6,348.9 -154.3,345 -160.5,345.6 -160,341 -154.9,340.5 -154.6,336.7 -159.7,337.1 
		-159.4,332.5 -153.4,331.9 -153.1,328.2 -162.8,328.9 	"/>
	<path class="st0" d="M-176.8,330.3l-1.7,20.8l3.8-0.3l0.7-8.5l1.1-0.1l2.4,8.2l4-0.3l-2.7-8.2l2.8-2.7l0.6-7.5l-2.1-2L-176.8,330.3
		z M-169.7,338l-3.8,0.3l0.3-4.7l3.8-0.3L-169.7,338z"/>
	<path class="st0" d="M-143.6,347.8l1.3-1.1c-0.3,0.1-1,0.6-1.4,1.1H-143.6z"/>
	<path class="st0" d="M-148,327.7C-147.8,327.7-147.8,327.7-148,327.7l-3.2,0.3l-0.1,2C-147.8,328.2-148,327.7-148,327.7z"/>
	<path class="st0" d="M-149.5,276.2c0,0-0.3-0.1-0.4-0.1c0.1,0.1,0.4,0.1,0.6,0.3L-149.5,276.2z"/>
	<polygon class="st0" points="-183.2,339.3 -187.3,339.7 -186.7,331.2 -190.4,331.6 -192.1,352.4 -188.4,352 -187.6,343.6 
		-183.5,343.1 -184,351.6 -180.4,351.3 -178.7,330.5 -182.3,330.8 	"/>
	<path class="st0" d="M-140.9,344.5l0.1-1.1c-0.1,0.1-0.1,0.1-0.3,0.3c0,0-3,4-3.2,4c0,0,1.3-1.3,1.1-2l2.3-3.1l0.1,0.3l1.1-13.9
		l-1.8-1.6v0.1l0,0l0,0c0,0-0.1-0.3-1.3-0.3c0,0,0,0.6-0.1,0.6l-2,0.3c0,0,0-0.4-0.1-0.6h-0.1c0,0,0.3,0.6,0.1,0.6l-0.4,0.1
		c0,0,0.1-0.4,0-0.4h-0.1c0,0,0.1,0.4,0,0.4c0,0-1.8,0.4-2,0.3c0,0-0.7,0-1,0.1l-2.7,1.1c0,0,2.7-1.6,7.1-2.7c0,0,0.1,0,0.4-0.1
		l-2.4,0.1c-2.3,1.1-4.5,2.1-5.2,2.4l-1.6,18.8l8.8-0.7C-143.2,347-142,345.8-140.9,344.5z M-148.8,344.5l1.1-13.1l4.1-0.4
		l-1.1,13.1L-148.8,344.5z"/>
	<polygon class="st0" points="-201.2,332.5 -203.8,335 -204.4,343 -202.1,344.8 -197,344.4 -197.3,349 -201.2,349.3 -201,347.8 
		-204.9,348 -205.2,351.4 -202.9,353.3 -196.5,352.7 -193.8,350.4 -193.2,342.4 -195.3,340.4 -200.6,341 -200.1,336.3 -196.3,335.9 
		-196.5,337.4 -192.7,337.1 -192.4,333.9 -194.8,332 	"/>
	<polygon points="-147.7,331.5 -148.8,344.5 -144.6,344.1 -143.6,331.1 	"/>
	<polygon points="-173.7,338.4 -169.7,338 -169.5,333.5 -173.3,333.7 	"/>
	<path d="M-91.1,335.9c-0.4-4.5-1-8.8-1.4-13.1v-0.3c-0.6-5.1-3-9.2-6.8-12.2c-3.5-2.7-6.5-6.1-8.8-8.9c-2-2.4-4.7-4.1-7.5-4.8
		c-4-1-7.9-1-11.4,0.3c-0.4,0.1-0.6,0.1-1-0.3c-0.3-0.3-0.4-0.6-0.7-0.7c-0.3-0.4-0.7-0.7-1.1-1.3c-1.4-2-2.7-3.5-3.1-5.7
		c-0.3-1.3-1-2.3-1.4-3.2c-2.1-3.5-5.5-5.8-8.5-7.8c-0.7-0.4-1.6-0.7-2.3-1.1c-1.3-0.4-2.4-1.1-3.2-1.8c-0.4-0.4-1-0.4-1.6-0.6
		l-1.6-0.3c-1.8-0.3-3.7-0.7-5.7-1.1c-3.5-0.6-6.6-0.3-9.2,1c-3.8,1.7-8.3,4-12,7.5c-1.4,1.4-3,2.8-4.4,4.1c-1.4,1.3-2.7,2.7-4,3.8
		c-1.4,1.3-2.7,2.7-3.8,3.8l-1.4,1.4c-1.8,1.8-3.7,4-5.1,6.6c-0.1,0.3-0.3,0.7-0.4,0.7c-0.1,0-0.4-0.1-0.7-0.1l-0.1-0.1
		c-2.8-0.6-5.4-1-7.8-0.6c-0.3,0-0.6,0-0.7,0.1c-1,0.1-1.7,0.1-2.3-0.1l-0.4-0.3l-0.4,0.3c-0.1,0.1-0.4,0.3-0.6,0.4
		c-0.3,0.3-0.6,0.4-0.7,0.6c-2.7,0.7-4.7,2-6.4,3.5c-0.4,0.4-1.1,1-1.6,1.4c-0.7,0.6-1.7,1.3-2.4,2.1c-2.3,2.4-3.2,5.7-3.8,8.6
		c-0.3,1.1-0.6,2.1-0.7,3.2c-0.7,3.1-1.6,6.4-2.4,9.5c-1.4,3.7-2.1,6.8-2.1,9.9c-0.1,5.5,0.6,11.6,2.3,18.1
		c1.7,6.1,3.8,10.6,6.8,14.7c1.4,1.7,3.1,3.7,5.8,4.1c0.4,0.1,1,0.1,1.4,0.1s1,0.1,1.4,0.1c1.4,0.3,2.7,0.4,3.8,0.4
		c1.6,0,3-0.3,4.4-0.7c0.4-0.1,1.1-0.3,1.7-0.3c1.6-0.1,3.1-0.1,4.7-0.3l3-0.1c1.7-0.1,3.4-0.3,5.1-1.1c0.4-0.3,1-0.3,1.4-0.4h0.3
		c2.7-0.1,5.2-0.3,7.9-0.3c1.3,0,2.7,0.1,3.8,0.1c0.7,0,1.6,0.1,2.3,0.1c3.7,0.1,7.4-0.3,10.3-0.7c2.8-0.4,5.7-0.7,8.5-1.3l2.8-0.4
		c1.1-0.1,2.3-0.3,3.4-0.4c2.4-0.4,5.1-0.7,7.5-1.1h0.1c2.7-0.3,5.5-0.6,8.2-1.7c0.6-0.1,1.1-0.3,1.6-0.3c1.6-0.1,3.1-0.3,4.7-0.3
		l2.4-0.1c1.1-0.1,2-0.1,3.1-0.1c2.4-0.1,5.1-0.3,7.5-0.6c3.1-0.3,6.4-1,9.1-3c0.6-0.4,1.3-1,2-1.3l0.4-0.3c4.1-2.7,6.8-5.2,8.5-8.6
		C-91.8,348.2-90.7,342.2-91.1,335.9z M-149.5,276.2l0.1,0.1c-0.1-0.1-0.4-0.1-0.6-0.3C-149.8,276-149.7,276-149.5,276.2z
		 M-192.7,337.1l-3.7,0.3l0.1-1.6l-3.8,0.3l-0.3,4.7l5.2-0.4l2.1,2l-0.6,8.1l-2.7,2.3l-6.5,0.6l-2.3-2l0.3-3.4l3.7-0.3l-0.1,1.7
		l3.8-0.3l0.3-4.7l-5.1,0.4l-2.3-2l0.6-7.9l2.7-2.4l6.5-0.6l2.1,2V337.1z M-180.4,351.3l-3.7,0.3l0.7-8.5l-4.4,0.4l-0.7,8.5
		l-3.7,0.3l1.7-20.8l3.7-0.3l-0.6,8.5l4.4-0.4l0.7-8.5l3.7-0.3L-180.4,351.3z M-166.2,339.1l-2.8,2.7l2.7,8.2l-4,0.4l-2.4-8.2
		l-1.1,0.1l-0.7,8.5l-3.8,0.3l1.7-20.8l9.1-0.7l2.1,2L-166.2,339.1z M-169.5,300.4c-2.8,1-5.8,1-8.8,1.1c-0.6,0-1.3,0-1.8,0.1
		c0,0,0,0-0.1,0v-0.1c-0.1-0.6-0.3-1.4-0.1-1.8c0.3-1,0.6-1.8,1.1-3l0.3-1c0,0,0.1-0.1,0.3-0.3l0.1-0.1c3.1-3.5,6.8-6.5,10.5-9.5
		l0.1-0.1c1.1-1,2.1-1.8,3.4-2.7c1.1-0.7,2-1.7,3.1-2.4c2-1.7,4.5-2.7,7.8-3.1c0.3,0,0.6-0.1,1-0.1c0.4,0,0.7-0.1,1.3-0.1
		c0.1,0,0.4,0,0.6,0c4.1,1.8,8.1,3.7,11.2,6.9c1.8,2,2.7,4.5,2.3,7.4c-0.1,1.1-0.7,1.8-1.8,2.7c-0.7,0.6-1.7,1-2.7,1.4l-1,0.4
		c-0.4,0.1-1,0.4-1.4,0.6c-0.4,0.3-1.1,0.4-1.6,0.7c-0.4,0.1-1,0.4-1.3,1.1s-0.6,0.6-1.6,0.7h-0.3c-1.7,0.3-3.2,0-4.9-0.1
		c-0.6-0.1-1.4-0.1-2-0.3c-0.6,0-1.4-0.1-2-0.1h-1C-162.5,298.7-166.1,299.4-169.5,300.4z M-153.4,331.9l-6.1,0.6l-0.3,4.7l5.1-0.4
		l-0.3,3.8l-5.1,0.4l-0.3,4.7l6.1-0.6l-0.3,3.8l-9.9,1l1.7-20.8l9.7-1L-153.4,331.9z M-152.9,348.7l1.6-18.8c-0.1,0-0.3,0.1-0.3,0.1
		c0.1,0,0.1-0.1,0.3-0.1l0.1-2l3.4-0.3c0.4-0.3,2.3-1.3,2.3-1.3l-0.1,0.4l0.3-0.6l0.7-0.3l-0.1,0.3l0.7-0.6h0.1v0.1
		c0.1-0.1,4.1-2.8,4.1-2.8c-1,0.7-0.1,1-0.1,1s0,0-0.1,0l0,0l0,0c0.1,0,0.6-1,0.6-1l0,0l0,0l0,0c0,0.1,1.6-0.4,1.6-0.4v0.4l0.3-0.4
		l1.4-0.4l-0.1,1.3l0.4-1.4l0.4-0.1v0.6l0.3-0.7l3.4-1.6c-0.1,0.1-0.4,1-0.4,1l0.6-0.4c-0.1,0.1,0,0.7,0,0.7l1.1-1.3
		c0.6,0,5.1-1.4,5.1-1.4c0.1,0.1,0.4,1.6,0.4,1.6l0.7-0.4c0,0.3,0,0.3,0,0.3c0.1,0-0.1-0.1,0.4-0.6c0.6-0.4,0.7-1.4,0.7-1.4
		c0.3,0.4-0.1,1.3-0.1,1.3c0.3-0.1,0.6-1,0.6-1l4.1,1.7c0,0,0,0,0,0.1s-0.3,1-0.3,1c0.4-0.4,1-0.4,1-0.4c0.7-0.1,2.7,1.4,2.7,1.4
		c-0.3,0-0.4,0.3-0.4,0.3l0,0h1c-0.7,0-0.3,0.6-0.3,0.6c-1.4-1.1-6.2-1.7-6.2-1.7c-6.4-1-18.2,3.7-18.2,3.7
		c-1.3,0.4-4.5,1.8-7.2,3.2l2.4-0.1c1.7-0.4,8.3-2.4,10-2.7c0,0,10-2.1,12.3-2c0,0,4.8-0.3,6.8,0c0,0,0.4,0.7,1.1,0.7l-0.7,0.4
		c0,0-1.4-0.4-1.8-0.7l0.3,0.7l-0.6-0.6h-0.7l0.6,0.6c0,0-3,0.1-3.5,0.4l-1-1v0.6l-0.6-0.6l-0.1,0.6c0,0-2.8,0.3-4.9,1.1l-0.6-0.4
		l-0.1,0.4l-0.4-0.6l-0.3,0.7l-0.1-0.4l0.3-0.4l-1.3,0.3c0,0,0.1-1.3,0-1.3c0,0-0.1,1.4-0.3,1.4h-0.3c0,0,0-0.7-0.1-1
		c0-0.1,0-0.1,0-0.1v1c0,0-0.7,0.1-1.1,1c0,0-0.1-0.4,0-0.6c0,0-2.3,0.1-3.2,0.6c0,0,0.3-0.4-0.4-1.1c0,0-0.3,0.1,0,0.6l-3.5,0.7
		c0,0-1.1,0.1-1.4,0.3l-1.3-0.1c0,0,0.3,0.1,0.3,0.4l0,0l1.8,1.6l-1.1,13.9l0,0c0,0,0.1-0.7,0.3-0.7h0.3c0,0,1.4-2.4,1.4-2.7
		c0,0,0,0.6,0,0.7c0,0,0-1,0.1-1.1c0,0,0.7-1.1,0.7-1.3c0,0-0.1,0.7,0,0.7h0.3c0,0,0.3-1.1,0.3-1.3c0-0.1,0,0,0,0s2.7-2.4,2.8-2.8
		v-0.1l0,0c0,0,0-0.1,0,0c0.1-0.1,3-3.2,3-3.4c0-0.2,0,0.1,0,0.1s0,0.7-0.1,1.1c0-0.1,0.3-0.6,0.3-0.7c0,0,0.3,0.1,0.4,0.3
		c0,0,0.4-1.4,0.7-1.7c0,0,3.4-3,3.4-3.1c0-0.1,0-0.1,0-0.1s0.4,0,0.4-0.3c0,0,1.3,0.6,1.1,1c0,0,0.7-0.6,0.7-0.7l0.1,0.1
		c0,0,0.4-1.4,0.4-1.6s0-0.1,0-0.1s0.3,0.4,0.3,0.6s0,0.1,0,0.1l0.1-0.7c0,0,1.3-0.6,1.4-0.4v1.3l0.1-1.3c0,0,2.1-0.4,3-0.4
		c0,0,0.1,0.1,0.3-0.1c0,0,0.1,0.7,0.1,1c0,0,0.4-0.6,0.4-0.7c0,0,0.4-0.1,0.6-0.3v0.1c0,0,0.1-0.3,0.4-0.3c0.1,0,0.1,0,0.1,0l0,0
		l0,0h0.3c0,0-0.3,0.3-0.1,0.6c0.1,0.3,0,0.1,0,0.1s0-0.6,0.4-0.7c0,0,1.4,0,1.6,0.1l-0.4,0.4l0.6-0.4h0.3c0,0-0.6,0.3-0.3,0.7h0.1
		c0,0,0.4,0.4,1.4,0.3l-0.3,0.4c0,0-7.4-1.7-17.4,6.8c0,0-6.6,5.8-10.5,11.3l-0.1,1.1c2.1-2.1,4.5-4.4,4.5-4.4
		c0.6-1,8.2-6.6,8.2-6.6c3.1-2.3,8.8-5.4,8.8-5.4c5.5-3,6.6-2.8,6.6-2.8c-0.1,0-1.8,0.6-1.8,0.6l-0.7,0.3c0.1,0,0.3,0.1,0.3,0.1
		c-0.4,0.1-3.1,2.1-3.1,2.1c-0.1-0.1-1.3-0.3-1.3-0.3l0.6,0.6l-1.1-0.3l0.1,0.4c-1.4,0.6-4.7,3.7-4.7,3.7l-0.7-0.1v0.3l-0.6-0.1
		l0.1,0.6l-0.4-0.3l0.1,0.6l-2.1,1.7c-0.1,0-0.1,0.7-0.1,0.7c-0.1,0-0.3-0.4-0.3-0.4c-2,1.1-2.8,2.1-2.8,2.1c0-0.4-0.7-0.6-0.7-0.6
		c-0.6,0.1,0.1,0.3,0.1,0.3l-2,1.7l-0.6-0.3l0.4,0.4l-0.4,0.3l-0.4-0.3l0.3,0.4c-0.4,0.1-1.7,1.6-1.7,1.6l-1.3,0.4
		c0,0.1,0.4,0,0.4,0l-1.6,0.7h0.3c0.1,0.1,0,0.4,0,0.4l-1.8,1.4l-0.1-0.6l0.1,0.6l-0.3,0.1l-0.3-0.4l0.1,0.6l-1.8,1.4l0,0l-1.3,1.1
		h-0.3c-0.7,1.4-1.7,2.4-1.7,2.4c0-0.1,0.6-1,1.6-1.8L-152.9,348.7z M-110.3,345.2c-1.1-0.1-1.8,0.3-1.8,0.3l-1.7,0.3
		c-0.1-0.3,0-0.6,0-0.6h-0.1c-0.3,0.3-0.1,0.6-0.1,0.6h-0.4c0-0.1,0.1-0.6,0.1-0.6h-0.1c-0.3,0.3-0.1,0.6-0.1,0.6l0,0
		c-0.3,0-1.8,0.3-1.8,0.3c-0.1-0.3-0.1-0.6-0.1-0.6c-0.7,0.1-1.3,0.6-1.3,0.6c0-0.1,0.3-0.4,0.3-0.4c-0.1,0-1.3,0.6-1.3,0.6h-0.4
		c-0.4,0-1.1,0.1-1.1,0.1l-3.7,0.3c0.3-0.4,0-0.6,0-0.6c-0.7,0.4-0.6,1.3-0.6,1.3c-1.3-0.1-3.2,0.6-3.2,0.6l-1.3,0.1
		c0-0.1,0-1.1,0-1.1c-0.1,0.1-0.1,1.1-0.1,1.1h-0.4c-0.3-1-0.1-1.6-0.1-1.6c-0.3,0.6,0,1.6,0,1.6l-1.3,0.1l-0.1-0.7v0.7l-0.3-0.6
		l-0.4,0.7l-0.1-0.3l-0.6,0.7c-2.3,0-4.9,0.6-4.9,0.6v-0.6l-0.6,0.7v-0.6l-1,1.3c-1.4,0-3.4,0.6-3.4,0.6l0.6-0.7l-0.7,0.3l-0.6,1
		l0.3-0.7c-1,1-1.8,1.6-1.8,1.6l-0.7-0.1c0.6-0.1,1.1-1.1,1.1-1.1c1.3-0.7,4.5-1.7,4.5-1.7c0.7-0.3,6.9-1.7,6.9-1.7
		c3.2-0.7,7.9-1.3,7.9-1.3c0.3-0.1,7.2-0.7,7.2-0.7c1-0.1,6.4-0.1,6.4-0.1c2.7-0.1,3.7,0.1,3.7,0.1L-110.3,345.2z M-113.3,344.4
		l-5.7-0.6c-1-0.1-5.7-0.1-5.7-0.1c-1.3,0-5.7,0.4-5.7,0.4c-2.3,0.1-6.1,1.3-6.1,1.3c-2.7,0.7-5.2,2.4-5.2,2.4
		c-1.1,0.6-3.5,2.4-3.5,2.4c0.6-1-0.3-0.4-0.3-0.4c0-0.1,0.4-0.1,0.4-0.1c0.3,0,0.4-0.1,0.4-0.1c0-0.1-0.4-0.1-0.4-0.1
		c0.4-0.7,1.7-1.8,1.7-1.8c1-0.7,1.8-0.3,1.8-0.3c-0.3-0.3-0.3-0.7-0.3-0.7l1.6-1.3c0.4-0.4,2.7-2,2.7-2c0,0.4,0.6,0.7,0.6,0.7
		c-0.3-0.6-0.1-1.1-0.1-1.1v0.1c0,0.4,1.1,1.3,1.1,1.3v-0.3c0.3,0,1,0.1,1,0.1l0.1-0.6c0-0.3,0.3-1.1,0.3-1.1
		c0.1,0.1,5.1-0.3,5.1-0.3c0,0.1,1.3,0.7,1.3,0.7v-0.3c0-0.1,0-0.3,0-0.3c0.1,0,0.1,0,0.1,0c0.1,0.1,0.6,0.3,0.6,0.3
		c-0.1,0-0.6-0.7-0.6-0.7h0.3c0.6,0,3.2,0.3,3.2,0.3l0.3,0.7l-0.1-0.7h0.6l0.4,1.3l-0.3-1.1l0.1-0.1c0.4,0,1.4,0,1.4,0l0.3,0.6
		l-0.1-0.6h0.4c0.6,0,1.3-0.1,1.3-0.1c0,0.1,0.6,0.6,0.6,0.6l0.3-0.3c0.1-0.3-0.4-0.6-0.4-0.6c0.4,0,4.1,1.3,4.1,1.3V343h0.1
		c0,0.1,0.7,0.4,0.7,0.4l-0.1-0.3h0.1c0.4,0.1,0.7,0.1,0.7,0.1l0.3,0.4l-0.1-0.4c1.1,0,2.3,0.4,2.3,0.4c0.1,0.6,3.7,1.1,3.7,1.1
		L-113.3,344.4z"/>
	<path class="st1" d="M-116.5,324L-116.5,324L-116.5,324z"/>
	<path class="st1" d="M-134.4,334.9C-134.4,334.9-134.2,334.9-134.4,334.9C-134.2,334.6-134.4,334.9-134.4,334.9z"/>
	<path class="st1" d="M-141.3,327.5L-141.3,327.5L-141.3,327.5z"/>
	<path class="st1" d="M-139.8,323.8L-139.8,323.8L-139.8,323.8z"/>
	<path class="st1" d="M-139.2,322.8L-139.2,322.8L-139.2,322.8z"/>
</g>
<g>
	<path class="st0" d="M-158,445.4c0.6,0,1.4,0,2,0.1c0.6,0,1.4,0.1,2,0.3c1.7,0.1,3.4,0.4,4.9,0.1h0.3c1-0.1,1.3-0.1,1.6-0.7
		c0.3-0.4,0.7-0.7,1.3-1.1c0.4-0.3,1.1-0.4,1.6-0.7c0.4-0.1,1-0.4,1.4-0.6l1-0.4c1-0.4,1.8-1,2.7-1.4c1.3-0.7,1.8-1.6,1.8-2.7
		c0.3-3.1-0.4-5.4-2.3-7.4c-3.1-3.2-6.9-4.9-11.2-6.9c-0.1,0-0.4,0-0.6,0c-0.4,0-1,0.1-1.3,0.1s-0.6,0.1-1,0.1
		c-3.2,0.4-5.7,1.4-7.8,3.1c-1.1,0.7-2,1.7-3.1,2.4c-1.1,1-2.1,1.7-3.4,2.7l-0.1,0.1c-3.5,3-7.2,6.1-10.5,9.5l-0.1,0.1
		c-0.1,0.1-0.3,0.3-0.3,0.3l-0.3,1c-0.4,1-0.7,1.8-1.1,3c-0.1,0.4,0,1.3,0.1,1.8v0.1c0,0,0,0,0.1,0c0.6,0,1.3,0,1.8-0.1
		c3-0.1,6.1-0.1,8.8-1.1c3.2-1.1,6.8-1.6,10.5-1.7L-158,445.4z"/>
	<polygon class="st0" points="-164.5,496.4 -154.6,495.5 -154.3,491.6 -160.5,492.3 -160,487.7 -154.9,487.2 -154.6,483.3 
		-159.7,483.8 -159.4,479.2 -153.4,478.6 -153.1,474.8 -162.8,475.6 	"/>
	<path class="st0" d="M-176.8,477l-1.7,20.8l3.8-0.3l0.7-8.5l1.1-0.1l2.4,8.2l4-0.3l-2.7-8.2l2.8-2.7l0.6-7.5l-2.1-2L-176.8,477z
		 M-169.7,484.7l-3.8,0.3l0.3-4.7l3.8-0.3L-169.7,484.7z"/>
	<path class="st0" d="M-143.6,494.5l1.3-1.1c-0.3,0.1-1,0.6-1.4,1.1H-143.6z"/>
	<path class="st0" d="M-148,474.4C-147.8,474.4-147.8,474.4-148,474.4l-3.2,0.3l-0.1,2C-147.8,474.8-148,474.4-148,474.4z"/>
	<path class="st0" d="M-149.5,422.9c0,0-0.3-0.1-0.4-0.1c0.1,0.1,0.4,0.1,0.6,0.3L-149.5,422.9z"/>
	<polygon class="st0" points="-183.2,486 -187.3,486.4 -186.7,477.9 -190.4,478.2 -192.1,499.1 -188.4,498.6 -187.6,490.2 
		-183.5,489.8 -184,498.3 -180.4,498 -178.7,477.2 -182.3,477.5 	"/>
	<path class="st0" d="M-140.9,491.2l0.1-1.1c-0.1,0.1-0.1,0.1-0.3,0.3c0,0-3,4-3.2,4c0,0,1.3-1.3,1.1-2l2.3-3.1l0.1,0.3l1.1-13.9
		l-1.8-1.6v0.1l0,0l0,0c0,0-0.1-0.3-1.3-0.3c0,0,0,0.6-0.1,0.6l-2,0.3c0,0,0-0.4-0.1-0.6h-0.1c0,0,0.3,0.6,0.1,0.6l-0.4,0.1
		c0,0,0.1-0.4,0-0.4h-0.1c0,0,0.1,0.4,0,0.4c0,0-1.8,0.4-2,0.3c0,0-0.7,0-1,0.1l-2.7,1.1c0,0,2.7-1.6,7.1-2.7c0,0,0.1,0,0.4-0.1
		l-2.4,0.1c-2.3,1.1-4.5,2.1-5.2,2.4l-1.6,18.8l8.8-0.7C-143.2,493.6-142,492.5-140.9,491.2z M-148.8,491.2l1.1-13.1l4.1-0.4
		l-1.1,13.1L-148.8,491.2z"/>
	<polygon class="st0" points="-201.2,479.2 -203.8,481.6 -204.4,489.7 -202.1,491.5 -197,491.1 -197.3,495.7 -201.2,496 -201,494.5 
		-204.9,494.7 -205.2,498.1 -202.9,500 -196.5,499.4 -193.8,497 -193.2,489.1 -195.3,487.1 -200.6,487.7 -200.1,483 -196.3,482.6 
		-196.5,484.1 -192.7,483.8 -192.4,480.6 -194.8,478.7 	"/>
	<polygon class="st2" points="-147.7,478.1 -148.8,491.2 -144.6,490.8 -143.6,477.8 	"/>
	<polygon class="st2" points="-173.7,485 -169.7,484.7 -169.5,480.1 -173.3,480.4 	"/>
	<path class="st2" d="M-91.1,482.6c-0.4-4.5-1-8.8-1.4-13.1v-0.3c-0.6-5.1-3-9.2-6.8-12.2c-3.5-2.7-6.5-6.1-8.8-8.9
		c-2-2.4-4.7-4.1-7.5-4.8c-4-1-7.9-1-11.4,0.3c-0.4,0.1-0.6,0.1-1-0.3c-0.3-0.3-0.4-0.6-0.7-0.7c-0.3-0.4-0.7-0.7-1.1-1.3
		c-1.4-2-2.7-3.5-3.1-5.7c-0.3-1.3-1-2.3-1.4-3.2c-2.1-3.5-5.5-5.8-8.5-7.8c-0.7-0.4-1.6-0.7-2.3-1.1c-1.3-0.4-2.4-1.1-3.2-1.8
		c-0.4-0.4-1-0.4-1.6-0.6l-1.6-0.3c-1.8-0.3-3.7-0.7-5.7-1.1c-3.5-0.6-6.6-0.3-9.2,1c-3.8,1.7-8.3,4-12,7.5c-1.4,1.4-3,2.8-4.4,4.1
		c-1.4,1.3-2.7,2.7-4,3.8c-1.4,1.3-2.7,2.7-3.8,3.8l-1.4,1.4c-1.8,1.8-3.7,4-5.1,6.6c-0.1,0.3-0.3,0.7-0.4,0.7
		c-0.1,0-0.4-0.1-0.7-0.1l-0.1-0.1c-2.8-0.6-5.4-1-7.8-0.6c-0.3,0-0.6,0-0.7,0.1c-1,0.1-1.7,0.1-2.3-0.1l-0.4-0.3l-0.4,0.3
		c-0.1,0.1-0.4,0.3-0.6,0.4c-0.3,0.3-0.6,0.4-0.7,0.6c-2.7,0.7-4.7,2-6.4,3.5c-0.4,0.4-1.1,1-1.6,1.4c-0.7,0.6-1.7,1.3-2.4,2.1
		c-2.3,2.4-3.2,5.7-3.8,8.6c-0.3,1.1-0.6,2.1-0.7,3.2c-0.7,3.1-1.6,6.4-2.4,9.5c-1.4,3.7-2.1,6.8-2.1,9.9
		c-0.1,5.5,0.6,11.6,2.3,18.1c1.7,6.1,3.8,10.6,6.8,14.7c1.4,1.7,3.1,3.7,5.8,4.1c0.4,0.1,1,0.1,1.4,0.1s1,0.1,1.4,0.1
		c1.4,0.3,2.7,0.4,3.8,0.4c1.6,0,3-0.3,4.4-0.7c0.4-0.1,1.1-0.3,1.7-0.3c1.6-0.1,3.1-0.1,4.7-0.3l3-0.1c1.7-0.1,3.4-0.3,5.1-1.1
		c0.4-0.3,1-0.3,1.4-0.4h0.3c2.7-0.1,5.2-0.3,7.9-0.3c1.3,0,2.7,0.1,3.8,0.1c0.7,0,1.6,0.1,2.3,0.1c3.7,0.1,7.4-0.3,10.3-0.7
		c2.8-0.4,5.7-0.7,8.5-1.3l2.8-0.4c1.1-0.1,2.3-0.3,3.4-0.4c2.4-0.4,5.1-0.7,7.5-1.1h0.1c2.7-0.3,5.5-0.6,8.2-1.7
		c0.6-0.1,1.1-0.3,1.6-0.3c1.6-0.1,3.1-0.3,4.7-0.3l2.4-0.1c1.1-0.1,2-0.1,3.1-0.1c2.4-0.1,5.1-0.3,7.5-0.6c3.1-0.3,6.4-1,9.1-3
		c0.6-0.4,1.3-1,2-1.3l0.4-0.3c4.1-2.7,6.8-5.2,8.5-8.6C-91.8,494.9-90.7,488.9-91.1,482.6z M-149.5,422.9l0.1,0.1
		c-0.1-0.1-0.4-0.1-0.6-0.3C-149.8,422.7-149.7,422.7-149.5,422.9z M-192.7,483.8l-3.7,0.3l0.1-1.6l-3.8,0.3l-0.3,4.7l5.2-0.4l2.1,2
		l-0.6,8.1l-2.7,2.3l-6.5,0.6l-2.3-2l0.3-3.4l3.7-0.3l-0.1,1.7l3.8-0.3l0.3-4.7l-5.1,0.4l-2.3-2l0.6-7.9l2.7-2.4l6.5-0.6l2.1,2
		V483.8z M-180.4,498l-3.7,0.3l0.7-8.5l-4.4,0.4l-0.7,8.5l-3.7,0.3l1.7-20.8l3.7-0.3l-0.6,8.5l4.4-0.4l0.7-8.5l3.7-0.3L-180.4,498z
		 M-166.2,485.8l-2.8,2.7l2.7,8.2l-4,0.4l-2.4-8.2l-1.1,0.1l-0.7,8.5l-3.8,0.3l1.7-20.8l9.1-0.7l2.1,2L-166.2,485.8z M-169.5,447.1
		c-2.8,1-5.8,1-8.8,1.1c-0.6,0-1.3,0-1.8,0.1c0,0,0,0-0.1,0v-0.1c-0.1-0.6-0.3-1.4-0.1-1.8c0.3-1,0.6-1.8,1.1-3l0.3-1
		c0,0,0.1-0.1,0.3-0.3l0.1-0.1c3.1-3.5,6.8-6.5,10.5-9.5l0.1-0.1c1.1-1,2.1-1.8,3.4-2.7c1.1-0.7,2-1.7,3.1-2.4
		c2-1.7,4.5-2.7,7.8-3.1c0.3,0,0.6-0.1,1-0.1c0.4,0,0.7-0.1,1.3-0.1c0.1,0,0.4,0,0.6,0c4.1,1.8,8.1,3.7,11.2,6.9
		c1.8,2,2.7,4.5,2.3,7.4c-0.1,1.1-0.7,1.8-1.8,2.7c-0.7,0.6-1.7,1-2.7,1.4l-1,0.4c-0.4,0.1-1,0.4-1.4,0.6c-0.4,0.3-1.1,0.4-1.6,0.7
		c-0.4,0.1-1,0.4-1.3,1.1s-0.6,0.6-1.6,0.7h-0.3c-1.7,0.3-3.2,0-4.9-0.1c-0.6-0.1-1.4-0.1-2-0.3c-0.6,0-1.4-0.1-2-0.1h-1
		C-162.5,445.4-166.1,446-169.5,447.1z M-153.4,478.6l-6.1,0.6l-0.3,4.7l5.1-0.4l-0.3,3.8l-5.1,0.4l-0.3,4.7l6.1-0.6l-0.3,3.8
		l-9.9,1l1.7-20.8l9.7-1L-153.4,478.6z M-152.9,495.3l1.6-18.8c-0.1,0-0.3,0.1-0.3,0.1c0.1,0,0.1-0.1,0.3-0.1l0.1-2l3.4-0.3
		c0.4-0.3,2.3-1.3,2.3-1.3l-0.1,0.4l0.3-0.6l0.7-0.3l-0.1,0.3l0.7-0.6h0.1v0.1c0.1-0.1,4.1-2.8,4.1-2.8c-1,0.7-0.1,1-0.1,1
		s0,0-0.1,0l0,0l0,0c0.1,0,0.6-1,0.6-1l0,0l0,0l0,0c0,0.1,1.6-0.4,1.6-0.4v0.4l0.3-0.4l1.4-0.4l-0.1,1.3l0.4-1.4l0.4-0.1v0.6
		l0.3-0.7l3.4-1.6c-0.1,0.1-0.4,1-0.4,1l0.6-0.4c-0.1,0.1,0,0.7,0,0.7l1.1-1.3c0.6,0,5.1-1.4,5.1-1.4c0.1,0.1,0.4,1.6,0.4,1.6
		l0.7-0.4c0,0.3,0,0.3,0,0.3c0.1,0-0.1-0.1,0.4-0.6c0.6-0.4,0.7-1.4,0.7-1.4c0.3,0.4-0.1,1.3-0.1,1.3c0.3-0.1,0.6-1,0.6-1l4.1,1.7
		c0,0,0,0,0,0.1c0,0.1-0.3,1-0.3,1c0.4-0.4,1-0.4,1-0.4c0.7-0.1,2.7,1.4,2.7,1.4c-0.3,0-0.4,0.3-0.4,0.3l0,0h1
		c-0.7,0-0.3,0.6-0.3,0.6c-1.4-1.1-6.2-1.7-6.2-1.7c-6.4-1-18.2,3.7-18.2,3.7c-1.3,0.4-4.5,1.8-7.2,3.2l2.4-0.1
		c1.7-0.4,8.3-2.4,10-2.7c0,0,10-2.1,12.3-2c0,0,4.8-0.3,6.8,0c0,0,0.4,0.7,1.1,0.7l-0.7,0.4c0,0-1.4-0.4-1.8-0.7l0.3,0.7l-0.6-0.6
		h-0.7l0.6,0.6c0,0-3,0.1-3.5,0.4l-1-1v0.6l-0.6-0.6l-0.1,0.6c0,0-2.8,0.3-4.9,1.1l-0.6-0.4l-0.1,0.4l-0.4-0.6l-0.3,0.7l-0.1-0.4
		l0.3-0.4l-1.3,0.3c0,0,0.1-1.3,0-1.3c0,0-0.1,1.4-0.3,1.4h-0.3c0,0,0-0.7-0.1-1c0-0.1,0-0.1,0-0.1v1c0,0-0.7,0.1-1.1,1
		c0,0-0.1-0.4,0-0.6c0,0-2.3,0.1-3.2,0.6c0,0,0.3-0.4-0.4-1.1c0,0-0.3,0.1,0,0.6l-3.5,0.7c0,0-1.1,0.1-1.4,0.3l-1.3-0.1
		c0,0,0.3,0.1,0.3,0.4l0,0l1.8,1.6l-1.1,13.9l0,0c0,0,0.1-0.7,0.3-0.7h0.3c0,0,1.4-2.4,1.4-2.7c0,0,0,0.6,0,0.7c0,0,0-1,0.1-1.1
		c0,0,0.7-1.1,0.7-1.3c0,0-0.1,0.7,0,0.7h0.3c0,0,0.3-1.1,0.3-1.3c0-0.1,0,0,0,0s2.7-2.4,2.8-2.8v-0.1l0,0c0,0,0-0.1,0,0
		c0.1-0.1,3-3.2,3-3.4s0,0.1,0,0.1s0,0.7-0.1,1.1c0-0.1,0.3-0.6,0.3-0.7c0,0,0.3,0.1,0.4,0.3c0,0,0.4-1.4,0.7-1.7c0,0,3.4-3,3.4-3.1
		s0-0.1,0-0.1s0.4,0,0.4-0.3c0,0,1.3,0.6,1.1,1c0,0,0.7-0.6,0.7-0.7l0.1,0.1c0,0,0.4-1.4,0.4-1.6c0-0.2,0-0.1,0-0.1s0.3,0.4,0.3,0.6
		c0,0.2,0,0.1,0,0.1l0.1-0.7c0,0,1.3-0.6,1.4-0.4v1.3l0.1-1.3c0,0,2.1-0.4,3-0.4c0,0,0.1,0.1,0.3-0.1c0,0,0.1,0.7,0.1,1
		c0,0,0.4-0.6,0.4-0.7c0,0,0.4-0.1,0.6-0.3v0.1c0,0,0.1-0.3,0.4-0.3c0.1,0,0.1,0,0.1,0l0,0l0,0h0.3c0,0-0.3,0.3-0.1,0.6
		c0.1,0.3,0,0.1,0,0.1s0-0.6,0.4-0.7c0,0,1.4,0,1.6,0.1l-0.4,0.4l0.6-0.4h0.3c0,0-0.6,0.3-0.3,0.7h0.1c0,0,0.4,0.4,1.4,0.3l-0.3,0.4
		c0,0-7.4-1.7-17.4,6.8c0,0-6.6,5.8-10.5,11.3l-0.1,1.1c2.1-2.1,4.5-4.4,4.5-4.4c0.6-1,8.2-6.6,8.2-6.6c3.1-2.3,8.8-5.4,8.8-5.4
		c5.5-3,6.6-2.8,6.6-2.8c-0.1,0-1.8,0.6-1.8,0.6l-0.7,0.3c0.1,0,0.3,0.1,0.3,0.1c-0.4,0.1-3.1,2.1-3.1,2.1c-0.1-0.1-1.3-0.3-1.3-0.3
		l0.6,0.6l-1.1-0.3l0.1,0.4c-1.4,0.6-4.7,3.7-4.7,3.7l-0.7-0.1v0.3l-0.6-0.1l0.1,0.6l-0.4-0.3l0.1,0.6l-2.1,1.7
		c-0.1,0-0.1,0.7-0.1,0.7c-0.1,0-0.3-0.4-0.3-0.4c-2,1.1-2.8,2.1-2.8,2.1c0-0.4-0.7-0.6-0.7-0.6c-0.6,0.1,0.1,0.3,0.1,0.3l-2,1.7
		l-0.6-0.3l0.4,0.4l-0.4,0.3l-0.4-0.3l0.3,0.4c-0.4,0.1-1.7,1.6-1.7,1.6l-1.3,0.4c0,0.1,0.4,0,0.4,0l-1.6,0.7h0.3
		c0.1,0.1,0,0.4,0,0.4l-1.8,1.4l-0.1-0.6l0.1,0.6l-0.3,0.1l-0.3-0.4l0.1,0.6l-1.8,1.4l0,0l-1.3,1.1h-0.3c-0.7,1.4-1.7,2.4-1.7,2.4
		c0-0.1,0.6-1,1.6-1.8L-152.9,495.3z M-110.3,491.8c-1.1-0.1-1.8,0.3-1.8,0.3l-1.7,0.3c-0.1-0.3,0-0.6,0-0.6h-0.1
		c-0.3,0.3-0.1,0.6-0.1,0.6h-0.4c0-0.1,0.1-0.6,0.1-0.6h-0.1c-0.3,0.3-0.1,0.6-0.1,0.6l0,0c-0.3,0-1.8,0.3-1.8,0.3
		c-0.1-0.3-0.1-0.6-0.1-0.6c-0.7,0.1-1.3,0.6-1.3,0.6c0-0.1,0.3-0.4,0.3-0.4c-0.1,0-1.3,0.6-1.3,0.6h-0.4c-0.4,0-1.1,0.1-1.1,0.1
		l-3.7,0.3c0.3-0.4,0-0.6,0-0.6c-0.7,0.4-0.6,1.3-0.6,1.3c-1.3-0.1-3.2,0.6-3.2,0.6l-1.3,0.1c0-0.1,0-1.1,0-1.1
		c-0.1,0.1-0.1,1.1-0.1,1.1h-0.4c-0.3-1-0.1-1.6-0.1-1.6c-0.3,0.6,0,1.6,0,1.6l-1.3,0.1l-0.1-0.7v0.7l-0.3-0.6l-0.4,0.7l-0.1-0.3
		l-0.6,0.7c-2.3,0-4.9,0.6-4.9,0.6v-0.6l-0.6,0.7v-0.6l-1,1.3c-1.4,0-3.4,0.6-3.4,0.6l0.6-0.7l-0.7,0.3l-0.6,1l0.3-0.7
		c-1,1-1.8,1.6-1.8,1.6l-0.7-0.1c0.6-0.1,1.1-1.1,1.1-1.1c1.3-0.7,4.5-1.7,4.5-1.7c0.7-0.3,6.9-1.7,6.9-1.7c3.2-0.7,7.9-1.3,7.9-1.3
		c0.3-0.1,7.2-0.7,7.2-0.7c1-0.1,6.4-0.1,6.4-0.1c2.7-0.1,3.7,0.1,3.7,0.1L-110.3,491.8z M-113.3,491.1l-5.7-0.6
		c-1-0.1-5.7-0.1-5.7-0.1c-1.3,0-5.7,0.4-5.7,0.4c-2.3,0.1-6.1,1.3-6.1,1.3c-2.7,0.7-5.2,2.4-5.2,2.4c-1.1,0.6-3.5,2.4-3.5,2.4
		c0.6-1-0.3-0.4-0.3-0.4c0-0.1,0.4-0.1,0.4-0.1c0.3,0,0.4-0.1,0.4-0.1c0-0.1-0.4-0.1-0.4-0.1c0.4-0.7,1.7-1.8,1.7-1.8
		c1-0.7,1.8-0.3,1.8-0.3c-0.3-0.3-0.3-0.7-0.3-0.7l1.6-1.3c0.4-0.4,2.7-2,2.7-2c0,0.4,0.6,0.7,0.6,0.7c-0.3-0.6-0.1-1.1-0.1-1.1v0.1
		c0,0.4,1.1,1.3,1.1,1.3v-0.3c0.3,0,1,0.1,1,0.1l0.1-0.6c0-0.3,0.3-1.1,0.3-1.1c0.1,0.1,5.1-0.3,5.1-0.3c0,0.1,1.3,0.7,1.3,0.7v-0.3
		c0-0.1,0-0.3,0-0.3c0.1,0,0.1,0,0.1,0c0.1,0.1,0.6,0.3,0.6,0.3c-0.1,0-0.6-0.7-0.6-0.7h0.3c0.6,0,3.2,0.3,3.2,0.3l0.3,0.7l-0.1-0.7
		h0.6l0.4,1.3l-0.3-1.1l0.1-0.1c0.4,0,1.4,0,1.4,0l0.3,0.6l-0.1-0.6h0.4c0.6,0,1.3-0.1,1.3-0.1c0,0.1,0.6,0.6,0.6,0.6l0.3-0.3
		c0.1-0.3-0.4-0.6-0.4-0.6c0.4,0,4.1,1.3,4.1,1.3v-0.1h0.1c0,0.1,0.7,0.4,0.7,0.4l-0.1-0.3h0.1c0.4,0.1,0.7,0.1,0.7,0.1l0.3,0.4
		l-0.1-0.4c1.1,0,2.3,0.4,2.3,0.4c0.1,0.6,3.7,1.1,3.7,1.1L-113.3,491.1z"/>
	<path class="st1" d="M-116.5,470.7L-116.5,470.7L-116.5,470.7z"/>
	<path class="st1" d="M-134.4,481.5C-134.4,481.5-134.2,481.5-134.4,481.5C-134.2,481.3-134.4,481.5-134.4,481.5z"/>
	<path class="st1" d="M-141.3,474.2L-141.3,474.2L-141.3,474.2z"/>
	<path class="st1" d="M-139.8,470.5L-139.8,470.5L-139.8,470.5z"/>
	<path class="st1" d="M-139.2,469.4L-139.2,469.4L-139.2,469.4z"/>
</g>
</svg>
