<?xml version="1.0" encoding="utf-8"?>
<!-- Generator: Adobe Illustrator 19.1.0, SVG Export Plug-In . SVG Version: 6.00 Build 0)  -->
<svg version="1.1" id="Layer_1" xmlns="http://www.w3.org/2000/svg" xmlns:xlink="http://www.w3.org/1999/xlink" x="0px" y="0px"
	 viewBox="-233 253 144 288" style="enable-background:new -233 253 144 288;" xml:space="preserve">
<style type="text/css">
	.st0{fill:#CA2027;}
</style>
<g id="b9O8Mm_1_">
	<g>
		<path d="M-192.8,258c0.3,2,0.6,3.9,0.9,5.9c1.1,6.4,1.8,12.9,3.6,19.1c4,14.1,12.9,20.3,27.5,19.9c15.3-0.4,23.6-6.9,27.2-21.9
			c1.3-5.6,2-11.4,2.9-17c0.3-2,0.6-4,0.9-6c0.5,0,1,0.1,1.5,0.1c-0.1,2.1-0.3,4.2-0.4,6.4c-0.5,8.2-1.4,16.4-1.4,24.6
			c-0.1,7.2,0.9,14.3,7.1,19.4c0.5,0.4,0.6,2,0.3,2.9c-7.8,24.1-7.1,48.3-1.5,73c-24.7,7.3-49.4,7.3-74.3,0
			c3.9-16.3,5.6-32.5,3.5-48.8c-1-8-3.1-15.8-4.9-23.7c-0.4-1.9-0.4-3,1.2-4.4c4.2-3.6,5.8-8.6,5.9-13.9c0-9.6-0.6-19.1-1-28.7
			c-0.1-2.3-0.3-4.5-0.5-6.8C-193.8,258.1-193.3,258.1-192.8,258z"/>
	</g>
</g>
<g id="b9O8Mm_2_">
	<g>
		<path class="st0" d="M-192.8,404.2c0.3,2,0.6,3.9,0.9,5.9c1.1,6.4,1.8,12.9,3.6,19.1c4,14.1,12.9,20.3,27.5,19.9
			c15.3-0.4,23.6-6.9,27.2-21.9c1.3-5.6,2-11.4,2.9-17c0.3-2,0.6-4,0.9-6c0.5,0,1,0.1,1.5,0.1c-0.1,2.1-0.3,4.2-0.4,6.4
			c-0.5,8.2-1.4,16.4-1.4,24.6c-0.1,7.2,0.9,14.3,7.1,19.4c0.5,0.4,0.6,2,0.3,2.9c-7.8,24.1-7.1,48.3-1.5,73
			c-24.7,7.3-49.4,7.3-74.3,0c3.9-16.3,5.6-32.5,3.5-48.8c-1-8-3.1-15.8-4.9-23.7c-0.4-1.9-0.4-3,1.2-4.4c4.2-3.6,5.8-8.6,5.9-13.9
			c0-9.6-0.6-19.1-1-28.7c-0.1-2.3-0.3-4.5-0.5-6.8C-193.8,404.3-193.3,404.2-192.8,404.2z"/>
	</g>
</g>
</svg>
