<?xml version="1.0" encoding="utf-8"?>
<!-- Generator: Adobe Illustrator 19.1.0, SVG Export Plug-In . SVG Version: 6.00 Build 0)  -->
<svg version="1.1" id="Layer_1" xmlns="http://www.w3.org/2000/svg" xmlns:xlink="http://www.w3.org/1999/xlink" x="0px" y="0px"
	 viewBox="-233 253 144 288" style="enable-background:new -233 253 144 288;" xml:space="preserve">
<style type="text/css">
	.st0{stroke:#FFFFFF;stroke-miterlimit:10;}
	.st1{fill:#CC0000;stroke:#FFFFFF;stroke-miterlimit:10;}
</style>
<g>
	<path class="st0" d="M-126.9,384c0-0.1-0.1-0.1-0.1-0.2C-127,383.8-127,383.8-126.9,384z"/>
	<path class="st0" d="M-108.6,311c0,0,0-0.1,0-0.2C-108.6,310.8-108.5,310.8-108.6,311c0.1-0.1,0-0.2,0-0.2c0-0.2-0.1-0.7-0.2-1.2
		c-1-5.3-3.8-21.3-8.2-33.3c-0.2-1-1.6-5.8-5.9-8.7c-2.6-1.7-6.7-3.4-11.1-5.5c-3.2-1.4-6.7-3-9.2-4.4c-3.5,11-13.3,12.5-17.4,12.8
		c-0.1,0-0.1,0-0.1,0h-0.1h-0.2c-12.8,0-17.3-8.4-18.9-12.4c-2.3,1.2-7.3,3.8-18.5,9.9c-1.4,0.6-5.5,2.9-6.7,7.4
		c-0.1,0.3-0.3,1.1-0.9,2.6c-0.4,1.4-1.2,3.9-2,7.1c-1.4,5.7-3.2,14.5-4.1,25.5c0,0.3,0,0.6,0.2,0.9c0.1,0.1,0.3,0.2,0.4,0.2h0.1
		c2,0.9,7.4,2.7,14.6,2.6c1.1,0,2.3,0,3.3-0.1c0.1,0,0.3-0.1,0.6-0.2c0,13.3-0.1,34.9-1.1,46c-0.3,7.8-2.6,23.3-2.7,24.3
		c-0.1,0.2-0.1,0.3,0,0.6c0.1,0.4,0.4,0.7,1,0.7c0.1,0,0.1,0,0.2,0c0.3,0,1.1,0.1,1.9,0.2c4.3,0.6,14.8,2,30.6,2
		c11.1,0,22.7-0.7,34.4-2.1c0.6,0,1-0.4,1-1.1c0-0.1,0-0.1,0-0.2c-0.2-1.7-2.8-23.7-3-28.7c0-0.1,0-0.1,0-0.1
		c-0.4-3.9,0-27.2,0.4-41.5c0.4,0.1,1.1,0.2,2.1,0.3s3,0.3,5.3,0.3c4.4,0,8.9-0.7,13-2.1C-108.9,312.1-108.5,311.5-108.6,311
		L-108.6,311z M-193.3,312.8l-0.4,0.4c-0.1,0-6.9-5-17.1-2.3c-0.3,0.1-0.7-0.1-0.7-0.4c-0.1-0.3,0.1-0.7,0.4-0.7
		c11-3,18.2,2.6,18.3,2.7L-193.3,312.8z M-201.4,271.2c-0.4-0.3-0.2-0.9-0.2-1c0.1-0.3,0.3-0.4,0.7-0.4c0.1,0,0.2,0.1,0.3,0.1
		c1.3,1.1,7.5,8.2,9.3,41.3c0,0.4-0.2,0.9-0.7,1c-0.3,0-0.6-0.3-0.6-0.7C-194.3,278-200.6,271.9-201.4,271.2z M-127.4,384.1
		c0.1,0.3-0.1,0.7-0.4,0.7c0,0.1-0.1,0.1-0.1,0.1c-0.1,0-0.2,0-0.3-0.1c-1.7-0.7-27.1-5.2-66.9-0.1c-0.3,0-0.6-0.2-0.7-0.4
		c0-0.3,0.2-0.6,0.4-0.7c21.7-2.8,38.8-2.7,49.3-2.1c6.3,0.3,10.8,1,13.5,1.3C-127.6,383.4-127.5,383.7-127.4,384.1z M-130.2,312.2
		c-0.3,0-0.6-0.3-0.6-0.9c1.8-33.4,8.1-40.4,9.3-41.5c0.1-0.1,0.2-0.1,0.3-0.1c0.2,0,0.6,0.1,0.7,0.4c0.1,0.3,0,0.7-0.2,1
		c-0.7,0.6-7.1,6.8-8.8,40.3C-129.5,311.7-129.7,312.2-130.2,312.2z M-110.1,311.8c-1.7-0.6-7.9-2.4-19,1.2c-0.2,0-0.4-0.1-0.6-0.4
		c-0.1-0.3,0.1-0.7,0.3-0.9c11.4-3.8,18.2-1.8,19.9-1.1l-0.2,0.6l0.3,0.4C-109.5,312.1-110,311.8-110.1,311.8z"/>
</g>
<g>
	<path class="st1" d="M-126.9,530.9c0-0.1-0.1-0.1-0.1-0.2C-127,530.7-127,530.7-126.9,530.9z"/>
	<path class="st1" d="M-108.6,457.9c0,0,0-0.1,0-0.2C-108.6,457.7-108.5,457.7-108.6,457.9c0.1-0.1,0-0.2,0-0.2
		c0-0.2-0.1-0.7-0.2-1.2c-1-5.3-3.8-21.3-8.2-33.3c-0.2-1-1.6-5.8-5.9-8.7c-2.6-1.7-6.7-3.4-11.1-5.5c-3.2-1.4-6.7-3-9.2-4.4
		c-3.5,11-13.3,12.5-17.4,12.8c-0.1,0-0.1,0-0.1,0h-0.1h-0.2c-12.8,0-17.3-8.4-18.9-12.4c-2.3,1.2-7.3,3.8-18.5,9.9
		c-1.4,0.6-5.5,2.9-6.7,7.4c-0.1,0.3-0.3,1.1-0.9,2.6c-0.4,1.4-1.2,3.9-2,7.1c-1.4,5.7-3.2,14.5-4.1,25.5c0,0.3,0,0.6,0.2,0.9
		c0.1,0.1,0.3,0.2,0.4,0.2h0.1c2,0.9,7.4,2.7,14.6,2.6c1.1,0,2.3,0,3.3-0.1c0.1,0,0.3-0.1,0.6-0.2c0,13.3-0.1,34.9-1.1,46
		c-0.3,7.8-2.6,23.3-2.7,24.3c-0.1,0.2-0.1,0.3,0,0.6c0.1,0.4,0.4,0.7,1,0.7c0.1,0,0.1,0,0.2,0c0.3,0,1.1,0.1,1.9,0.2
		c4.3,0.6,14.8,2,30.6,2c11.1,0,22.7-0.7,34.4-2.1c0.6,0,1-0.4,1-1.1c0-0.1,0-0.1,0-0.2c-0.2-1.7-2.8-23.7-3-28.7c0-0.1,0-0.1,0-0.1
		c-0.4-3.9,0-27.2,0.4-41.5c0.4,0.1,1.1,0.2,2.1,0.3s3,0.3,5.3,0.3c4.4,0,8.9-0.7,13-2.1C-108.9,459-108.5,458.4-108.6,457.9
		L-108.6,457.9z M-193.3,459.7l-0.4,0.4c-0.1,0-6.9-5-17.1-2.3c-0.3,0.1-0.7-0.1-0.7-0.4c-0.1-0.3,0.1-0.7,0.4-0.7
		c11-3,18.2,2.6,18.3,2.7L-193.3,459.7z M-201.4,418.1c-0.4-0.3-0.2-0.9-0.2-1c0.1-0.3,0.3-0.4,0.7-0.4c0.1,0,0.2,0.1,0.3,0.1
		c1.3,1.1,7.5,8.2,9.3,41.3c0,0.4-0.2,0.9-0.7,1c-0.3,0-0.6-0.3-0.6-0.7C-194.3,424.9-200.6,418.8-201.4,418.1z M-127.4,531
		c0.1,0.3-0.1,0.7-0.4,0.7c0,0.1-0.1,0.1-0.1,0.1c-0.1,0-0.2,0-0.3-0.1c-1.7-0.7-27.1-5.2-66.9-0.1c-0.3,0-0.6-0.2-0.7-0.4
		c0-0.3,0.2-0.6,0.4-0.7c21.7-2.8,38.8-2.7,49.3-2.1c6.3,0.3,10.8,1,13.5,1.3C-127.6,530.3-127.5,530.6-127.4,531z M-130.2,459.1
		c-0.3,0-0.6-0.3-0.6-0.9c1.8-33.4,8.1-40.4,9.3-41.5c0.1-0.1,0.2-0.1,0.3-0.1c0.2,0,0.6,0.1,0.7,0.4c0.1,0.3,0,0.7-0.2,1
		c-0.7,0.6-7.1,6.8-8.8,40.3C-129.5,458.6-129.7,459.1-130.2,459.1z M-110.1,458.7c-1.7-0.6-7.9-2.4-19,1.2c-0.2,0-0.4-0.1-0.6-0.4
		c-0.1-0.3,0.1-0.7,0.3-0.9c11.4-3.8,18.2-1.8,19.9-1.1l-0.2,0.6l0.3,0.4C-109.5,459-110,458.7-110.1,458.7z"/>
</g>
</svg>
