<?xml version="1.0" encoding="utf-8"?>
<!-- Generator: Adobe Illustrator 19.1.0, SVG Export Plug-In . SVG Version: 6.00 Build 0)  -->
<svg version="1.1" id="Layer_1" xmlns="http://www.w3.org/2000/svg" xmlns:xlink="http://www.w3.org/1999/xlink" x="0px" y="0px"
	 viewBox="-233 253 144 288" style="enable-background:new -233 253 144 288;" xml:space="preserve">
<style type="text/css">
	.st0{fill:#CC0000;}
</style>
<g>
	<path class="st0" d="M-121.1,400.1h-80c-6.1,0-11.1,5-11.1,11.1v117.1c0,6.1,5,11.1,11.1,11.1h80c6.1,0,11.1-5,11.1-11.1V411.2
		C-110,405.1-115,400.1-121.1,400.1z M-161.1,534.2c-4.5,0-8.2-3.7-8.2-8.2s3.7-8.2,8.2-8.2s8.2,3.7,8.2,8.2
		S-156.6,534.2-161.1,534.2z M-120.4,496.5c0,6.1-5,11.1-11.1,11.1h-59.3c-6.1,0-11.1-5-11.1-11.1v-74.9c0-6.1,5-11.1,11.1-11.1
		h59.3c6.1,0,11.1,5,11.1,11.1L-120.4,496.5L-120.4,496.5z"/>
	<path class="st0" d="M-190.8,443.1h59.3v5.9h-59.3V443.1z"/>
	<path class="st0" d="M-190.8,432h59.3v5.9h-59.3V432z"/>
	<path class="st0" d="M-190.8,463.8h59.3v5.9h-59.3V463.8z"/>
	<path class="st0" d="M-190.8,475h59.3v5.9h-59.3V475z"/>
	<path class="st0" d="M-190.8,485.3h37.8v5.9h-37.8V485.3z"/>
	<path class="st0" d="M-190.8,420.9h59.3v5.9h-59.3V420.9z"/>
	<path class="st0" d="M-190.8,453.5h59.3v5.9h-59.3V453.5z"/>
</g>
<g>
	<path d="M-121.1,253h-80c-6.1,0-11.1,5-11.1,11.1v117.1c0,6.1,5,11.1,11.1,11.1h80c6.1,0,11.1-5,11.1-11.1V264.1
		C-110,258-115,253-121.1,253z M-161.1,387.1c-4.5,0-8.2-3.7-8.2-8.2s3.7-8.2,8.2-8.2s8.2,3.7,8.2,8.2S-156.6,387.1-161.1,387.1z
		 M-120.4,349.3c0,6.1-5,11.1-11.1,11.1h-59.3c-6.1,0-11.1-5-11.1-11.1v-74.9c0-6.1,5-11.1,11.1-11.1h59.3c6.1,0,11.1,5,11.1,11.1
		L-120.4,349.3L-120.4,349.3z"/>
	<path d="M-190.8,296h59.3v5.9h-59.3V296z"/>
	<path d="M-190.8,284.9h59.3v5.9h-59.3V284.9z"/>
	<path d="M-190.8,316.7h59.3v5.9h-59.3V316.7z"/>
	<path d="M-190.8,327.9h59.3v5.9h-59.3V327.9z"/>
	<path d="M-190.8,338.2h37.8v5.9h-37.8V338.2z"/>
	<path d="M-190.8,273.8h59.3v5.9h-59.3V273.8z"/>
	<path d="M-190.8,306.4h59.3v5.9h-59.3V306.4z"/>
</g>
</svg>
