<?xml version="1.0" encoding="utf-8"?>
<!-- Generator: Adobe Illustrator 19.1.0, SVG Export Plug-In . SVG Version: 6.00 Build 0)  -->
<svg version="1.1" id="Layer_1" xmlns="http://www.w3.org/2000/svg" xmlns:xlink="http://www.w3.org/1999/xlink" x="0px" y="0px"
	 viewBox="-233 253 144 288" style="enable-background:new -233 253 144 288;" xml:space="preserve">
<style type="text/css">
	.st0{fill:#1D1D1B;}
	.st1{fill:#CC0000;}
</style>
<path class="st0" d="M-136.6,368.3c-2-4.6-7.3-6.6-11.8-4.7c-5.8,2.6-12,3.8-18.4,3.8c-25.4,0-46.1-20.7-46.1-46.1
	c0-12.3,4.8-23.9,13.4-32.5c8.6-8.6,20.3-13.4,32.5-13.4s23.9,4.8,32.5,13.4c8.6,8.6,13.3,20.1,13.4,32.2l-12.6,0.1l22,26.9
	l21.3-27.3l-12.6,0.1c-0.1-17-6.7-32.8-18.8-44.8l0,0c-12.1-12.1-28.2-18.7-45.2-18.7S-200,264-212,276.1
	c-12.2,12.1-18.8,28.2-18.8,45.2s6.6,33.2,18.8,45.2c12.1,12.2,28.2,18.8,45.2,18.8c8.9,0,17.5-1.8,25.5-5.3
	C-136.7,378.2-134.6,372.8-136.6,368.3z"/>
<path class="st1" d="M-136.6,515.5c-2-4.6-7.3-6.6-11.8-4.7c-5.8,2.6-12,3.8-18.4,3.8c-25.4,0-46.1-20.7-46.1-46.1
	c0-12.3,4.8-23.9,13.4-32.5c8.6-8.6,20.3-13.4,32.5-13.4s23.9,4.8,32.5,13.4c8.6,8.6,13.3,20.1,13.4,32.2l-12.6,0.1l22,26.9
	l21.3-27.3l-12.6,0.1c-0.1-17-6.7-32.8-18.8-44.8l0,0c-12.1-12.1-28.2-18.7-45.2-18.7s-33.2,6.6-45.2,18.8
	c-12.2,12.1-18.8,28.2-18.8,45.2s6.6,33.2,18.8,45.2c12.1,12.2,28.2,18.8,45.2,18.8c8.9,0,17.5-1.8,25.5-5.3
	C-136.7,525.3-134.6,520-136.6,515.5z"/>
</svg>
