<?xml version="1.0" encoding="utf-8"?>
<!-- Generator: Adobe Illustrator 19.1.0, SVG Export Plug-In . SVG Version: 6.00 Build 0)  -->
<svg version="1.1" id="Layer_1" xmlns="http://www.w3.org/2000/svg" xmlns:xlink="http://www.w3.org/1999/xlink" x="0px" y="0px"
	 viewBox="-233 253 144 288" style="enable-background:new -233 253 144 288;" xml:space="preserve">
<style type="text/css">
	.st0{fill:#CC0000;}
</style>
<g id="yQSqh6.tif">
	<g>
		<path d="M-240.6,389.2c20.4,0,40.8,0,61.4,0c-0.3-0.5-0.5-0.9-0.8-1.3c-9.8-15.6-19.6-31.2-29.4-46.9c-0.9-1.4-1-2.8-0.4-4.4
			c2.2-6.6,4.4-13,6.6-19.6c0.4-0.9-0.3-1.2-0.8-1.5c-8.4-5.9-15.6-13-20.9-21.7c-4.3-6.8-6.5-14.3-5.2-22.5
			c1.2-7.4,5.7-12.5,12.3-13.8c4.9-1.2,9.6,0.1,13.9,2.6c7.1,3.9,12,9.9,15.6,17c4.3,8.5,7.1,17.4,8,27c0.4,3.7,0.3,7.4-1.3,10.8
			c-1.5,3.6-4.3,5.6-8.1,5.8c-0.3,0-0.5,0-0.8,0c-0.1,0-0.1,0-0.4,0.1c0.5,2.5,1.9,4,4.3,4.8c2.5,0.8,5,0,6.5-1.9
			c1.7-2.1,1.9-4.4,0.6-6.7c-0.5-0.9-0.5-1.5-0.3-2.5c1-3,1.3-6.1,1-9.3c0-1-0.1-2.1-0.1-3.2c3.2,0.4,6.2,0.8,9.3,1.2
			c3.4,0.4,6.7,0.9,10.2,1.3c1.9,0.1,3.2,1,4.4,2.7c14.5,23.1,29,46.2,43.5,69.4c1.7,2.7,1.3,4.1-1.3,5.8c-3.4,2.2-6.8,4.3-10.2,6.7
			c20.7,0,41.2,0,61.8,0c0,0.8,0,1.4,0,2.2c-59.8,0-119.7,0-179.4,0C-240.6,390.7-240.6,389.9-240.6,389.2z M-190.2,316.8
			c0.1,0.1,0.3,0.4,0.4,0.5c1.7,0.1,3.2-0.5,4.3-1.9c1.4-1.8,1.9-4.1,1.9-6.3c0.1-13-3.9-24.9-11-35.8c-3.7-5.9-9-10.3-16-12.3
			c-5.4-1.5-10.6,0-13.6,4.3c-1.9,2.7-2.7,5.8-2.8,9c-0.1,6.1,1.5,11.5,4.5,16.7c3.4,5.9,7.9,10.8,12.9,15.4c2.5,2.2,5,4.1,7.6,6.3
			c0.3-0.5,0.4-0.6,0.4-0.9c1-3,1.9-5.9,3-8.9c0.6-1.9,1.8-3,3.7-2.8c2.8,0.3,5.6,0.6,8.4,1c0.3,0,0.8,0.4,0.9,0.6
			c0.5,3.7,0.9,7.5-0.5,11.2c-0.3,0.5-0.8,1-1.3,1.4C-188.3,315.3-189.3,316.1-190.2,316.8z M-163.5,335.7c2.5,4.5,4.8,8.8,7.1,13.2
			c0.4,0.8,0.9,1,1.7,0.5c0.4-0.3,0.8-0.5,1.2-0.8c1.8-1,1.8-1,1-3c-0.4-0.9-0.1-1.4,0.6-1.9c0.8-0.5,1.4-0.5,1.9,0.3
			c1.3,2.1,2.6,4.1,3.7,6.2c0.4,0.8,0.1,1.4-0.6,1.8c-0.8,0.5-1.4,0.4-1.9-0.3c-0.4-0.5-0.6-1-1-1.5c-1-1.7-1-1.7-2.7-0.6
			c-3,1.8-2.8,1.3-0.9,4.3c1.4,2.2,3.4,3.6,6.2,3.4c4.1-0.4,7.2-4.3,5.9-8c-1.3-3.7-3.4-7-6.1-9.9c-1-1-2.3-1.4-3.7-1.2
			c-1.8,0.3-3.1,1.3-4.1,2.8c-0.6-1.3-1.3-2.3-1.9-3.6c1.7-1,3.4-2.1,5-3.1c0.6-0.4,1-0.9,0.5-1.5c-0.8-0.9-0.8-2.6-2.5-2.8
			c-0.1,0-0.1,0.1-0.3,0.1C-157.2,331.8-160.3,333.7-163.5,335.7z M-184.9,346.6c-0.9,0.6-1.9,1.2-2.8,1.9c-0.1,0.1-0.1,0.6,0,0.8
			c0.8,0.9,0.1,1.5-0.3,2.5c-0.4,0.6-0.5,1.4-0.6,2.2c-0.1,4.1,3,7.7,7.2,8.6c1.5,0.4,3.2,0.5,4.8,0.9c1.5,0.4,2.8,1.2,3.2,2.8
			c0.1,0.4-0.1,1.2-0.4,1.5c-1,1-1.8,0.6-2.8-1c-1.2-1.8-1.2-1.8-3-0.8c-2.5,1.5-2.6,1.5-0.9,4c1.5,2.2,3.5,3.6,6.3,3.2
			c0.3,0,0.9,0.3,1,0.6c0.5,0.8,1,0.8,1.7,0.3c0.5-0.4,1-0.6,1.7-1c0.6-0.4,0.8-0.9,0.5-1.5c-0.1-0.4,0-0.9,0.1-1.4
			c0.3-1.3,0.9-2.6,0.9-3.7c0-3.4-2.8-6.7-6.3-7.6c-1.5-0.4-3.1-0.6-4.6-0.9c-1.9-0.4-3.5-1-4.4-3c-0.4-0.9-0.1-1.4,0.5-1.8
			c0.8-0.5,1.4-0.3,1.9,0.4c1.5,1.8,1.5,1.8,3.6,0.5c0.4-0.3,0.8-0.4,1-0.6c0.3-0.3,0.5-0.9,0.4-1.2c-1-2.1-3.2-4.4-5.9-4.3
			c-0.9,0-1.8,0.3-2.3-0.9C-184.1,346.9-184.5,346.8-184.9,346.6z M-168.4,344.2c0.3,0.6,0.4,1.2,0.5,1.5c1.8,6.3,3.6,12.6,5.6,18.8
			c0.5,1.5,0.6,1.7,2.1,0.8c0.5-0.4,1-0.6,1.7-1c0.9-0.4,1.2-1,0.8-2.1c-1.4-4.8-2.8-9.7-4.3-14.5c-0.9-3.1-1.4-6.5-3.4-9.3
			c-0.6-1-1.2-1.2-2.2-0.5c-2.5,1.5-5,3.1-7.5,4.6c-2.8,1.7-2.7,1.2-1,4.1c0.9,1.4,0.9,1.4,2.5,0.5
			C-171.9,346.4-170.2,345.4-168.4,344.2z"/>
	</g>
</g>
<g id="yQSqh6.tif_1_">
	<g>
		<path class="st0" d="M-240.6,536.6c20.4,0,40.8,0,61.4,0c-0.3-0.5-0.5-0.9-0.8-1.3c-9.8-15.6-19.6-31.2-29.4-46.9
			c-0.9-1.4-1-2.8-0.4-4.4c2.2-6.6,4.4-13,6.6-19.6c0.4-0.9-0.3-1.2-0.8-1.5c-8.4-5.9-15.6-13-20.9-21.7c-4.3-6.8-6.5-14.3-5.2-22.5
			c1.2-7.4,5.7-12.5,12.3-13.8c4.9-1.2,9.6,0.1,13.9,2.6c7.1,3.9,12,9.9,15.6,17c4.3,8.5,7.1,17.4,8,27c0.4,3.7,0.3,7.4-1.3,10.8
			c-1.5,3.6-4.3,5.6-8.1,5.8c-0.3,0-0.5,0-0.8,0c-0.1,0-0.1,0-0.4,0.1c0.5,2.5,1.9,4,4.3,4.8c2.5,0.8,5,0,6.5-1.9
			c1.7-2.1,1.9-4.4,0.6-6.7c-0.5-0.9-0.5-1.5-0.3-2.5c1-3,1.3-6.1,1-9.3c0-1-0.1-2.1-0.1-3.2c3.2,0.4,6.2,0.8,9.3,1.2
			c3.4,0.4,6.7,0.9,10.2,1.3c1.9,0.1,3.2,1,4.4,2.7c14.5,23.1,29,46.2,43.5,69.4c1.7,2.7,1.3,4.1-1.3,5.8c-3.4,2.2-6.8,4.3-10.2,6.7
			c20.7,0,41.2,0,61.8,0c0,0.8,0,1.4,0,2.2c-59.8,0-119.7,0-179.4,0C-240.6,538-240.6,537.2-240.6,536.6z M-190.2,464.2
			c0.1,0.1,0.3,0.4,0.4,0.5c1.7,0.1,3.2-0.5,4.3-1.9c1.4-1.8,1.9-4.1,1.9-6.3c0.1-13-3.9-24.9-11-35.8c-3.7-5.9-9-10.3-16-12.3
			c-5.4-1.5-10.6,0-13.6,4.3c-1.9,2.7-2.7,5.8-2.8,9c-0.1,6.1,1.5,11.5,4.5,16.7c3.4,5.9,7.9,10.8,12.9,15.4c2.5,2.2,5,4.1,7.6,6.3
			c0.3-0.5,0.4-0.6,0.4-0.9c1-3,1.9-5.9,3-8.9c0.6-1.9,1.8-3,3.7-2.8c2.8,0.3,5.6,0.6,8.4,1c0.3,0,0.8,0.4,0.9,0.6
			c0.5,3.7,0.9,7.5-0.5,11.2c-0.3,0.5-0.8,1-1.3,1.4C-188.3,462.6-189.3,463.4-190.2,464.2z M-163.5,483c2.5,4.5,4.8,8.8,7.1,13.2
			c0.4,0.8,0.9,1,1.7,0.5c0.4-0.3,0.8-0.5,1.2-0.8c1.8-1,1.8-1,1-3c-0.4-0.9-0.1-1.4,0.6-1.9c0.8-0.5,1.4-0.5,1.9,0.3
			c1.3,2.1,2.6,4.1,3.7,6.2c0.4,0.8,0.1,1.4-0.6,1.8c-0.8,0.5-1.4,0.4-1.9-0.3c-0.4-0.5-0.6-1-1-1.5c-1-1.7-1-1.7-2.7-0.6
			c-3,1.8-2.8,1.3-0.9,4.3c1.4,2.2,3.4,3.6,6.2,3.4c4.1-0.4,7.2-4.3,5.9-8c-1.3-3.7-3.4-7-6.1-9.9c-1-1-2.3-1.4-3.7-1.2
			c-1.8,0.3-3.1,1.3-4.1,2.8c-0.6-1.3-1.3-2.3-1.9-3.6c1.7-1,3.4-2.1,5-3.1c0.6-0.4,1-0.9,0.5-1.5c-0.8-0.9-0.8-2.6-2.5-2.8
			c-0.1,0-0.1,0.1-0.3,0.1C-157.2,479.2-160.3,481.1-163.5,483z M-184.9,494c-0.9,0.6-1.9,1.2-2.8,1.9c-0.1,0.1-0.1,0.6,0,0.8
			c0.8,0.9,0.1,1.5-0.3,2.5c-0.4,0.6-0.5,1.4-0.6,2.2c-0.1,4.1,3,7.7,7.2,8.6c1.5,0.4,3.2,0.5,4.8,0.9c1.5,0.4,2.8,1.2,3.2,2.8
			c0.1,0.4-0.1,1.2-0.4,1.5c-1,1-1.8,0.6-2.8-1c-1.2-1.8-1.2-1.8-3-0.8c-2.5,1.5-2.6,1.5-0.9,4c1.5,2.2,3.5,3.6,6.3,3.2
			c0.3,0,0.9,0.3,1,0.6c0.5,0.8,1,0.8,1.7,0.3c0.5-0.4,1-0.6,1.7-1s0.8-0.9,0.5-1.5c-0.1-0.4,0-0.9,0.1-1.4c0.3-1.3,0.9-2.6,0.9-3.7
			c0-3.4-2.8-6.7-6.3-7.6c-1.5-0.4-3.1-0.6-4.6-0.9c-1.9-0.4-3.5-1-4.4-3c-0.4-0.9-0.1-1.4,0.5-1.8c0.8-0.5,1.4-0.3,1.9,0.4
			c1.5,1.8,1.5,1.8,3.6,0.5c0.4-0.3,0.8-0.4,1-0.6c0.3-0.3,0.5-0.9,0.4-1.2c-1-2.1-3.2-4.4-5.9-4.3c-0.9,0-1.8,0.3-2.3-0.9
			C-184.1,494.3-184.5,494.1-184.9,494z M-168.4,491.5c0.3,0.6,0.4,1.2,0.5,1.5c1.8,6.3,3.6,12.6,5.6,18.8c0.5,1.5,0.6,1.7,2.1,0.8
			c0.5-0.4,1-0.6,1.7-1c0.9-0.4,1.2-1,0.8-2.1c-1.4-4.8-2.8-9.7-4.3-14.5c-0.9-3.1-1.4-6.5-3.4-9.3c-0.6-1-1.2-1.2-2.2-0.5
			c-2.5,1.5-5,3.1-7.5,4.6c-2.8,1.7-2.7,1.2-1,4.1c0.9,1.4,0.9,1.4,2.5,0.5C-171.9,493.7-170.2,492.7-168.4,491.5z"/>
	</g>
</g>
</svg>
