<?xml version="1.0" encoding="utf-8"?>
<!-- Generator: Adobe Illustrator 19.1.0, SVG Export Plug-In . SVG Version: 6.00 Build 0)  -->
<svg version="1.1" id="Layer_1" xmlns="http://www.w3.org/2000/svg" xmlns:xlink="http://www.w3.org/1999/xlink" x="0px" y="0px"
	 viewBox="-233 253 144 288" style="enable-background:new -233 253 144 288;" xml:space="preserve">
<style type="text/css">
	.st0{fill:#CC0000;}
</style>
<g>
	<path d="M-158.7,384.5c-9.3-13.5-21.7-24.2-35.3-33.6c-7.3-4.9-13.7-10.7-19-17.6c-0.7-0.9-1.3-1.2-2.4-1.1c-3.9,0-7.8,0-11.7,0
		c-2,0-3.3-0.8-4-2.6c-0.7-1.9-0.8-3.8,0.7-5.3c0.7-0.7,1.9-1.1,2.9-1.1c11.6-0.1,23.2,0,34.7,0c2,0,4.1,0,6.1,0
		c2.3,0,3.5-0.8,4.3-3c1.6-4.6,3.2-9.2,5-14.1c0.6,2,1.1,3.8,1.5,5.5c3.1,10.4,6,20.9,9,31.4c0.4,1.5,1.1,3,1.8,4.4
		c0.9,1.6,2,1.6,2.9,0c0.7-1.3,1.3-2.6,1.8-4c2.6-7.4,5.2-14.8,7.7-22.2c0.3-0.9,0.7-1.3,1.7-1.2c3.3,0.1,6.5,0,9.8,0
		c0.8,0,1.2,0.2,1.6,1c2.2,4.6,7.2,7,12.1,5.9c5-1.1,8.4-5.4,8.5-10.6c0-5-3.4-9.4-8.3-10.6c-4.9-1.2-9.9,1.2-12.1,5.7
		c-0.4,0.9-0.9,1.1-1.8,1.1c-4.3,0-8.5,0-12.8,0c-2.7,0-3.7,0.8-4.5,3.2c-1.3,3.8-2.6,7.6-4,11.4c-0.1,0.4-0.3,0.8-0.6,1.5
		c-0.6-2.3-1.2-4.2-1.7-6.2c-2.7-9.8-5.4-19.6-8.2-29.4c-0.6-2.2-1.8-3.2-3.5-3.3c-1.8-0.1-3.1,1-3.9,3.1c-2.5,7.1-5,14.2-7.5,21.3
		c-0.3,1-0.8,1.3-1.8,1.3c-11.2,0-22.3,0-33.5,0c-1,0-1.4-0.3-1.7-1.2c-2-5.8-2.3-11.7-1.7-17.7c0.8-8.3,3-16.1,7.9-23
		c6.4-8.9,15-13.9,26-14c9.6-0.1,17.6,4,24.2,10.9c2.1,2.1,3.9,4.5,5.5,7c1.6,2.4,2.9,5.1,4.4,7.7c0.2-0.4,0.4-0.8,0.6-1.2
		c4.1-8.9,10.1-16.1,19-20.4c16.5-8,35.1-1.5,43.6,15.5c3.9,7.9,5.1,16.3,4.9,25c-0.4,12.8-5.3,23.5-14.6,32.1
		c-4.7,4.3-9.7,8.3-14.9,12c-11.9,8.5-22.9,17.8-32.6,28.7C-154.9,379.3-156.8,382.1-158.7,384.5z"/>
</g>
<g>
	<path class="st0" d="M-158.7,531c-9.3-13.5-21.7-24.2-35.3-33.6c-7.3-4.9-13.7-10.7-19-17.6c-0.7-0.9-1.3-1.2-2.4-1.1
		c-3.9,0-7.8,0-11.7,0c-2,0-3.3-0.8-4-2.6c-0.7-1.9-0.8-3.8,0.7-5.3c0.7-0.7,1.9-1.1,2.9-1.1c11.6-0.1,23.2,0,34.7,0
		c2,0,4.1,0,6.1,0c2.3,0,3.5-0.8,4.3-3c1.6-4.6,3.2-9.2,5-14.1c0.6,2,1.1,3.8,1.5,5.5c3.1,10.4,6,20.9,9,31.4c0.4,1.5,1.1,3,1.8,4.4
		c0.9,1.6,2,1.6,2.9,0c0.7-1.3,1.3-2.6,1.8-4c2.6-7.4,5.2-14.8,7.7-22.2c0.3-0.9,0.7-1.3,1.7-1.2c3.3,0.1,6.5,0,9.8,0
		c0.8,0,1.2,0.2,1.6,1c2.2,4.6,7.2,7,12.1,5.9c5-1.1,8.4-5.4,8.5-10.6c0-5-3.4-9.4-8.3-10.6c-4.9-1.2-9.9,1.2-12.1,5.7
		c-0.4,0.9-0.9,1.1-1.8,1.1c-4.3,0-8.5,0-12.8,0c-2.7,0-3.7,0.8-4.5,3.2c-1.3,3.8-2.6,7.6-4,11.4c-0.1,0.4-0.3,0.8-0.6,1.5
		c-0.6-2.3-1.2-4.2-1.7-6.2c-2.7-9.8-5.4-19.6-8.2-29.4c-0.6-2.2-1.8-3.2-3.5-3.3c-1.8-0.1-3.1,1-3.9,3.1c-2.5,7.1-5,14.2-7.5,21.3
		c-0.3,1-0.8,1.3-1.8,1.3c-11.2,0-22.3,0-33.5,0c-1,0-1.4-0.3-1.7-1.2c-2-5.8-2.3-11.7-1.7-17.7c0.8-8.3,3-16.1,7.9-23
		c6.4-8.9,15-13.9,26-14c9.6-0.1,17.6,4,24.2,10.9c2.1,2.1,3.9,4.5,5.5,7c1.6,2.4,2.9,5.1,4.4,7.7c0.2-0.4,0.4-0.8,0.6-1.2
		c4.1-8.9,10.1-16.1,19-20.4c16.5-8,35.1-1.5,43.6,15.5c3.9,7.9,5.1,16.3,4.9,25c-0.4,12.8-5.3,23.5-14.6,32.1
		c-4.7,4.3-9.7,8.3-14.9,12c-11.9,8.5-22.9,17.8-32.6,28.7C-154.9,525.8-156.8,528.6-158.7,531z"/>
</g>
</svg>
