<?xml version="1.0" encoding="utf-8"?>
<!-- Generator: Adobe Illustrator 19.1.0, SVG Export Plug-In . SVG Version: 6.00 Build 0)  -->
<svg version="1.1" id="Layer_1" xmlns="http://www.w3.org/2000/svg" xmlns:xlink="http://www.w3.org/1999/xlink" x="0px" y="0px"
	 viewBox="-233 253 144 288" style="enable-background:new -233 253 144 288;" xml:space="preserve">
<style type="text/css">
	.st0{fill:#010101;}
	.st1{fill:#CC0000;}
</style>
<path class="st0" d="M-115.4,335.5c-8.7-1.8-14.8,4.7-14.8,4.7s3.5,2.8,4.4,6.1c1,4-1.2,9.1-1.2,9.1s-0.4-7.6-3.7-11.5
	c-3.7-4.4-9.1-6.7-12.5-7.8c-8.7-3-16.3-3.3-21.4-2c-9.7,2.5-18.6,11.7-18.6,11.7s0.5-3.7,1.9-4.9c3.9-3.3,9.2-6.9,9.2-6.9
	s2.3-11.2,1.2-14.2s-6.1-15.9-5.2-19.1c0.9-3.3,7.8-20.6,6.5-21.9c-7.6-7.4-1.3-6.8-1.3-6.8s2.7,7.7,3.8,8.3
	c1.1,0.6,5.4,0.1,6.9,0.3c1.4,0.3,6.9,3.9,8,3.2c1.1-0.7,3.1-1.4,3.4-1.3c0.4,0.1,1.4-2.3,0.6-3c-0.7-0.9,5.2-4.7,5.8-6
	c1.1-2.5-7.4-12.4-9.4-15.3c-2-2.9-4-1.4-7.1-1.4c-3.4,0-14,0.8-14,0.8c-4.3,1-5.3,1.1-11.5,10.6c-2,3.3-18.6,41.3-20.6,44.5
	c-2,3.4-9.7,17.1-10.9,23.6s1.3,12.8,1.5,16c0.2,3.3-1.8,9-1.6,10.9c0.2,1.8,10,0.2,12.5,4.9c3.2,6.1,22.8,14.2,34.5,14.6
	c8.6,1.8,34.9,2.9,45.7,4c3,0.3,4.3,2.3,4.3,2.3l13.4-47.9C-105.7,341.1-111.4,336.4-115.4,335.5z M-148.5,368.1
	c-10.6,1.5-18.5-6.5-18.5-6.5s12.5,5.7,19.1,4c6.7-1.7,14.6-7.3,14.6-7.3S-137.9,366.7-148.5,368.1z M-160.4,276.9
	c-0.3,2.8-5.6,3.6-5.6,3.6s4.5-2.3,4.3-4.1c-0.2-1.8-2.5-4.5-2.5-4.5S-160,274.1-160.4,276.9z M-152.6,276.7
	c-0.4,3.1-5.5,4.1-5.5,4.1s4.4-2.6,4.3-4.6c-0.1-2-2.2-4.9-2.2-4.9S-152.2,273.6-152.6,276.7z M-145.6,274.4
	c-0.4,3.1-5.5,4.1-5.5,4.1s4.4-2.6,4.3-4.6s-2.2-4.9-2.2-4.9S-145.2,271.2-145.6,274.4z"/>
<path class="st1" d="M-115.4,482.5c-8.7-1.8-14.8,4.7-14.8,4.7s3.5,2.8,4.4,6.1c1,4-1.2,9.1-1.2,9.1s-0.4-7.6-3.7-11.5
	c-3.7-4.4-9.1-6.7-12.5-7.8c-8.7-3-16.3-3.3-21.4-2c-9.7,2.5-18.6,11.7-18.6,11.7s0.5-3.7,1.9-4.9c3.9-3.3,9.2-6.9,9.2-6.9
	s2.3-11.2,1.2-14.2s-6.1-15.9-5.2-19.1c0.9-3.3,7.8-20.6,6.5-21.9c-7.6-7.4-1.3-6.8-1.3-6.8s2.7,7.7,3.8,8.3
	c1.1,0.6,5.4,0.1,6.9,0.3c1.4,0.3,6.9,3.9,8,3.2c1.1-0.7,3.1-1.4,3.4-1.3c0.4,0.1,1.4-2.3,0.6-3c-0.7-0.9,5.2-4.7,5.8-6
	c1.1-2.5-7.4-12.4-9.4-15.3c-2-2.9-4-1.4-7.1-1.4c-3.4,0-14,0.8-14,0.8c-4.3,1-5.3,1.1-11.5,10.6c-2,3.3-18.6,41.3-20.6,44.5
	c-2,3.4-9.7,17.1-10.9,23.6s1.3,12.8,1.5,16c0.2,3.3-1.8,9-1.6,10.9c0.2,1.8,10,0.2,12.5,4.9c3.2,6.1,22.8,14.2,34.5,14.6
	c8.6,1.8,34.9,2.9,45.7,4c3,0.3,4.3,2.3,4.3,2.3l13.4-47.9C-105.7,488.1-111.4,483.4-115.4,482.5z M-148.5,515.1
	c-10.6,1.5-18.5-6.5-18.5-6.5s12.5,5.7,19.1,4c6.7-1.7,14.6-7.3,14.6-7.3S-137.9,513.7-148.5,515.1z M-160.4,423.9
	c-0.3,2.8-5.6,3.6-5.6,3.6s4.5-2.3,4.3-4.1c-0.2-1.8-2.5-4.5-2.5-4.5S-160,421.1-160.4,423.9z M-152.6,423.7
	c-0.4,3.1-5.5,4.1-5.5,4.1s4.4-2.6,4.3-4.6c-0.1-2-2.2-4.9-2.2-4.9S-152.2,420.6-152.6,423.7z M-145.6,421.4
	c-0.4,3.1-5.5,4.1-5.5,4.1s4.4-2.6,4.3-4.6s-2.2-4.9-2.2-4.9S-145.2,418.2-145.6,421.4z"/>
</svg>
