<?xml version="1.0" encoding="utf-8"?>
<!-- Generator: Adobe Illustrator 19.1.0, SVG Export Plug-In . SVG Version: 6.00 Build 0)  -->
<svg version="1.1" id="Layer_1" xmlns="http://www.w3.org/2000/svg" xmlns:xlink="http://www.w3.org/1999/xlink" x="0px" y="0px"
	 viewBox="-233 253 144 288" style="enable-background:new -233 253 144 288;" xml:space="preserve">
<style type="text/css">
	.st0{fill:#CC0000;}
</style>
<g>
	<path d="M-189.9,297.2c0.1,0.4,0.4,1.5,0.6,2.1c1.4,3.2,5.2,5.6,8,7.6c10,7.1,17.7,14.1,25,20.7c9.2,8.3,17.8,16.7,29.2,23.1
		c7.1,4,17.2,9.4,25.1,10.1c3.8,0.4,8-1,10.3-4c0.1-0.1,0.1-0.2,0.2-0.2c-0.1-0.3-2.4-4.6-2.8-5.3c-0.6-1-1.4-1.7-2.5-2.1
		c-7.6-2.6-13.9-6.2-18.7-11l-0.1-0.1c-1.5-1.9-2.8-3.9-4-5.8c-0.3-0.5-0.3-1.2,0-1.7c0.6-0.9-0.1-2.1-1.1-2.1
		c-0.6,0-1.2-0.3-1.4-0.9c-0.2-0.5-0.5-0.9-0.7-1.4s-0.2-1.1,0.1-1.6c0.6-0.8,0.1-1.9-0.9-2.1c-0.6-0.1-1-0.5-1.2-1
		c-0.3-0.7-0.5-1.3-0.7-2c-0.2-0.6-0.1-1.2,0.4-1.7c0.7-0.8,0.3-2.1-0.7-2.3c-0.6-0.1-1.1-0.5-1.3-1.2c-0.2-0.8-0.5-1.7-0.7-2.5
		c-0.2-0.6,0-1.2,0.5-1.6c1-0.9,0.1-2.6-1.2-2.3l-0.3,0.1l-0.2-1l-0.5-2.8c-0.1-0.6,0.1-1.1,0.6-1.5c0.8-0.7,0.6-1.9-0.4-2.3
		c-0.6-0.2-0.9-0.7-1-1.3l-0.7-4c-0.2-1.4-1.3-2.4-2.7-2.5c-0.3,0-0.6,0-0.9-0.1c-3.1-0.2-3.1,3.1-3.6,5.3l-1.3-2
		c-0.5-0.8-1.3-1.2-2.3-1.1l-9.7,0.6c-6.9,0.5-12.1-5.8-12.8-10c-0.7-4.1-3.3-7.2-6.9-4.8c-6.8,4.4-12,10.9-18,16.4
		C-189.6,296.9-189.8,297-189.9,297.2L-189.9,297.2z M-191.9,298.5c-1.6,1.2-3.2,2.3-5,3.2c-3.2,1.6-1.9,4.2,0.4,7.3
		c1.4,2,4.2,4.6,6,6.4c0.5,0.5,1.3,0.6,1.9,0.3l3-1.6l-1.4,3.3c-0.3,0.6-0.1,1.4,0.4,1.8c2.1,1.9,4.3,3.8,6.7,5.7
		c0.5,0.4,1.3,0.5,1.9,0.1l2.9-1.7l-1,3.3c-0.2,0.7,0,1.3,0.5,1.8c6.3,5,13.4,10.1,20.6,14.9c0.5,0.4,1.2,0.4,1.8,0l1.8-1.2
		l-0.4,1.9c-0.2,0.7,0.1,1.4,0.7,1.7c3.4,2.1,6.7,4.2,10.1,6.2c0.6,0.3,1.3,0.3,1.8-0.1l1.8-1.4l-0.5,1.9c-0.2,0.7,0.1,1.5,0.8,1.9
		c3.8,2.1,7.6,4,11.2,5.7c0.6,0.3,1.2,0.2,1.7-0.2l1.6-1.3l-0.2,1.7c-0.1,0.7,0.3,1.4,1,1.7c3,1.2,5.8,2.3,8.4,3.1
		c0.6,0.2,1.2,0,1.6-0.4l1.4-1.4v1.4c0,0.8,0.5,1.4,1.3,1.6c5.5,1.2,10.1,1.1,13.1-0.7c2.1-1.2,4-3.8,4.3-6.3
		c-2.8,2.5-6.8,3.5-10.6,3.2c-8.2-0.8-18.6-6.1-26-10.2c-11.6-6.7-20.2-14.6-29.5-23c-7.5-6.8-15.4-13.9-25.6-21.1
		C-186.7,305.7-190.9,302.8-191.9,298.5L-191.9,298.5z M-136.6,300.3c0.3,0.2,0.6,0.5,0.8,0.8l0.1,0.2l-1.8-0.2
		c-0.3,0-0.5,0.1-0.7,0.3c-0.2,0.2-0.3,0.4-0.2,0.7v0.3c0,0.3,0.2,0.5,0.4,0.6c0.2,0.2,0.5,0.2,0.7,0.1l1.8-0.5v0.3
		c0,0.1-0.1,0.3-0.2,0.4c-0.6,1.1-2,1.4-3,0.8c-1.1-0.6-1.4-2-0.8-3C-138.9,300-137.6,299.7-136.6,300.3L-136.6,300.3z
		 M-134.6,308.8c0.2,0.1,0.4,0.3,0.6,0.5l0.1,0.2l-1.8,0.1c-0.3,0-0.5,0.1-0.7,0.3c-0.2,0.2-0.2,0.5-0.2,0.7l0.1,0.2
		c0.1,0.3,0.2,0.5,0.4,0.6c0.2,0.1,0.5,0.1,0.7,0.1l1.7-0.6l-0.1,0.2c0,0.2-0.1,0.3-0.2,0.5c-0.6,1-1.8,1.3-2.8,0.7
		s-1.3-1.8-0.7-2.8C-136.9,308.5-135.6,308.2-134.6,308.8L-134.6,308.8z M-132.6,317.1c0.1,0.1,0.2,0.1,0.3,0.2l0.2,0.1l-1.4,0.3
		c-0.3,0-0.5,0.2-0.6,0.4c-0.1,0.2-0.2,0.5-0.1,0.7l0.1,0.3c0.1,0.3,0.3,0.4,0.5,0.5c0.3,0.1,0.5,0.1,0.7,0l1.3-0.7v0.2
		c0,0.2-0.1,0.4-0.2,0.6c-0.5,0.9-1.7,1.3-2.7,0.7c-0.9-0.5-1.3-1.7-0.7-2.7C-134.8,316.9-133.6,316.6-132.6,317.1L-132.6,317.1z
		 M-129.1,326.9c0,0.1-0.1,0.3-0.2,0.4c-0.5,0.8-1.5,1.1-2.4,0.6c-0.8-0.5-1.1-1.5-0.6-2.4c0.5-0.8,1.5-1.1,2.3-0.7l0.2,0.1l-1,0.3
		c-0.3,0.1-0.5,0.2-0.6,0.5c-0.1,0.2-0.1,0.5,0,0.7l0.1,0.3c0.1,0.2,0.3,0.4,0.6,0.5s0.5,0,0.7-0.1l0.8-0.6L-129.1,326.9
		L-129.1,326.9z M-125.6,333.7c0,0.2-0.1,0.4-0.2,0.6c-0.5,0.8-1.5,1.1-2.3,0.6s-1.1-1.5-0.6-2.3c0.4-0.7,1.3-1,2.1-0.7l0.3,0.1
		l-1.1,0.4c-0.3,0.1-0.4,0.3-0.5,0.5c-0.1,0.3-0.1,0.5,0.1,0.7l0.2,0.3c0.1,0.2,0.3,0.4,0.6,0.4c0.3,0.1,0.5,0,0.7-0.2l0.9-0.8
		L-125.6,333.7L-125.6,333.7z"/>
	<polygon points="-139.4,361.8 -228.9,337.2 -230.4,343.5 	"/>
	<polygon points="-123.1,367 -207.9,354.1 -208.2,360 	"/>
</g>
<g>
	<path class="st0" d="M-189.9,443c0.1,0.4,0.4,1.5,0.6,2.1c1.4,3.2,5.2,5.6,8,7.6c10,7.1,17.7,14.1,25,20.7
		c9.2,8.3,17.8,16.7,29.2,23.1c7.1,4,17.2,9.4,25.1,10.1c3.8,0.4,8-1,10.3-4c0.1-0.1,0.1-0.2,0.2-0.2c-0.1-0.3-2.4-4.6-2.8-5.3
		c-0.6-1-1.4-1.7-2.5-2.1c-7.6-2.6-13.9-6.2-18.7-11l-0.1-0.1c-1.5-1.9-2.8-3.9-4-5.8c-0.3-0.5-0.3-1.2,0-1.7
		c0.6-0.9-0.1-2.1-1.1-2.1c-0.6,0-1.2-0.3-1.4-0.9c-0.2-0.5-0.5-0.9-0.7-1.4s-0.2-1.1,0.1-1.6c0.6-0.8,0.1-1.9-0.9-2.1
		c-0.6-0.1-1-0.5-1.2-1c-0.3-0.7-0.5-1.3-0.7-2c-0.2-0.6-0.1-1.2,0.4-1.7c0.7-0.8,0.3-2.1-0.7-2.3c-0.6-0.1-1.1-0.5-1.3-1.2
		c-0.2-0.8-0.5-1.7-0.7-2.5c-0.2-0.6,0-1.2,0.5-1.6c1-0.9,0.1-2.6-1.2-2.3l-0.3,0.1l-0.2-1l-0.5-2.8c-0.1-0.6,0.1-1.1,0.6-1.5
		c0.8-0.7,0.6-1.9-0.4-2.3c-0.6-0.2-0.9-0.7-1-1.3l-0.7-4c-0.2-1.4-1.3-2.4-2.7-2.5c-0.3,0-0.6,0-0.9-0.1c-3.1-0.2-3.1,3.1-3.6,5.3
		l-1.3-2c-0.5-0.8-1.3-1.2-2.3-1.1l-9.7,0.6c-6.9,0.5-12.1-5.8-12.8-10c-0.7-4.1-3.3-7.2-6.9-4.8c-6.8,4.4-12,10.9-18,16.4
		C-189.6,442.7-189.8,442.8-189.9,443L-189.9,443z M-191.9,444.3c-1.6,1.2-3.2,2.3-5,3.2c-3.2,1.6-1.9,4.2,0.4,7.3
		c1.4,2,4.2,4.6,6,6.4c0.5,0.5,1.3,0.6,1.9,0.3l3-1.6l-1.4,3.3c-0.3,0.6-0.1,1.4,0.4,1.8c2.1,1.9,4.3,3.8,6.7,5.7
		c0.5,0.4,1.3,0.5,1.9,0.1l2.9-1.7l-1,3.3c-0.2,0.7,0,1.3,0.5,1.8c6.3,5,13.4,10.1,20.6,14.9c0.5,0.4,1.2,0.4,1.8,0l1.8-1.2
		l-0.4,1.9c-0.2,0.7,0.1,1.4,0.7,1.7c3.4,2.1,6.7,4.2,10.1,6.2c0.6,0.3,1.3,0.3,1.8-0.1l1.8-1.4l-0.5,1.9c-0.2,0.7,0.1,1.5,0.8,1.9
		c3.8,2.1,7.6,4,11.2,5.7c0.6,0.3,1.2,0.2,1.7-0.2l1.6-1.3l-0.2,1.7c-0.1,0.7,0.3,1.4,1,1.7c3,1.2,5.8,2.3,8.4,3.1
		c0.6,0.2,1.2,0,1.6-0.4l1.4-1.4v1.4c0,0.8,0.5,1.4,1.3,1.6c5.5,1.2,10.1,1.1,13.1-0.7c2.1-1.2,4-3.8,4.3-6.3
		c-2.8,2.5-6.8,3.5-10.6,3.2c-8.2-0.8-18.6-6.1-26-10.2c-11.6-6.7-20.2-14.6-29.5-23c-7.5-6.8-15.4-13.9-25.6-21.1
		C-186.7,451.5-190.9,448.6-191.9,444.3L-191.9,444.3z M-136.6,446.1c0.3,0.2,0.6,0.5,0.8,0.8l0.1,0.2l-1.8-0.2
		c-0.3,0-0.5,0.1-0.7,0.3c-0.2,0.2-0.3,0.4-0.2,0.7v0.3c0,0.3,0.2,0.5,0.4,0.6c0.2,0.2,0.5,0.2,0.7,0.1l1.8-0.5v0.3
		c0,0.1-0.1,0.3-0.2,0.4c-0.6,1.1-2,1.4-3,0.8c-1.1-0.6-1.4-2-0.8-3C-138.9,445.8-137.6,445.5-136.6,446.1L-136.6,446.1z
		 M-134.6,454.6c0.2,0.1,0.4,0.3,0.6,0.5l0.1,0.2l-1.8,0.1c-0.3,0-0.5,0.1-0.7,0.3c-0.2,0.2-0.2,0.5-0.2,0.7l0.1,0.2
		c0.1,0.3,0.2,0.5,0.4,0.6c0.2,0.1,0.5,0.1,0.7,0.1l1.7-0.6l-0.1,0.2c0,0.2-0.1,0.3-0.2,0.5c-0.6,1-1.8,1.3-2.8,0.7
		s-1.3-1.8-0.7-2.8C-136.9,454.3-135.6,454-134.6,454.6L-134.6,454.6z M-132.6,462.9c0.1,0.1,0.2,0.1,0.3,0.2l0.2,0.1l-1.4,0.3
		c-0.3,0-0.5,0.2-0.6,0.4c-0.1,0.2-0.2,0.5-0.1,0.7l0.1,0.3c0.1,0.3,0.3,0.4,0.5,0.5c0.3,0.1,0.5,0.1,0.7,0l1.3-0.7v0.2
		c0,0.2-0.1,0.4-0.2,0.6c-0.5,0.9-1.7,1.3-2.7,0.7c-0.9-0.5-1.3-1.7-0.7-2.7C-134.8,462.7-133.6,462.4-132.6,462.9L-132.6,462.9z
		 M-129.1,472.7c0,0.1-0.1,0.3-0.2,0.4c-0.5,0.8-1.5,1.1-2.4,0.6c-0.8-0.5-1.1-1.5-0.6-2.4c0.5-0.8,1.5-1.1,2.3-0.7l0.2,0.1l-1,0.3
		c-0.3,0.1-0.5,0.2-0.6,0.5c-0.1,0.2-0.1,0.5,0,0.7l0.1,0.3c0.1,0.2,0.3,0.4,0.6,0.5s0.5,0,0.7-0.1l0.8-0.6L-129.1,472.7
		L-129.1,472.7z M-125.6,479.5c0,0.2-0.1,0.4-0.2,0.6c-0.5,0.8-1.5,1.1-2.3,0.6s-1.1-1.5-0.6-2.3c0.4-0.7,1.3-1,2.1-0.7l0.3,0.1
		l-1.1,0.4c-0.3,0.1-0.4,0.3-0.5,0.5c-0.1,0.3-0.1,0.5,0.1,0.7l0.2,0.3c0.1,0.2,0.3,0.4,0.6,0.4c0.3,0.1,0.5,0,0.7-0.2l0.9-0.8
		L-125.6,479.5L-125.6,479.5z"/>
	<polygon class="st0" points="-139.4,507.6 -228.9,483 -230.4,489.3 	"/>
	<polygon class="st0" points="-123.1,512.8 -207.9,499.9 -208.2,505.8 	"/>
</g>
</svg>
