<?xml version="1.0" encoding="utf-8"?>
<!-- Generator: Adobe Illustrator 19.1.0, SVG Export Plug-In . SVG Version: 6.00 Build 0)  -->
<svg version="1.1" id="Layer_1" xmlns="http://www.w3.org/2000/svg" xmlns:xlink="http://www.w3.org/1999/xlink" x="0px" y="0px"
	 viewBox="-233 253 144 288" style="enable-background:new -233 253 144 288;" xml:space="preserve">
<style type="text/css">
	.st0{fill:#CC0000;}
	.st1{fill:#010101;}
</style>
<g>
	<path class="st0" d="M-136.2,433.6h-50.2c-3.6,0-6.4-2.4-6.4-5.5v-9.9c0-3,2.8-5.5,6.4-5.5h50.2c3.6,0,6.4,2.4,6.4,5.5v9.9
		C-129.7,431.2-132.7,433.6-136.2,433.6z"/>
	<path class="st0" d="M-135.1,435.7h-52.3c-9.1,0-16.4,6.3-16.4,14V515c0,5,4.7,9,10.6,9h64.2c5.9,0,10.6-4,10.6-9v-65.3
		C-118.7,442-126,435.7-135.1,435.7z"/>
</g>
<g>
	<path class="st1" d="M-136.2,287.6h-50.2c-3.6,0-6.4-2.4-6.4-5.5v-9.9c0-3,2.8-5.5,6.4-5.5h50.2c3.6,0,6.4,2.4,6.4,5.5v9.9
		C-129.7,285.1-132.7,287.6-136.2,287.6z"/>
	<path class="st1" d="M-135.1,289.7h-52.3c-9.1,0-16.4,6.3-16.4,14V369c0,5,4.7,9,10.6,9h64.2c5.9,0,10.6-4,10.6-9v-65.3
		C-118.7,296-126,289.7-135.1,289.7z"/>
</g>
</svg>
